<?xml version="1.0" encoding="utf-8"?>
<!-- Generator: Adobe Illustrator 24.1.2, SVG Export Plug-In . SVG Version: 6.00 Build 0)  -->
<svg version="1.1" id="Layer_1" xmlns="http://www.w3.org/2000/svg" xmlns:xlink="http://www.w3.org/1999/xlink" x="0px" y="0px"
	 viewBox="0 0 500.37 269.51" style="enable-background:new 0 0 500.37 269.51;" xml:space="preserve">
<style type="text/css">
	.st0{fill:#59F3F9;}
</style>
<path class="st0" d="M499.73,20.15c0.28,3.76-1.12,7.44-3.71,10.67c-1.45,1.81-3.02,3.55-4.67,5.2
	c-74.92,74.94-149.85,149.87-224.78,224.81c-2.36,2.36-4.7,4.7-7.77,6.2c-7.15,3.48-13.88,2.73-20.19-1.96
	c-1.6-1.18-3.05-2.58-4.46-3.99C158.75,185.67,83.37,110.24,7.9,34.91c-6.25-6.24-8.94-13.15-6.27-21.68
	C4.78,3.14,16.52-2.26,26.3,1.69c3.79,1.53,6.78,4.12,9.64,6.98c47.44,47.52,94.91,95.01,142.37,142.5
	c22.49,22.51,44.99,45.02,67.48,67.53c0.71,0.71,1.4,1.43,2.12,2.12c2.32,2.2,2.33,2.2,4.66-0.02c0.84-0.8,1.65-1.65,2.48-2.47
	C324.77,148.56,394.49,78.78,464.21,9.01c2.12-2.12,4.23-4.23,6.85-5.79c6.68-3.97,13.34-3.81,19.85,0.21
	C496.88,7.13,499.96,12.56,499.73,20.15z"/>
</svg>
