<?xml version="1.0" encoding="utf-8"?>
<!-- Generator: Adobe Illustrator 24.1.2, SVG Export Plug-In . SVG Version: 6.00 Build 0)  -->
<svg version="1.1" id="Layer_1" xmlns="http://www.w3.org/2000/svg" xmlns:xlink="http://www.w3.org/1999/xlink" x="0px" y="0px"
	 viewBox="0 0 558.87 199.44" style="enable-background:new 0 0 558.87 199.44;" xml:space="preserve">
<style type="text/css">
	.st0{display:none;}
	.st1{fill:none;stroke:#59F3F9;stroke-width:0.3;stroke-miterlimit:10;}
	.st2{opacity:0.3;fill:#59F3F9;enable-background:new    ;}
	.st3{fill:#59F3F9;}
</style>
<rect x="-7.07" y="-5.07" class="st0" width="573" height="209.59"/>
<g>
	<path class="st1" d="M171.68,134.78l-16.48-3.26l-17.64-3.71l-16.01-8.14l-21.36-8.84L76.06,97.1l-19.67-6.04l-14.46-7.67
		l-20.65-7.92l-5.12-9.54l4.88-14.41l14.38-5.34l17.87-1.16l19.27,5.34l19.03,7.91l20.66,4.66l21.34,8.6L149,74.09l17.33,0.45
		l19.73,2.33l19.11,1.01"/>
	<path class="st1" d="M558.02,96.22l-55.09-42.68c0,0-22.29-17.83-23.25-18.81S444.86,19.6,444.86,19.6L415.61,9.3l7.42,8.87
		l21.83,1.43"/>
	<path class="st1" d="M124.81,22.09l1.46-8.71l13.58-4.04l24.8,2.17l26.61,7.46l29.4,3.12l28.48,5.25h22.29l55.71-9.01"/>
	<path class="st1" d="M51.68,69.92l15.79,6.01L56.39,91.06L51.68,69.92z M51.68,69.92l-9.75,13.47"/>
	<path class="st1" d="M27.17,49.24l1.07,12.21l7.19-15.27l5.41,10.31L53.3,45.01v12.7l26.92,8.88"/>
	<path class="st1" d="M28.24,61.44l10.26-9.43l3.98-6.31"/>
	<path class="st1" d="M56.39,91.06l23.84-9.07V66.6l-7.66-16.25L53.3,57.71l-12.46-1.23l-12.6,4.95"/>
	<path class="st1" d="M41.93,83.39l12.11-2.89"/>
	<path class="st1" d="M80.23,81.99l11.38,23.95l7.11-22.55L80.23,81.99z"/>
	<path class="st1" d="M98.72,83.39l13.55-20.47l4.63,23.64L98.72,83.39z"/>
	<path class="st1" d="M21.28,64.04l6.96,14.1l12.87-21.65"/>
	<path class="st1" d="M91.61,105.94l25.3-19.38l16.71-15.03V97.1l15.41-23.02"/>
	<path class="st1" d="M112.61,115.97l21-18.87l28.1,13.73l-24.15,16.98l-3.95-30.71L116.9,86.56L112.61,115.97z M112.61,115.97
		L99.47,99.93l15.78-1.97l9.56,7.98l12.76,21.87"/>
	<path class="st1" d="M161.72,74.41l9.97,9.89l5.39-8.5"/>
	<path class="st1" d="M116.9,86.56l7.91,19.38"/>
	<path class="st1" d="M59.92,49.65l12.65,0.7l-5.1,25.58l12.76,6.06L76.06,97.1l22.66-13.71l1.47,27.44"/>
	<path class="st1" d="M79.53,56.47l0.7,10.11"/>
	<path class="st1" d="M53.31,57.72l6.62-8.06l-6.62-4.64l-12.2,2.89l-5.67-1.72l-8.06,5.34h-6.32l6.43,1.23l5.64-1.68l5.38,0.95
		l8.99-1.66"/>
	<path class="st1" d="M91.61,58.26l15.78,7.42l2.45,0.92l3.41,1.29l20.37,3.63l12.6,6.74l10.15,0.59"/>
	<path class="st1" d="M95.61,72.38l14.23-5.79"/>
	<path class="st1" d="M17.02,34.15l2.48-8.29l-4.96,0.54"/>
	<path class="st1" d="M17.95,15.7l1.55,10.16L35.28,8.11l10.99,8.87l17.17-0.96l4.94-5.44l15.1-2.47l14.38,3.94l23.45,9.23
		l16.01,3.73l16.71,3.26l23.45,6.51l20.89,2.1l28.71,5.34l7.5,1.4l-5.66,1.94"/>
	<path class="st1" d="M24.35,12.89l21.92,4.08l6.65-6.09"/>
	<path class="st1" d="M89.48,42.21l18.34,1.4l10.71-7.59"/>
	<path class="st1" d="M57.44,31.51L38.69,45.96l-21.67-11.8l-2.48-7.75l3.41-10.7l17.33-7.59l17.64,2.78l10.52,5.13l20.27,6.82
		l11.14,5.59l23.67,7.59l27.85,12.39l6.49,2.17l23.69,1.86l19.96,4.64l12.68,4.35h10.06"/>
	<path class="st1" d="M38.69,45.96l-3.32-9.94l-18.35-1.86l14.17-7.28l-1.1-12.94"/>
	<path class="st1" d="M31.19,26.87l15.08-9.89l11.18,14.54l6-15.5l11.13,9.85l-0.1,11.33"/>
	<path class="st1" d="M19.5,25.86l11.69,1.01l4.19,9.15l6.56-6.01l4.34-13.03l15.05,4.54l8.77,5.82"/>
	<path class="st1" d="M35.37,36.02l22.07-4.5l-15.52-1.51l-10.74-3.14"/>
	<path class="st1" d="M57.44,31.51l6,16.31"/>
	<path class="st1" d="M68.31,49.17l6.17-11.97l9.24-14.37"/>
	<path class="st1" d="M35.28,8.11l15.36,4.86l12.8,3.04l6.65,11.32"/>
	<path class="st1" d="M24.35,12.89l-5.56,8.31l-1.77,4.92v8.03"/>
	<path class="st1" d="M107.82,43.61l11.33,8.79l15.02,2.62l18.71-4.44l-3.86,7.67"/>
	<path class="st1" d="M89.48,42.21l4.39,7.44h7.49l17.79,2.75l13.31-10.19l-19.3-2.41l-18.3-11.38l-9.32,0.56l-10.97-3.12"/>
	<path class="st1" d="M164.49,51.36l16.09,6.9"/>
	<path class="st1" d="M176.57,52.45l-27.55,5.81"/>
	<path class="st1" d="M152.88,50.59l7.81,5.22l8.7,2.45l0.79-4.46"/>
	<path class="st1" d="M134.17,55.03l7.04-8.92l-22.06,6.29l-6.88,10.51l-16.66,9.44l-15.38,9.63l11.38-23.73l-12.07-1.77l-6.96-6.13
		l16.91-8.14l-32.04-10.7l26.27-8.68l5.77,19.38l5.38-13.79l12.96,15.19l-13.95,6.04l-2.26,8.6"/>
	<path class="st1" d="M101.36,49.65l6.46-6.04l24.65-1.4l1.71,12.81l14.85,3.23h14.7h16.86l15.95-1.16"/>
	<path class="st1" d="M149.02,58.26v5.82"/>
	<path class="st1" d="M134.17,55.03l-7.9,4.63l9.67,3.26"/>
	<path class="st1" d="M41.93,30.01l9.38-6.49"/>
	<path class="st1" d="M74.57,25.86l0.25-6.03l-4.73,7.04"/>
	<path class="st1" d="M21.1,56.49l-4.93,9.44l5.12-1.89l6.96-2.59l-7.19-9.92l0.23,23.95l6.96-14.03L41.94,83.4l-1.08-26.9
		l10.83,13.43l1.63-12.21l14.17,18.22l24.13-17.67l7.11,25.13"/>
	<path class="st1" d="M48.25,49.65l5.05,1.29l6.62-1.29"/>
	<path class="st1" d="M81.55,14.77l1.94-6.66l-15.17,9.54l0.08-7.07L81.55,14.77z M81.55,14.77l16.32-2.72l-2.26,3.96l0.96,7.5"/>
	<path class="st1" d="M80.66,27.58l8.82-1.72"/>
	<path class="st1" d="M137.33,25.01l6.12,7.91l-13.28-2.97l-6.19,2.97"/>
	<path class="st1" d="M75.8,12.94l-0.98,6.9l6.73-5.06l7.94,6.27l6.12-5.03l11.81-0.2l1.36,7.02l8.12,3.77l20.43-1.6l-7.16,4.94
		l-8.85-8.67l-12.54,1.55L95.6,16.01l-14.06-1.24l2.17,8.06"/>
	<path class="st1" d="M177.5,34.78l8.82,5.03l12.07-2.94"/>
	<path class="st1" d="M126.27,13.37l7.45,2.64l6.12-6.68l7.01,6.48l14.87-4.55l2.77,10.72l-9.05-2.14l-3.92-9.47"/>
	<path class="st1" d="M155.44,19.83l18.07-5.84l3.05,7.98l7.89,1.37l6.81-4.38l9.21,6.04l14.11-3.57"/>
	<path class="st1" d="M163.28,17.3l13.28,4.68l14.69-3.01"/>
	<path class="st1" d="M124.81,22.09l8.91-6.07l13.13-0.2l3.02,7.02"/>
	<path class="st1" d="M133.72,16.01l3.61,8.99l9.52,3.95l7.19-0.68l5.66,3.71l5.6-0.59"/>
	<path class="st1" d="M274.06,104.84l-9.75,9.32l-22.6-1.55l-20.43-1.77l-19.19,4.88l-10.83,8.68l-4.95,13.34l4.32,18.92
		l16.73-13.96l0.62-14.88"/>
	<path class="st1" d="M253.14,113.4l-25.53,16.51l-19.62-2.1l-21.67,9.92l21.05,4.96l11.9,7.14l0.45,7.98"/>
	<path class="st1" d="M204.42,157.2l14.85-7.36l8.34-19.93"/>
	<path class="st1" d="M227.61,129.91l6.99,21.85l1.4,6.71"/>
	<path class="st1" d="M178.89,115.71l14.38-2.64l6.03-7.13l2.79,9.77h-23.25l0.77,9.61l-7.39,6.43l6.49,7.77l-1.4,7.67l8.94-9.51
		l-14.04-5.96c0,0,19.3-7.05,18.99-7.36s-12.4-8.68-12.4-8.68l-17.19-4.89l13.95-16.85"/>
	<path class="st1" d="M199.31,105.94l13.1,3.34"/>
	<path class="st1" d="M179.67,125.32l11.59-0.93l16.72,3.42l13.3-16.98l6.32,19.07l14.11,3.48l-7.12,18.37l-15.33-1.93"/>
	<path class="st1" d="M171.68,137.22l7.08,2.33"/>
	<path class="st1" d="M234.6,151.76l18.54,7.7l-11.42-26.08l11.42-19.99l-4.54-10.97l-27.31,8.4l5.41-10.47l-24.6,15.35"/>
	<path class="st1" d="M241.71,133.38l21.05,10.81l-9.63,15.27"/>
	<path class="st1" d="M283.18,150.44l-20.41-6.24l9.01,16.51L283.18,150.44z M283.18,150.44l11.16,12.64l17.78-7.52l11.59,10.2"/>
	<path class="st1" d="M323.08,88.73l18.34-9.3l36.09-7.72l42.3-0.73"/>
	<path class="st1" d="M169.39,58.26l20.03,4.66l-8.84-4.66"/>
	<path class="st1" d="M263.26,52.75l29.98-3.09l30.15,2.41l22.74,7.49"/>
	<path class="st1" d="M474.45,173.39l-21.24-12.57l-28.29-5.11l-20.89,3.74"/>
	<path class="st1" d="M274.06,104.84l19.17-7.27l18.42,2.33l11.42-11.17h15.81L311.65,99.9L274.06,104.84z M274.06,104.84
		l-47.37-4.47l-27.37,5.58l-20.43,9.77l-6.62,16.04l-0.59,5.47l5.69,10l13.27,9.43l46.27,1.86l31.57,1.85l31.11,3.26l41.77,3.73"/>
	<path class="st1" d="M479.71,34.78l5.58,13.48l13.9,2.33"/>
	<path class="st1" d="M404.04,45.55l13.47-5.75l12.08,8.53L404.04,45.55z"/>
	<path class="st1" d="M219.27,74.74l10.91-2.38l4.42,7.87L219.27,74.74z"/>
	<path class="st1" d="M394.77,159.46l-19.96,7.89l18.38,4.18L394.77,159.46z"/>
	<path class="st1" d="M288.56,143.28l7.11,8.48l9.02-16.15L288.56,143.28z"/>
	<path class="st1" d="M205.86,89.9l4.82-5.59l11.84,6.76L205.86,89.9z"/>
	<path class="st1" d="M332.08,17.72l18.8-3.73l-4.87,8.45"/>
	<path class="st1" d="M359.01,13.99l12.07,4.22l4.88-10.11L359.01,13.99z"/>
	<path class="st1" d="M383.16,6.63l19.5,2.7l-5.81-5.73L383.16,6.63z"/>
	<path class="st1" d="M293.24,97.57l29.84-8.84"/>
	<path class="st1" d="M346.13,171.53l13.11-1.86l-5.33,3.73L346.13,171.53z"/>
	<path class="st1" d="M397.87,162.66l12.97,2.66l-6.26,1.71L397.87,162.66z"/>
	<path class="st1" d="M103.51,54.42l-4.05,3.29l6.6,0.54L103.51,54.42z"/>
	<path class="st2" d="M16.17,65.93l8.18-9.85l2.82-6.85l-6.23,2.58L16.17,65.93z"/>
	<path class="st2" d="M21.05,51.52l6.43,1.23l11.21-6.79l-3.26,0.22L21.05,51.52z"/>
	<path class="st2" d="M32.68,47.2l5.83,4.81l14.8-7l-17.87,1.16L32.68,47.2z"/>
	<path class="st2" d="M47.99,45.35l5.32,3.15l6.62,1.15l12.65,0.7l-19.27-5.34L47.99,45.35z"/>
	<path class="st2" d="M63.44,47.82l8.37,6.31l7.72,2.36l12.07,1.77l-19.03-7.91L63.44,47.82z"/>
	<path class="st2" d="M86.99,56.35l5.44,4.81l14.96,4.52l4.88-2.76l-19.81-4.27L86.99,56.35z"/>
	<path class="st2" d="M107.82,61.91l5.43,5.98l18.35,5.45l1.84-1.89l-21.17-8.53L107.82,61.91z"/>
	<path class="st2" d="M131.6,73.34l14.62,4.92l2.8-4.18l-15.58-2.64L131.6,73.34z"/>
	<path class="st2" d="M146.22,78.26l15.5-3.85l-12.7-0.33L146.22,78.26z"/>
	<path class="st2" d="M154.82,74.09l10.77,4.18l11.49-2.45l-10.73-1.27l-4.63-0.12L154.82,74.09z"/>
	<path class="st2" d="M116.9,86.56l7.63,18.72l9.08-8.17L116.9,86.56z"/>
	<path class="st2" d="M56.39,91.06l23.84-9.07L76.06,97.1L56.39,91.06z"/>
	<path class="st2" d="M17.02,33.69v-7.56l1.77-4.92l5.56-8.31l-6.4,2.81l-3.41,10.7L17.02,33.69z"/>
	<path class="st2" d="M17.95,15.7l11.92-1.52l5.41-6.07L17.95,15.7z"/>
	<path class="st2" d="M28.91,10.89l11.58,1.41l12.43-1.41L35.28,8.11L28.91,10.89z"/>
	<path class="st2" d="M35.28,8.11l15.36,4.86l12.8,3.04l-10.52-5.13L35.28,8.11z"/>
	<path class="st2" d="M52.92,10.89l9.63,7.44l12.28,1.51l-11.38-3.82L52.92,10.89z"/>
	<path class="st2" d="M63.86,16.15l8.32,7.6l11.53-0.92L63.86,16.15z"/>
	<path class="st2" d="M77.97,21l6.9,5.76l-1.15-3.93L77.97,21z"/>
	<path class="st2" d="M83.72,22.83l11.14,5.59l-10-1.66L83.72,22.83z"/>
	<path class="st2" d="M94.86,28.42l18.31,11.38l19.3,2.41l-13.93-6.2L94.86,28.42z"/>
	<path class="st2" d="M118.53,36.02l14.74,12.35l7.94-2.25l-8.74-3.9L118.53,36.02z"/>
	<path class="st2" d="M133.27,48.37l19.61,2.22l-11.67-4.47L133.27,48.37z"/>
	<path class="st2" d="M42.21,9.19l6.01,6l7.61-2.89l-2.91-1.41L42.21,9.19z"/>
	<path class="st2" d="M108.78,22.83l12.54-1.55l-13.9-5.47L108.78,22.83z"/>
	<path class="st2" d="M83.49,8.11l-1.94,6.66l16.32-2.72L83.49,8.11z"/>
	<path class="st2" d="M89.28,9.69l6.32,6.32l11.81-0.2l-9.55-3.76L89.28,9.69z"/>
	<path class="st2" d="M68.73,10.69l7.07,2.25l7.69-4.83L68.73,10.69z"/>
	<path class="st2" d="M68.39,10.58l-2.62,6.21l-2.33-0.78L68.39,10.58z"/>
	<path class="st2" d="M64.73,14.58l13.92-5.64l-10.26,1.63L64.73,14.58z"/>
	<path class="st2" d="M115.87,19.13l1.04,7.47l12.54-3.74l-8.12-1.58L115.87,19.13z"/>
	<path class="st2" d="M128.16,22.86l1.29-8.37l-3.18-1.12l-1.46,8.59L128.16,22.86z"/>
	<path class="st2" d="M139.85,9.33l-6.12,6.68l-7.92,0.93l0.47-3.57L139.85,9.33z"/>
	<path class="st2" d="M132.82,11.43l11.39,1.94l7.3-3.01l-11.67-1.03L132.82,11.43z"/>
	<path class="st2" d="M147.01,9.97l5.88,4.02l9.13-2.72l-9.58-0.78L147.01,9.97z"/>
	<path class="st2" d="M161.7,11.26l1.58,6.04l9.87-3.2l-7.86-2.75L161.7,11.26z"/>
	<path class="st2" d="M181.43,28.95l5.97-3.4l5.18,6.04L181.43,28.95z"/>
	<path class="st2" d="M52.92,10.89l3.21,9.07l7.32-3.94L52.92,10.89z"/>
	<path class="st2" d="M14.54,26.4l8.32-4.33l-4.91-6.37L14.54,26.4z"/>
	<path class="st2" d="M141.21,46.11l10.31,7.84l1.36-3.37L141.21,46.11z"/>
	<path class="st2" d="M151.28,53.79l1.6-3.2l12,0.95l11.69,0.92l-6.39,1.35l-9.64,1.89l-4.17-2.78L151.28,53.79z"/>
	<path class="st2" d="M161.53,51.27l8.09,5.68l13.42-3l-6.48-1.51l-12.08-0.95L161.53,51.27z"/>
	<path class="st2" d="M107.98,32.62l2.71,8.96l7.84-5.56L107.98,32.62z"/>
	<path class="st2" d="M41.93,30.01l-6.56,6.01l22.07-4.5L41.93,30.01z"/>
	<path class="st2" d="M178.89,115.71l12.52,2.49l7.9-12.25L178.89,115.71z"/>
	<path class="st2" d="M189.11,110.83l-9.44,14.49l-7.39,6.43l6.62-16.04L189.11,110.83z"/>
	<path class="st2" d="M174.86,125.46l3.91,14.09l-1.39,7.67l-5.69-10l0.59-5.47L174.86,125.46z"/>
	<path class="st2" d="M192.78,109.06l19.62,0.22l14.29-8.92l-27.37,5.58L192.78,109.06z"/>
	<path class="st2" d="M216.4,102.46l7.8,2.73l24.4-2.76l-21.9-2.07L216.4,102.46z"/>
	<path class="st2" d="M240.38,101.65l10.06,5.23l23.62-2.05l-25.47-2.41L240.38,101.65z"/>
	<path class="st2" d="M275.75,109.28l-5.57,6.43h18.37L275.75,109.28z"/>
	<path class="st2" d="M265.8,104.06l5.02,3.87l11.7-0.31l-8.46-2.78L265.8,104.06z"/>
	<path class="st2" d="M293.24,97.57l-10.71,10.05l29.13-7.72L293.24,97.57z"/>
	<path class="st2" d="M293.24,97.57l22.48-1.63l7.36-7.21L293.24,97.57z"/>
	<path class="st2" d="M18.99,57.59l2.29,6.45v11.43l-5.12-9.54L18.99,57.59z"/>
	<path class="st2" d="M40.84,56.49l10.83,13.43l-9.75,13.47L40.84,56.49z"/>
	<path class="st2" d="M270.19,27.58l-6.93,5.09l10.8,2.1L270.19,27.58z"/>
	<path class="st2" d="M263.26,55.03l8.79-1.07l-6.25,4.3L263.26,55.03z"/>
	<path class="st2" d="M179.67,125.32l-0.9,14.23l-4.37-9.64L179.67,125.32z"/>
	<path class="st2" d="M178.43,141.43l12.21,15.22l-13.27-9.43L178.43,141.43z"/>
	<path class="st2" d="M220.2,123.62l12.31-3.01l-1.27,17.78L220.2,123.62z"/>
	<path class="st2" d="M313.51,164.87l9.56-7.05l9.8,8.78L313.51,164.87z"/>
	<path class="st2" d="M59.04,46.59l5.12,6.97l8.42-3.22L59.04,46.59z"/>
	<path class="st2" d="M29.87,14.18l10.62-1.88l-7.08-2.1L29.87,14.18z"/>
	<path class="st2" d="M22.86,22.07l1.49-9.18l-5.56,8.31L22.86,22.07z"/>
	<path class="st2" d="M22.86,22.07l0.45,15.5l-6.29-3.88v-7.56l1.77-4.92L22.86,22.07z"/>
	<path class="st2" d="M84.87,26.76l8.79,4.75L99,29.74l-4.14-1.32l-5.38-2.7L84.87,26.76z"/>
	<path class="st2" d="M495.74,66.86l1.39,11.17h9.29L495.74,66.86z"/>
	<path class="st2" d="M410.84,0.36l-2.85,10.45l5.57,6.06L410.84,0.36z"/>
	<path class="st3" d="M140.78,9.33c0,0.26-0.1,0.5-0.28,0.68s-0.42,0.28-0.68,0.28c-0.25,0-0.5-0.1-0.68-0.28
		c-0.18-0.18-0.28-0.43-0.28-0.68s0.1-0.5,0.28-0.68s0.42-0.28,0.68-0.28s0.5,0.1,0.68,0.28C140.67,8.83,140.78,9.08,140.78,9.33
		L140.78,9.33z"/>
	<path class="st3" d="M138.61,24.99c0,0.19-0.05,0.38-0.15,0.54c-0.1,0.16-0.25,0.29-0.43,0.36c-0.18,0.08-0.37,0.1-0.56,0.06
		s-0.36-0.13-0.5-0.26c-0.14-0.13-0.23-0.31-0.27-0.49c-0.04-0.19-0.02-0.38,0.05-0.56s0.19-0.33,0.35-0.43
		c0.16-0.11,0.35-0.16,0.54-0.16c0.25,0,0.49,0.1,0.67,0.28C138.5,24.5,138.6,24.74,138.61,24.99z"/>
	<path class="st3" d="M127.23,13.37c0,0.26-0.1,0.5-0.28,0.68s-0.42,0.28-0.68,0.28s-0.5-0.1-0.68-0.28
		c-0.18-0.18-0.28-0.43-0.28-0.68c0-0.26,0.1-0.5,0.28-0.68s0.42-0.28,0.68-0.28c0.25,0,0.5,0.1,0.68,0.28
		C127.13,12.87,127.23,13.12,127.23,13.37L127.23,13.37z"/>
	<path class="st3" d="M69.35,10.58c0,0.19-0.06,0.38-0.16,0.54c-0.11,0.16-0.26,0.28-0.43,0.35c-0.18,0.07-0.37,0.09-0.56,0.05
		c-0.19-0.04-0.36-0.13-0.49-0.26s-0.23-0.31-0.26-0.49c-0.04-0.19-0.02-0.38,0.05-0.56s0.2-0.33,0.35-0.43
		c0.16-0.11,0.34-0.16,0.53-0.16c0.25,0,0.5,0.1,0.68,0.28C69.25,10.08,69.35,10.32,69.35,10.58L69.35,10.58z"/>
	<path class="st3" d="M83.49,9.07c0.53,0,0.96-0.43,0.96-0.96s-0.43-0.96-0.96-0.96s-0.96,0.43-0.96,0.96
		C82.52,8.64,82.95,9.07,83.49,9.07z"/>
	<path class="st3" d="M17.98,34.09c0,0.19-0.05,0.38-0.15,0.54s-0.25,0.29-0.43,0.36c-0.18,0.08-0.37,0.1-0.56,0.06
		c-0.19-0.04-0.36-0.13-0.5-0.26c-0.14-0.13-0.23-0.31-0.27-0.49c-0.04-0.19-0.02-0.38,0.05-0.56s0.2-0.33,0.35-0.43
		c0.16-0.11,0.34-0.16,0.54-0.16c0.25,0,0.49,0.1,0.67,0.28C17.87,33.6,17.98,33.84,17.98,34.09L17.98,34.09z"/>
	<path class="st3" d="M22,51.52c0,0.19-0.06,0.38-0.16,0.54c-0.11,0.16-0.26,0.28-0.43,0.35c-0.18,0.07-0.37,0.09-0.56,0.05
		c-0.19-0.04-0.36-0.13-0.49-0.27s-0.22-0.31-0.26-0.5s-0.01-0.38,0.06-0.56c0.08-0.18,0.2-0.33,0.36-0.43s0.35-0.16,0.54-0.15
		c0.13,0,0.25,0.02,0.37,0.07s0.22,0.12,0.31,0.21s0.16,0.2,0.2,0.31C21.97,51.27,22,51.39,22,51.52z"/>
	<path class="st3" d="M17.13,65.93c0,0.19-0.06,0.38-0.16,0.53c-0.11,0.16-0.26,0.28-0.43,0.35s-0.37,0.09-0.56,0.05
		c-0.19-0.04-0.36-0.13-0.49-0.26c-0.13-0.13-0.23-0.31-0.26-0.49s-0.02-0.38,0.05-0.56c0.07-0.18,0.2-0.33,0.35-0.43
		c0.16-0.11,0.34-0.16,0.53-0.16c0.25,0,0.5,0.1,0.68,0.28C17.03,65.43,17.13,65.68,17.13,65.93L17.13,65.93z"/>
	<path class="st3" d="M22,75.47c0,0.19-0.06,0.38-0.16,0.54c-0.11,0.16-0.26,0.28-0.43,0.35c-0.18,0.07-0.37,0.09-0.56,0.05
		c-0.19-0.04-0.36-0.13-0.49-0.27s-0.22-0.31-0.26-0.5s-0.01-0.38,0.06-0.56c0.08-0.18,0.2-0.33,0.36-0.43s0.35-0.16,0.54-0.15
		c0.13,0,0.25,0.03,0.37,0.07s0.22,0.12,0.31,0.21s0.16,0.2,0.2,0.31C21.97,75.22,22,75.34,22,75.47z"/>
	<path class="st3" d="M29.17,78.14c0,0.26-0.1,0.5-0.28,0.68s-0.42,0.28-0.68,0.28c-0.25,0-0.5-0.1-0.68-0.28s-0.28-0.43-0.28-0.68
		c0-0.26,0.1-0.5,0.28-0.68s0.42-0.28,0.68-0.28c0.25,0,0.5,0.1,0.68,0.28S29.17,77.88,29.17,78.14L29.17,78.14z"/>
	<path class="st3" d="M42.89,83.37c0,0.26-0.1,0.5-0.28,0.68s-0.42,0.28-0.68,0.28c-0.25,0-0.5-0.1-0.68-0.28s-0.28-0.43-0.28-0.68
		c0-0.26,0.1-0.5,0.28-0.68s0.42-0.28,0.68-0.28c0.25,0,0.5,0.1,0.68,0.28S42.89,83.12,42.89,83.37L42.89,83.37z"/>
	<path class="st3" d="M57.35,91.05c0,0.26-0.1,0.5-0.28,0.68s-0.42,0.28-0.68,0.28c-0.25,0-0.5-0.1-0.68-0.28s-0.28-0.43-0.28-0.68
		c0-0.26,0.1-0.5,0.28-0.68s0.42-0.28,0.68-0.28c0.25,0,0.5,0.1,0.68,0.28S57.35,90.79,57.35,91.05L57.35,91.05z"/>
	<path class="st3" d="M77.01,97.1c-0.03,0.23-0.14,0.45-0.32,0.6s-0.4,0.24-0.64,0.24c-0.23,0-0.46-0.09-0.64-0.24
		s-0.29-0.37-0.32-0.6c-0.02-0.14-0.01-0.27,0.03-0.4c0.04-0.13,0.11-0.25,0.2-0.35s0.2-0.18,0.33-0.24
		c0.12-0.06,0.26-0.09,0.4-0.09s0.27,0.03,0.4,0.09c0.12,0.06,0.24,0.14,0.33,0.24c0.09,0.1,0.16,0.22,0.2,0.35
		C77.01,96.83,77.02,96.97,77.01,97.1L77.01,97.1z"/>
	<path class="st3" d="M92.57,105.94c0,0.19-0.06,0.38-0.16,0.53c-0.11,0.16-0.26,0.28-0.43,0.35c-0.18,0.07-0.37,0.09-0.56,0.06
		c-0.19-0.04-0.36-0.13-0.49-0.26c-0.13-0.14-0.23-0.31-0.26-0.49c-0.04-0.19-0.02-0.38,0.05-0.56s0.2-0.33,0.35-0.43
		c0.16-0.11,0.34-0.16,0.53-0.16c0.25,0,0.5,0.1,0.68,0.28C92.47,105.44,92.57,105.68,92.57,105.94L92.57,105.94z"/>
	<path class="st3" d="M36.32,45.94c0,0.19-0.05,0.38-0.16,0.54c-0.1,0.16-0.25,0.29-0.43,0.36s-0.37,0.1-0.56,0.06
		c-0.19-0.04-0.36-0.13-0.5-0.26c-0.14-0.14-0.23-0.31-0.26-0.5c-0.04-0.19-0.02-0.38,0.06-0.56c0.07-0.18,0.2-0.33,0.36-0.43
		s0.35-0.16,0.54-0.16c0.25,0,0.49,0.1,0.67,0.28S36.32,45.69,36.32,45.94z"/>
	<path class="st3" d="M54.27,44.96c0,0.26-0.1,0.5-0.28,0.68s-0.42,0.28-0.68,0.28c-0.25,0-0.5-0.1-0.68-0.28s-0.28-0.43-0.28-0.68
		c0-0.26,0.1-0.5,0.28-0.68S53.05,44,53.31,44c0.25,0,0.5,0.1,0.68,0.28C54.17,44.46,54.27,44.71,54.27,44.96L54.27,44.96z"/>
	<path class="st3" d="M73.53,50.35c0,0.26-0.1,0.5-0.28,0.68s-0.42,0.28-0.68,0.28c-0.25,0-0.5-0.1-0.68-0.28s-0.28-0.43-0.28-0.68
		c0-0.26,0.1-0.5,0.28-0.68s0.42-0.28,0.68-0.28c0.25,0,0.5,0.1,0.68,0.28S73.53,50.1,73.53,50.35z"/>
	<path class="st3" d="M113.23,62.9c0,0.26-0.1,0.5-0.28,0.68s-0.42,0.28-0.68,0.28s-0.5-0.1-0.68-0.28s-0.28-0.43-0.28-0.68
		c0-0.26,0.1-0.5,0.28-0.68s0.42-0.28,0.68-0.28c0.25,0,0.5,0.1,0.68,0.28C113.13,62.4,113.23,62.65,113.23,62.9z"/>
	<path class="st3" d="M134.58,71.51c0,0.19-0.05,0.38-0.15,0.54c-0.1,0.16-0.25,0.29-0.43,0.36c-0.18,0.08-0.37,0.1-0.56,0.06
		s-0.36-0.13-0.5-0.26c-0.14-0.13-0.23-0.31-0.27-0.49c-0.04-0.19-0.02-0.38,0.05-0.56s0.19-0.33,0.35-0.43
		c0.16-0.11,0.35-0.16,0.54-0.16c0.13,0,0.25,0.02,0.37,0.07s0.22,0.12,0.31,0.2c0.09,0.09,0.16,0.19,0.21,0.31
		C134.55,71.26,134.58,71.38,134.58,71.51L134.58,71.51z"/>
	<path class="st3" d="M157.33,78.84c0,0.19-0.06,0.38-0.16,0.53c-0.11,0.16-0.26,0.28-0.43,0.35c-0.18,0.07-0.37,0.09-0.56,0.05
		c-0.19-0.04-0.36-0.13-0.49-0.26c-0.13-0.13-0.23-0.31-0.26-0.49c-0.04-0.19-0.02-0.38,0.05-0.56s0.2-0.33,0.35-0.43
		c0.16-0.11,0.34-0.16,0.53-0.16c0.25,0,0.5,0.1,0.68,0.28C157.23,78.34,157.33,78.58,157.33,78.84L157.33,78.84z"/>
	<path class="st3" d="M173.33,131.75c0,0.19-0.06,0.38-0.16,0.54c-0.11,0.16-0.26,0.28-0.43,0.35c-0.18,0.07-0.37,0.09-0.56,0.06
		c-0.19-0.04-0.36-0.13-0.49-0.26c-0.13-0.13-0.23-0.31-0.26-0.49c-0.04-0.19-0.02-0.38,0.06-0.56s0.2-0.33,0.35-0.43
		c0.16-0.11,0.34-0.16,0.53-0.16c0.25,0,0.5,0.1,0.68,0.28C173.23,131.25,173.33,131.5,173.33,131.75L173.33,131.75z"/>
	<path class="st3" d="M178.33,147.22c0,0.19-0.06,0.38-0.16,0.54c-0.11,0.16-0.26,0.28-0.43,0.35c-0.18,0.07-0.37,0.09-0.55,0.05
		c-0.19-0.04-0.36-0.13-0.49-0.26c-0.13-0.13-0.23-0.31-0.26-0.49c-0.04-0.19-0.02-0.38,0.06-0.56c0.07-0.18,0.2-0.33,0.35-0.43
		c0.16-0.11,0.34-0.16,0.53-0.16c0.25,0,0.5,0.1,0.68,0.28C178.23,146.72,178.33,146.97,178.33,147.22L178.33,147.22z"/>
	<path class="st3" d="M200.62,105.77c0,0.26-0.1,0.5-0.28,0.68s-0.43,0.28-0.68,0.28s-0.5-0.1-0.68-0.28s-0.28-0.43-0.28-0.68
		s0.1-0.5,0.28-0.68s0.42-0.28,0.68-0.28s0.5,0.1,0.68,0.28C200.52,105.27,200.62,105.51,200.62,105.77L200.62,105.77z"/>
	<path class="st3" d="M192.05,19.01c0,0.18-0.07,0.35-0.2,0.48c-0.13,0.13-0.3,0.2-0.48,0.2s-0.35-0.07-0.48-0.2s-0.2-0.3-0.2-0.48
		s0.07-0.36,0.2-0.48c0.13-0.13,0.3-0.2,0.48-0.2s0.35,0.07,0.48,0.2C191.98,18.66,192.05,18.83,192.05,19.01L192.05,19.01z"/>
	<path class="st3" d="M160.37,31.98c0,0.18-0.07,0.35-0.2,0.47c-0.13,0.13-0.29,0.2-0.47,0.2c-0.18,0-0.35-0.07-0.48-0.19
		c-0.13-0.12-0.2-0.29-0.21-0.47c0-0.18,0.07-0.35,0.2-0.48c0.13-0.13,0.3-0.2,0.48-0.2s0.35,0.08,0.47,0.21
		C160.3,31.63,160.37,31.8,160.37,31.98L160.37,31.98z"/>
	<path class="st3" d="M142.06,46.1c0,0.17-0.05,0.34-0.14,0.49s-0.23,0.26-0.39,0.33c-0.16,0.07-0.34,0.09-0.51,0.05
		c-0.17-0.03-0.33-0.12-0.45-0.24s-0.21-0.28-0.24-0.45c-0.03-0.17-0.01-0.35,0.05-0.51c0.07-0.16,0.18-0.3,0.33-0.39
		c0.14-0.09,0.31-0.14,0.49-0.14c0.23,0,0.44,0.1,0.6,0.25C141.97,45.66,142.06,45.87,142.06,46.1L142.06,46.1z"/>
	<path class="st3" d="M133.46,42.21c0,0.17-0.05,0.34-0.15,0.48c-0.1,0.14-0.23,0.25-0.39,0.32s-0.33,0.08-0.5,0.05
		c-0.17-0.03-0.32-0.12-0.44-0.24c-0.12-0.12-0.2-0.28-0.24-0.45c-0.03-0.17-0.02-0.34,0.05-0.5s0.18-0.29,0.32-0.39
		c0.14-0.1,0.31-0.15,0.48-0.15c0.23,0,0.45,0.09,0.61,0.25C133.37,41.76,133.46,41.98,133.46,42.21z"/>
	<path class="st3" d="M95.72,28.41c0.02,0.12,0.01,0.25-0.03,0.37s-0.1,0.23-0.18,0.32s-0.18,0.17-0.29,0.22s-0.23,0.08-0.36,0.08
		s-0.25-0.03-0.36-0.08s-0.21-0.13-0.29-0.22s-0.14-0.2-0.18-0.32c-0.04-0.12-0.05-0.24-0.03-0.37c0.03-0.21,0.13-0.4,0.29-0.54
		c0.16-0.14,0.36-0.22,0.57-0.22s0.41,0.08,0.57,0.22C95.58,28.01,95.69,28.2,95.72,28.41L95.72,28.41z"/>
	<path class="st3" d="M64.3,16c0,0.11-0.02,0.23-0.06,0.33c-0.04,0.11-0.1,0.2-0.18,0.28s-0.17,0.15-0.28,0.19
		c-0.1,0.04-0.22,0.07-0.33,0.07c-0.12,0.02-0.25,0.01-0.37-0.03s-0.23-0.1-0.32-0.18s-0.17-0.18-0.22-0.3
		c-0.05-0.11-0.08-0.24-0.08-0.36c0-0.12,0.03-0.25,0.08-0.36c0.05-0.11,0.13-0.21,0.22-0.3c0.09-0.08,0.2-0.14,0.32-0.18
		s0.24-0.05,0.37-0.03c0.23,0,0.44,0.09,0.6,0.25C64.21,15.55,64.3,15.77,64.3,16z"/>
	<path class="st3" d="M69.16,17.71c0,0.17-0.05,0.34-0.14,0.49s-0.23,0.26-0.39,0.33c-0.16,0.07-0.34,0.09-0.5,0.05
		c-0.17-0.03-0.33-0.12-0.45-0.24c-0.12-0.12-0.21-0.28-0.24-0.45s-0.01-0.35,0.05-0.51c0.07-0.16,0.18-0.3,0.33-0.39
		s0.32-0.14,0.49-0.14c0.22,0,0.44,0.1,0.6,0.25C69.07,17.27,69.16,17.48,69.16,17.71z"/>
	<path class="st3" d="M100.47,99.91c0,0.17-0.05,0.34-0.15,0.48c-0.1,0.14-0.23,0.25-0.39,0.32c-0.16,0.07-0.33,0.08-0.5,0.05
		s-0.32-0.12-0.44-0.24c-0.12-0.12-0.2-0.28-0.23-0.45c-0.03-0.17-0.01-0.35,0.06-0.5c0.07-0.16,0.18-0.29,0.33-0.39
		c0.15-0.09,0.31-0.14,0.49-0.14c0.11,0,0.23,0.02,0.33,0.07c0.1,0.04,0.2,0.11,0.28,0.19s0.14,0.18,0.18,0.28
		C100.46,99.69,100.48,99.8,100.47,99.91L100.47,99.91z"/>
	<path class="st3" d="M113.53,115.88c-0.03,0.21-0.13,0.4-0.29,0.54s-0.36,0.22-0.57,0.22s-0.41-0.08-0.57-0.22
		c-0.16-0.14-0.26-0.33-0.29-0.54c-0.02-0.12-0.01-0.25,0.03-0.37s0.1-0.23,0.18-0.32s0.18-0.17,0.29-0.22s0.24-0.08,0.36-0.08
		s0.25,0.03,0.36,0.08s0.21,0.13,0.29,0.22c0.08,0.09,0.14,0.2,0.18,0.32C113.53,115.63,113.54,115.76,113.53,115.88L113.53,115.88z
		"/>
	<path class="st3" d="M125.28,105.26c0.02,0.12,0.01,0.25-0.03,0.37s-0.1,0.23-0.18,0.32s-0.18,0.17-0.29,0.22s-0.24,0.08-0.36,0.08
		s-0.25-0.03-0.36-0.08s-0.21-0.13-0.29-0.22c-0.08-0.09-0.14-0.2-0.18-0.32c-0.03-0.12-0.04-0.24-0.03-0.37
		c0.03-0.21,0.13-0.4,0.29-0.54s0.36-0.22,0.57-0.22s0.41,0.08,0.57,0.22C125.14,104.86,125.25,105.05,125.28,105.26L125.28,105.26z
		"/>
	<path class="st3" d="M138.43,127.79c0,0.23-0.09,0.45-0.25,0.61c-0.16,0.16-0.38,0.25-0.61,0.25c-0.21-0.03-0.4-0.13-0.54-0.29
		c-0.14-0.16-0.22-0.36-0.22-0.57s0.08-0.41,0.22-0.57c0.14-0.16,0.33-0.26,0.54-0.29c0.23,0,0.45,0.09,0.61,0.25
		C138.34,127.35,138.43,127.57,138.43,127.79L138.43,127.79z"/>
	<path class="st3" d="M176.43,93.97c0,0.23-0.09,0.44-0.25,0.6c-0.16,0.16-0.38,0.25-0.6,0.25c-0.12,0.02-0.25,0.01-0.37-0.03
		s-0.23-0.1-0.32-0.18c-0.09-0.08-0.17-0.18-0.22-0.3c-0.05-0.11-0.08-0.24-0.08-0.36s0.03-0.25,0.08-0.36s0.13-0.21,0.22-0.3
		c0.09-0.08,0.2-0.14,0.32-0.18c0.12-0.04,0.24-0.05,0.37-0.03c0.11,0,0.23,0.02,0.33,0.07c0.1,0.04,0.2,0.11,0.28,0.19
		s0.14,0.18,0.18,0.28C176.41,93.74,176.43,93.85,176.43,93.97L176.43,93.97z"/>
	<path class="st3" d="M191.51,156.64c0,0.17-0.04,0.34-0.14,0.49c-0.09,0.15-0.23,0.26-0.39,0.33s-0.33,0.09-0.5,0.06
		s-0.32-0.11-0.45-0.23s-0.21-0.28-0.24-0.45c-0.04-0.17-0.02-0.35,0.05-0.5c0.07-0.16,0.18-0.3,0.32-0.39
		c0.14-0.1,0.31-0.15,0.48-0.15c0.23,0,0.45,0.09,0.61,0.25C191.41,156.19,191.5,156.41,191.51,156.64z"/>
	<path class="st3" d="M253.93,159.46c0,0.17-0.05,0.34-0.15,0.48c-0.1,0.14-0.23,0.25-0.39,0.32s-0.34,0.08-0.5,0.05
		c-0.17-0.03-0.32-0.12-0.44-0.24c-0.12-0.12-0.2-0.28-0.23-0.45s-0.01-0.35,0.06-0.5c0.07-0.16,0.18-0.29,0.33-0.39
		c0.15-0.09,0.31-0.14,0.49-0.14c0.11,0,0.23,0.02,0.33,0.07c0.1,0.04,0.2,0.11,0.28,0.19s0.14,0.18,0.18,0.28
		C253.91,159.24,253.93,159.35,253.93,159.46L253.93,159.46z"/>
	<path class="st3" d="M263.62,144.18c0,0.17-0.05,0.34-0.14,0.49c-0.09,0.14-0.23,0.26-0.39,0.33s-0.33,0.09-0.5,0.05
		c-0.17-0.03-0.33-0.12-0.45-0.24c-0.12-0.12-0.2-0.28-0.24-0.45c-0.03-0.17-0.01-0.35,0.05-0.51c0.07-0.16,0.18-0.29,0.33-0.39
		c0.14-0.09,0.32-0.14,0.49-0.14c0.23,0,0.44,0.1,0.6,0.26S263.61,143.95,263.62,144.18L263.62,144.18z"/>
	<path class="st3" d="M220.59,157.82c0,0.17-0.05,0.34-0.15,0.48c-0.1,0.14-0.23,0.25-0.39,0.32s-0.33,0.08-0.5,0.05
		s-0.32-0.12-0.44-0.24c-0.12-0.12-0.2-0.28-0.24-0.45c-0.03-0.17-0.02-0.34,0.05-0.5s0.18-0.29,0.32-0.39
		c0.14-0.1,0.31-0.15,0.48-0.15c0.23,0,0.45,0.09,0.61,0.25C220.5,157.36,220.59,157.59,220.59,157.82L220.59,157.82z"/>
	<path class="st3" d="M342.28,167.34c0,0.17-0.05,0.34-0.14,0.49c-0.09,0.15-0.23,0.26-0.39,0.33s-0.33,0.09-0.5,0.06
		s-0.32-0.11-0.45-0.23c-0.12-0.12-0.21-0.28-0.24-0.45s-0.02-0.35,0.05-0.5c0.06-0.16,0.18-0.3,0.32-0.39
		c0.14-0.1,0.31-0.15,0.48-0.15c0.23,0,0.45,0.09,0.61,0.25C342.18,166.89,342.28,167.11,342.28,167.34L342.28,167.34z"/>
	<path class="st3" d="M360.51,169.67c-0.03,0.21-0.13,0.4-0.29,0.54s-0.36,0.22-0.57,0.22c-0.21,0-0.41-0.08-0.57-0.22
		s-0.26-0.33-0.29-0.54c-0.02-0.12-0.01-0.25,0.03-0.37s0.1-0.23,0.18-0.32c0.08-0.09,0.18-0.17,0.29-0.22
		c0.11-0.05,0.23-0.08,0.36-0.08c0.12,0,0.25,0.03,0.36,0.08s0.21,0.13,0.3,0.22c0.08,0.09,0.14,0.2,0.18,0.32
		C360.52,169.42,360.53,169.54,360.51,169.67L360.51,169.67z"/>
	<path class="st3" d="M375.65,167.34c0,0.17-0.05,0.34-0.14,0.49c-0.1,0.14-0.23,0.26-0.39,0.33s-0.33,0.09-0.51,0.05
		c-0.17-0.03-0.33-0.12-0.45-0.24c-0.12-0.12-0.21-0.28-0.24-0.45s-0.01-0.35,0.05-0.51c0.07-0.16,0.18-0.29,0.33-0.39
		c0.15-0.09,0.32-0.14,0.49-0.14c0.23,0,0.44,0.1,0.6,0.25C375.56,166.9,375.65,167.11,375.65,167.34z"/>
	<path class="st3" d="M404.9,159.46c0,0.17-0.05,0.34-0.15,0.48s-0.23,0.25-0.39,0.32s-0.33,0.08-0.5,0.05s-0.32-0.12-0.44-0.24
		c-0.12-0.12-0.2-0.28-0.24-0.45c-0.03-0.17-0.02-0.34,0.05-0.5c0.07-0.16,0.18-0.29,0.32-0.39s0.31-0.15,0.48-0.15
		c0.23,0,0.45,0.09,0.61,0.25C404.81,159.01,404.9,159.23,404.9,159.46z"/>
	<path class="st3" d="M284.25,150.58c0,0.17-0.05,0.34-0.15,0.48s-0.23,0.25-0.39,0.32s-0.33,0.08-0.5,0.05s-0.32-0.12-0.44-0.24
		s-0.2-0.28-0.23-0.45s-0.01-0.35,0.06-0.5c0.07-0.16,0.18-0.29,0.33-0.39c0.15-0.09,0.31-0.14,0.49-0.14c0.23,0,0.44,0.1,0.6,0.26
		C284.16,150.13,284.25,150.35,284.25,150.58L284.25,150.58z"/>
	<path class="st3" d="M305.89,135.16c0,0.23-0.09,0.45-0.26,0.61c-0.16,0.16-0.38,0.25-0.61,0.25c-0.21-0.03-0.4-0.13-0.54-0.29
		c-0.14-0.16-0.21-0.36-0.21-0.57s0.08-0.41,0.21-0.57c0.14-0.16,0.33-0.26,0.54-0.29c0.23,0,0.45,0.09,0.61,0.25
		C305.79,134.71,305.88,134.93,305.89,135.16L305.89,135.16z"/>
	<path class="st3" d="M340.44,88.73c0,0.23-0.1,0.45-0.26,0.61s-0.38,0.25-0.61,0.25c-0.21-0.03-0.4-0.13-0.54-0.29
		s-0.21-0.36-0.21-0.57s0.08-0.41,0.21-0.57c0.14-0.16,0.33-0.26,0.54-0.29c0.23,0,0.45,0.09,0.61,0.25S340.44,88.5,340.44,88.73
		L340.44,88.73z"/>
	<path class="st3" d="M420.67,70.98c0.02,0.12,0.01,0.25-0.03,0.37s-0.1,0.23-0.18,0.32s-0.18,0.17-0.29,0.22
		c-0.11,0.05-0.24,0.08-0.36,0.08s-0.25-0.03-0.36-0.08s-0.21-0.13-0.29-0.22c-0.08-0.09-0.14-0.2-0.18-0.32
		c-0.04-0.12-0.05-0.24-0.03-0.37c0.03-0.21,0.13-0.4,0.29-0.54s0.36-0.21,0.57-0.21s0.41,0.08,0.57,0.21
		C420.54,70.58,420.64,70.77,420.67,70.98L420.67,70.98z"/>
	<path class="st3" d="M235.45,43.6c0,0.17-0.05,0.34-0.14,0.49s-0.23,0.26-0.39,0.33c-0.16,0.07-0.34,0.09-0.51,0.05
		c-0.17-0.03-0.33-0.12-0.45-0.24c-0.12-0.12-0.21-0.28-0.24-0.45c-0.03-0.17-0.02-0.35,0.05-0.51s0.18-0.3,0.33-0.39
		c0.14-0.09,0.32-0.14,0.49-0.14c0.23,0,0.44,0.1,0.6,0.25C235.36,43.16,235.45,43.37,235.45,43.6L235.45,43.6z"/>
	<path class="st3" d="M149.87,64.07c0,0.17-0.05,0.34-0.14,0.49s-0.23,0.26-0.39,0.33s-0.33,0.09-0.51,0.05
		c-0.17-0.03-0.33-0.12-0.45-0.24c-0.12-0.12-0.21-0.28-0.24-0.45s-0.01-0.35,0.05-0.51c0.07-0.16,0.18-0.3,0.33-0.39
		c0.15-0.09,0.32-0.14,0.49-0.14c0.23,0,0.44,0.1,0.6,0.25C149.78,63.63,149.87,63.84,149.87,64.07z"/>
	<path class="st3" d="M153.75,50.59c0,0.17-0.05,0.34-0.15,0.48c-0.1,0.14-0.23,0.25-0.39,0.32s-0.33,0.08-0.5,0.05
		c-0.17-0.03-0.32-0.12-0.45-0.24c-0.12-0.12-0.2-0.28-0.24-0.45c-0.03-0.17-0.02-0.34,0.05-0.5s0.18-0.29,0.32-0.39
		c0.14-0.1,0.31-0.15,0.48-0.15c0.23,0,0.45,0.09,0.61,0.25C153.66,50.13,153.75,50.36,153.75,50.59z"/>
	<path class="st3" d="M165.58,51.3c0,0.11-0.02,0.22-0.06,0.33c-0.04,0.1-0.1,0.2-0.18,0.28c-0.08,0.08-0.18,0.14-0.28,0.18
		s-0.22,0.06-0.33,0.06s-0.23-0.02-0.33-0.06s-0.2-0.1-0.28-0.18s-0.15-0.17-0.19-0.28c-0.04-0.1-0.07-0.22-0.07-0.33
		c0-0.23,0.09-0.45,0.25-0.62c0.16-0.16,0.38-0.25,0.61-0.25c0.11,0,0.23,0.02,0.33,0.07c0.1,0.04,0.2,0.11,0.28,0.19
		c0.08,0.08,0.14,0.18,0.18,0.28C165.56,51.07,165.58,51.19,165.58,51.3L165.58,51.3z"/>
	<path class="st3" d="M346.93,59.53c0,0.11-0.02,0.23-0.06,0.33c-0.04,0.11-0.11,0.2-0.18,0.28c-0.08,0.08-0.17,0.15-0.28,0.19
		c-0.1,0.04-0.22,0.07-0.33,0.07c-0.23,0-0.45-0.09-0.61-0.25c-0.16-0.16-0.26-0.38-0.26-0.61c0-0.11,0.02-0.23,0.07-0.33
		c0.04-0.1,0.11-0.2,0.19-0.28c0.08-0.08,0.18-0.14,0.28-0.18c0.11-0.04,0.22-0.06,0.33-0.06s0.23,0.02,0.33,0.06
		c0.1,0.04,0.2,0.11,0.28,0.18c0.08,0.08,0.14,0.17,0.18,0.28C346.91,59.31,346.93,59.42,346.93,59.53z"/>
	<path class="st3" d="M346.93,22.44c0,0.23-0.09,0.44-0.25,0.6s-0.38,0.25-0.6,0.25c-0.12,0.02-0.25,0.01-0.37-0.03
		s-0.23-0.1-0.32-0.18s-0.17-0.18-0.22-0.3c-0.05-0.11-0.08-0.24-0.08-0.36s0.03-0.25,0.08-0.36s0.13-0.21,0.22-0.3
		c0.09-0.08,0.2-0.14,0.32-0.18s0.24-0.05,0.37-0.03c0.11,0,0.23,0.02,0.33,0.07c0.11,0.04,0.2,0.11,0.28,0.19s0.14,0.18,0.18,0.28
		C346.91,22.22,346.93,22.33,346.93,22.44L346.93,22.44z"/>
	<path class="st3" d="M558.87,96.22c0,0.11-0.02,0.22-0.06,0.33s-0.11,0.2-0.18,0.28c-0.08,0.08-0.17,0.14-0.28,0.18
		c-0.1,0.04-0.22,0.06-0.33,0.06c-0.11,0-0.23-0.02-0.33-0.06c-0.11-0.04-0.2-0.1-0.28-0.18s-0.14-0.17-0.19-0.28
		c-0.04-0.1-0.07-0.22-0.07-0.33c0-0.23,0.09-0.45,0.25-0.62c0.16-0.16,0.38-0.25,0.61-0.25c0.11,0,0.22,0.02,0.33,0.07
		c0.1,0.04,0.2,0.11,0.28,0.19s0.14,0.18,0.18,0.28C558.85,95.99,558.87,96.1,558.87,96.22L558.87,96.22z"/>
	<path class="st3" d="M485.89,48.32c0.02,0.12,0.01,0.25-0.03,0.37s-0.1,0.23-0.18,0.32s-0.18,0.17-0.3,0.22
		c-0.11,0.05-0.23,0.08-0.36,0.08c-0.12,0-0.25-0.03-0.36-0.08c-0.11-0.05-0.21-0.13-0.29-0.22c-0.08-0.09-0.14-0.2-0.18-0.32
		c-0.04-0.12-0.05-0.24-0.03-0.37c0.03-0.21,0.13-0.4,0.29-0.54s0.36-0.22,0.57-0.22c0.21,0,0.41,0.08,0.57,0.22
		C485.76,47.92,485.86,48.11,485.89,48.32L485.89,48.32z"/>
</g>
</svg>
