<?xml version="1.0" encoding="utf-8"?>
<!-- Generator: Adobe Illustrator 24.1.2, SVG Export Plug-In . SVG Version: 6.00 Build 0)  -->
<svg version="1.1" id="Layer_1" xmlns="http://www.w3.org/2000/svg" xmlns:xlink="http://www.w3.org/1999/xlink" x="0px" y="0px"
	 viewBox="0 0 377.52 277.91" style="enable-background:new 0 0 377.52 277.91;" xml:space="preserve">
<style type="text/css">
	.st0{display:none;}
	.st1{display:none;fill:url(#SVGID_1_);}
	.st2{opacity:0.3;}
	.st3{opacity:0.3;fill:#4A95D1;enable-background:new    ;}
	.st4{fill:#4A95D1;}
</style>
<rect x="-102.37" class="st0" width="479.89" height="422.03"/>
<radialGradient id="SVGID_1_" cx="-100.9403" cy="841.5005" r="0.5028" gradientTransform="matrix(-417.564 0 0 419.668 -42011.4609 -352939.8438)" gradientUnits="userSpaceOnUse">
	<stop  offset="0" style="stop-color:#2FBCAF"/>
	<stop  offset="0.03" style="stop-color:#06B9A8"/>
	<stop  offset="0.22" style="stop-color:#008376"/>
	<stop  offset="0.41" style="stop-color:#01544C"/>
	<stop  offset="0.58" style="stop-color:#012F2B"/>
	<stop  offset="0.74" style="stop-color:#051716"/>
	<stop  offset="0.89" style="stop-color:#050909"/>
	<stop  offset="1" style="stop-color:#000000"/>
</radialGradient>
<path class="st1" d="M-10.89,61.8c-81.99,82.41-81.99,216.01,0,298.42c81.99,82.41,214.93,82.41,296.92,0
	c81.99-82.41,81.99-216.01,0-298.42C204.04-20.6,71.11-20.6-10.89,61.8z"/>
<g>
	<g class="st2">
		<path class="st3" d="M334.4,175.52c-16.01,1.24-33.23,2.61-52.07,4.11v0.79c36.3-2.96,66.82-5.38,94.26-7.49v-0.66
			C363.33,173.29,349.35,174.35,334.4,175.52z"/>
		<path class="st3" d="M376.56,173.83c0.39,0,0.71-0.61,0.71-1.27c0-0.67-0.32-1.19-0.71-1.16c-0.39,0.03-0.72,0.6-0.72,1.27
			C375.85,173.35,376.16,173.86,376.56,173.83z"/>
		<path class="st3" d="M282.39,181.53c-0.59,0-1.02-0.59-1.02-1.42c0-0.83,0.48-1.54,1.02-1.58c0.54-0.04,1.07,0.59,1.07,1.42
			S282.99,181.45,282.39,181.53z"/>
		<path class="st3" d="M359.59,173.74l-13.37,18.08l-134.75,15.81l-20.68,21.91L60.3,249.14v1.15l130.77-19.85l20.65-21.94
			l134.64-16l13.47-18.24L359.59,173.74z"/>
		<path class="st3" d="M60.41,251.86c-0.27,0.06-0.55,0.06-0.82-0.01c-0.27-0.06-0.52-0.19-0.74-0.36c-0.22-0.18-0.39-0.4-0.51-0.65
			c-0.12-0.25-0.18-0.53-0.18-0.81c0.03-0.61,0.27-1.2,0.68-1.66c0.41-0.46,0.96-0.76,1.57-0.85c0.27-0.06,0.55-0.06,0.82,0.01
			c0.27,0.06,0.52,0.19,0.74,0.37c0.21,0.18,0.39,0.4,0.51,0.65c0.12,0.25,0.18,0.53,0.18,0.81c-0.03,0.61-0.27,1.2-0.68,1.65
			C61.56,251.46,61.01,251.76,60.41,251.86L60.41,251.86z"/>
		<path class="st3" d="M87.54,277.91l0.59-0.11l38.82-37.78l-0.6-0.74l-38.6,37.48l-5.88,1.15H87.54z"/>
		<path class="st3" d="M330.49,35.04c-17.85-4.17-37.16-8.66-57.94-13.45v0.81c39.95,9.17,74.65,17.21,104.1,24.13v-0.65
			C362.41,42.51,347.02,38.9,330.49,35.04z"/>
		<path class="st3" d="M376.62,47.42c0.39,0.09,0.71-0.38,0.71-1.03c0-0.65-0.32-1.29-0.71-1.39c-0.39-0.09-0.72,0.38-0.72,1.03
			C375.91,46.68,376.22,47.33,376.62,47.42z"/>
		<path class="st3" d="M272.6,23.54c-0.35-0.14-0.64-0.39-0.84-0.72c-0.2-0.32-0.3-0.7-0.27-1.07c0-0.85,0.5-1.42,1.11-1.27
			c0.35,0.14,0.65,0.39,0.85,0.71c0.2,0.32,0.29,0.7,0.27,1.08C273.72,23.12,273.23,23.69,272.6,23.54z"/>
		<path class="st3" d="M58.23,74.34v1.16c37.71,3.41,72.81,6.57,103.65,9.34c9.94,10.2,19.67,19.53,29.65,29.04
			c5.32,5.14,10.73,10.28,15.95,15.42l0.1,0.09h0.12c33.32,2.21,63.26,2.42,89.22,2.59c15.92,0.1,31.33,0.21,45.59,0.76h0.07
			l0.06-0.06c2.64-2.75,5.18-5.87,7.62-8.85c2.43-2.98,4.83-5.91,7.29-8.47c6.65,0.39,12.74,0.76,19.03,1.09v-0.65
			c-6.3-0.35-12.41-0.72-19.08-1.13h-0.06h-0.05c-2.51,2.59-4.97,5.6-7.37,8.55c-2.4,2.95-4.94,6.03-7.56,8.76
			c-14.25-0.56-29.65-0.7-45.53-0.83c-25.93-0.22-55.82-0.46-89.07-2.71c-5.19-5.14-10.56-10.28-15.84-15.28
			c-10-9.58-19.76-18.92-29.65-29.16l-0.12-0.13h-0.16C131.16,81.04,96,77.83,58.23,74.34z"/>
		<path class="st3" d="M376.56,117.31c0.39,0,0.71-0.5,0.71-1.18s-0.32-1.23-0.71-1.25c-0.39-0.02-0.71,0.5-0.71,1.17
			C375.86,116.71,376.17,117.29,376.56,117.31z"/>
		<path class="st3" d="M58.34,77.11c-0.6-0.05-1.16-0.32-1.58-0.76c-0.42-0.44-0.66-1.02-0.68-1.62c0-0.28,0.06-0.56,0.18-0.82
			c0.12-0.26,0.29-0.49,0.5-0.67c0.21-0.19,0.47-0.32,0.74-0.4c0.27-0.08,0.56-0.1,0.84-0.06c0.6,0.05,1.16,0.32,1.57,0.76
			c0.41,0.44,0.66,1.01,0.68,1.61c-0.01,0.28-0.08,0.56-0.2,0.81c-0.12,0.25-0.29,0.48-0.5,0.67c-0.21,0.18-0.46,0.32-0.72,0.41
			C58.9,77.1,58.62,77.13,58.34,77.11z"/>
		<path class="st3" d="M188.74,79.63l-0.5,0.7l10.06,10.14l31.85,2.73l23.45,24.87l97.89,4.17v-0.69l-97.67-4.32l-23.43-24.9
			l-31.82-2.79L188.74,79.63z"/>
		<path class="st3" d="M187.62,81.36c-0.32-0.33-0.52-0.76-0.57-1.22c-0.05-0.46,0.05-0.92,0.3-1.31c0.12-0.17,0.27-0.31,0.45-0.41
			c0.18-0.1,0.38-0.16,0.59-0.17c0.21-0.01,0.41,0.03,0.6,0.11s0.36,0.21,0.49,0.37c0.32,0.33,0.52,0.75,0.57,1.21
			c0.05,0.46-0.05,0.92-0.29,1.31c-0.12,0.17-0.27,0.31-0.45,0.41c-0.18,0.1-0.38,0.16-0.59,0.17c-0.21,0.01-0.41-0.03-0.6-0.11
			C187.92,81.64,187.76,81.52,187.62,81.36L187.62,81.36z"/>
		<path class="st3" d="M217.71,59.17l-43.31-6.25l-18.04,13.37l-43.2-5.13v1.07l43.51,5.1l18.02-13.39l42.78,6.09l18.88,20.69
			l26.54,2.91l8.65-8.01l77.73,9.89v-0.7l-77.94-10.03l-8.65,8l-26.1-2.9L217.71,59.17z"/>
		<path class="st3" d="M113.25,63.73c-0.53-0.08-1.02-0.35-1.38-0.76c-0.35-0.41-0.55-0.93-0.56-1.48c-0.01-0.25,0.03-0.5,0.13-0.73
			c0.1-0.23,0.24-0.44,0.42-0.61c0.18-0.17,0.4-0.3,0.64-0.37c0.24-0.07,0.49-0.1,0.74-0.06c0.53,0.08,1.02,0.35,1.37,0.76
			c0.35,0.41,0.55,0.93,0.55,1.47c0.01,0.25-0.03,0.5-0.13,0.73c-0.09,0.23-0.24,0.44-0.42,0.61c-0.18,0.17-0.4,0.3-0.64,0.38
			C113.75,63.73,113.5,63.76,113.25,63.73L113.25,63.73z"/>
		<path class="st3" d="M331.54,98.38c-9.58-0.89-19.68-1.61-30.18-1.77h-0.07l-0.06,0.05c-1.01,0.95-1.94,1.98-2.78,3.08
			c-1.89,2.34-3.7,4.57-6.21,3.87c-2.74-0.22-5.38-0.3-7.98-0.39c-4.26-0.07-8.5-0.36-12.73-0.87v0.81c4.24,0.5,8.5,0.79,12.77,0.86
			c2.59,0.08,5.25,0.16,7.91,0.36c2.73,0.76,4.62-1.58,6.61-4.05c0.81-1.05,1.7-2.04,2.66-2.95c17.38,0.24,33.64,2.06,48.33,3.6
			c9.2,1.03,18.23,1.97,26.87,2.52v-0.65c-8.63-0.55-17.7-1.55-26.85-2.56C343.95,99.64,337.85,98.97,331.54,98.38z"/>
		<path class="st3" d="M376.62,104.37c0.4,0,0.71-0.48,0.71-1.15c0-0.67-0.32-1.25-0.71-1.28c-0.39-0.03-0.72,0.48-0.71,1.16
			C375.93,103.77,376.23,104.37,376.62,104.37z"/>
		<path class="st3" d="M271.55,104.26c-0.35-0.1-0.65-0.32-0.85-0.62c-0.2-0.3-0.29-0.67-0.24-1.03c0-0.84,0.53-1.48,1.16-1.41
			c0.35,0.1,0.65,0.32,0.84,0.63c0.2,0.3,0.28,0.67,0.24,1.03C272.68,103.69,272.16,104.37,271.55,104.26z"/>
		<path class="st3" d="M367.6,132.49h-0.08l-0.06,0.09c-2.2,3.47-4.66,6.76-7.35,9.86c-0.76,0.92-1.51,1.83-2.25,2.75l-79.61,0.84
			v0.81l79.67-1.03h0.07l0.06-0.06c0.75-0.94,1.52-1.87,2.29-2.82c2.69-3.09,5.14-6.37,7.34-9.82c2.85,0.05,6.03,0.1,8.93,0.35
			v-0.65C373.7,132.61,370.48,132.55,367.6,132.49z"/>
		<path class="st3" d="M376.56,134.41c0.4,0,0.72-0.5,0.73-1.17c0.01-0.67-0.3-1.23-0.69-1.26c-0.39-0.03-0.72,0.5-0.73,1.17
			C375.87,133.81,376.17,134.39,376.56,134.41z"/>
		<path class="st3" d="M278.31,147.95c-0.6,0-1.09-0.67-1.09-1.5s0.49-1.52,1.09-1.53c0.6-0.01,1.09,0.67,1.09,1.5
			C279.4,147.25,278.9,147.94,278.31,147.95z"/>
		<path class="st3" d="M183.85,132.82l-122.92-1.6v1.15l122.63,1.4l33.01,30.06l141.59-5.81l12.43,15.27l0.24-0.53l-12.54-15.42
			l-141.47,5.57L183.85,132.82z"/>
		<path class="st3" d="M61.04,133.95c-0.58,0.01-1.15-0.22-1.57-0.63c-0.42-0.41-0.66-0.97-0.67-1.56c0-0.29,0.07-0.57,0.18-0.84
			c0.12-0.26,0.28-0.5,0.49-0.7c0.21-0.2,0.45-0.35,0.72-0.46c0.27-0.1,0.56-0.15,0.84-0.14c0.58,0,1.14,0.23,1.56,0.64
			c0.42,0.41,0.66,0.97,0.67,1.55c0,0.29-0.07,0.57-0.18,0.84c-0.11,0.26-0.28,0.5-0.49,0.7c-0.21,0.2-0.45,0.35-0.72,0.46
			C61.62,133.91,61.33,133.96,61.04,133.95z"/>
		<path class="st3" d="M113.2,170.78L2.48,175.76v1.24l110.37-5.15l29.34,22.23l108.44-9.05l18.06,16.77l0.37-0.7l-18.2-16.94
			l-108.35,8.87L113.2,170.78z"/>
		<path class="st3" d="M2.62,178.71c-0.32,0.04-0.64,0.01-0.95-0.09c-0.31-0.09-0.59-0.25-0.84-0.46c-0.25-0.21-0.45-0.46-0.59-0.75
			c-0.14-0.29-0.23-0.6-0.24-0.93c0.04-0.67,0.34-1.29,0.83-1.75c0.49-0.46,1.13-0.71,1.79-0.71c0.32-0.04,0.64-0.01,0.95,0.09
			c0.31,0.09,0.59,0.25,0.83,0.46c0.24,0.21,0.44,0.46,0.59,0.75c0.14,0.29,0.22,0.6,0.24,0.92c-0.05,0.66-0.34,1.29-0.82,1.74
			C3.92,178.45,3.28,178.71,2.62,178.71L2.62,178.71z"/>
		<path class="st3" d="M106.21,205.94l-80.99,7.82v1.21l80.64-7.91l27.31,19.05l70.6-9.29v-0.93l-70.28,9.14L106.21,205.94z"/>
		<path class="st3" d="M25.32,216.63c-0.3,0.05-0.61,0.04-0.9-0.04c-0.29-0.08-0.57-0.22-0.8-0.42c-0.23-0.19-0.43-0.44-0.56-0.72
			c-0.13-0.28-0.2-0.58-0.21-0.88c0.04-0.65,0.32-1.26,0.77-1.71c0.45-0.46,1.06-0.74,1.7-0.78c0.3-0.05,0.6-0.03,0.9,0.05
			c0.29,0.08,0.56,0.22,0.8,0.42c0.23,0.19,0.42,0.44,0.55,0.71c0.13,0.27,0.2,0.57,0.21,0.88c-0.04,0.64-0.32,1.25-0.77,1.71
			C26.55,216.3,25.96,216.58,25.32,216.63L25.32,216.63z"/>
		<path class="st3" d="M127.62,102.61l-59.18-3.43v1.14l58.85,3.32l33.64,29.55l0.53-0.78L127.62,102.61z"/>
		<path class="st3" d="M68.55,101.89c-0.58-0.03-1.13-0.28-1.54-0.7s-0.64-0.98-0.66-1.56c0-0.28,0.06-0.56,0.17-0.82
			c0.11-0.26,0.28-0.49,0.48-0.69c0.21-0.19,0.45-0.34,0.72-0.43c0.27-0.09,0.55-0.13,0.83-0.11c0.58,0.03,1.13,0.29,1.54,0.71
			c0.41,0.42,0.64,0.98,0.65,1.56c0,0.28-0.06,0.56-0.17,0.82c-0.11,0.26-0.28,0.49-0.48,0.68c-0.21,0.19-0.45,0.34-0.71,0.43
			C69.11,101.87,68.83,101.91,68.55,101.89L68.55,101.89z"/>
		<path class="st3" d="M375.71,59.22c-18.28-3.66-37.13-7.43-58.52-11.4v0.74c21.39,3.94,40.23,7.68,58.51,11.3
			c0.43,0.21,0.78,0.54,1.02,0.95l0.21-0.49C376.65,59.84,376.23,59.46,375.71,59.22L375.71,59.22z"/>
		<path class="st3" d="M376.34,61.39c0.31,0.49,0.75,0.5,1.02,0c0.12-0.28,0.17-0.58,0.16-0.88c-0.02-0.3-0.1-0.59-0.25-0.86
			c-0.31-0.49-0.75-0.5-1.02,0c-0.12,0.28-0.17,0.58-0.16,0.88C376.11,60.84,376.19,61.13,376.34,61.39L376.34,61.39z"/>
		<path class="st3" d="M317.26,49.62c-0.3-0.13-0.56-0.35-0.73-0.64c-0.17-0.28-0.24-0.62-0.21-0.95c0-0.77,0.42-1.32,0.93-1.21
			c0.3,0.13,0.55,0.35,0.72,0.63c0.17,0.28,0.24,0.61,0.21,0.94C318.18,49.16,317.76,49.71,317.26,49.62z"/>
		<path class="st3" d="M377.29,80.06c-11-1.45-22.24-3.08-34.38-5.14v0.68c12.14,1.98,23.38,3.64,34.39,5.07L377.29,80.06z"/>
		<path class="st3" d="M342.95,73.96c-0.46-0.07-0.83,0.46-0.83,1.19c0,0.73,0.37,1.38,0.83,1.45c0.46,0.07,0.83-0.47,0.83-1.2
			C343.78,74.67,343.41,74.03,342.95,73.96z"/>
		<path class="st3" d="M163.43,148.94l-66.49,0.89v1.09l66.19-1l45.01,38.46l0.46-0.77L163.43,148.94z"/>
		<path class="st3" d="M97.04,152.43c-0.54,0-1.06-0.22-1.45-0.6s-0.6-0.91-0.6-1.45c0-0.54,0.22-1.07,0.6-1.45
			c0.38-0.39,0.9-0.6,1.45-0.6c0.54,0,1.06,0.22,1.45,0.6c0.38,0.38,0.6,0.91,0.6,1.45c0,0.55-0.22,1.07-0.6,1.45
			S97.58,152.43,97.04,152.43z"/>
	</g>
	<path class="st4" d="M269.39,96.88v0.82c26.16,2.26,50.2,4.27,71.29,6.03c1.67,2.33,3.19,4.77,4.53,7.31
		c1.9,3.39,3.68,6.58,5.91,8.68v0.05h0.07c7.6-0.75,14.57-0.13,21.71,0.5c1.22,0.1,2.42,0.22,3.64,0.31v-0.65l-3.64-0.32
		c-7.16-0.64-14.09-1.26-21.7-0.53c-2.13-2.05-3.88-5.14-5.74-8.49c-1.37-2.59-2.92-5.09-4.63-7.47l-0.06-0.07h-0.07
		C319.65,101.24,295.58,99.23,269.39,96.88z"/>
	<path class="st4" d="M376.55,121.47c0.39,0,0.72-0.48,0.72-1.16c0-0.68-0.3-1.24-0.7-1.27c-0.4-0.03-0.72,0.48-0.72,1.16
		C375.86,120.87,376.16,121.44,376.55,121.47z"/>
	<path class="st4" d="M269.44,98.83c-0.35-0.09-0.66-0.31-0.87-0.61c-0.21-0.3-0.3-0.66-0.27-1.03c0-0.85,0.51-1.5,1.13-1.45
		c0.35,0.1,0.66,0.31,0.87,0.61c0.21,0.3,0.3,0.67,0.27,1.03C270.58,98.2,270.07,98.88,269.44,98.83z"/>
	<path class="st4" d="M217.09,61.72l-62.48-8.71v1l62.17,8.58l11.13,15.26l82.13,9.29l9.16,14.57l0.35-0.49l-9.29-14.81l-82.06-9.41
		L217.09,61.72z"/>
	<path class="st4" d="M154.7,55.4c-0.48-0.1-0.92-0.37-1.23-0.76c-0.31-0.39-0.48-0.87-0.47-1.37c-0.02-0.23,0.01-0.45,0.09-0.66
		c0.08-0.21,0.21-0.4,0.37-0.56c0.16-0.16,0.36-0.28,0.57-0.35c0.21-0.07,0.44-0.1,0.66-0.07c0.48,0.1,0.92,0.37,1.23,0.75
		c0.31,0.39,0.48,0.87,0.47,1.36c0.02,0.23-0.01,0.45-0.09,0.67c-0.08,0.21-0.21,0.4-0.37,0.56c-0.16,0.16-0.36,0.28-0.57,0.35
		C155.15,55.4,154.92,55.43,154.7,55.4L154.7,55.4z"/>
	<path class="st4" d="M166.49,33.51l-84.3-14.65v1.11l83.94,14.46l18.04,23.54l0.58-0.6L166.49,33.51z"/>
	<path class="st4" d="M82.29,21.53c-0.58-0.11-1.1-0.41-1.48-0.86c-0.38-0.45-0.6-1.01-0.62-1.6c-0.01-0.26,0.04-0.53,0.15-0.77
		c0.11-0.24,0.27-0.45,0.47-0.62c0.2-0.17,0.44-0.29,0.7-0.35c0.26-0.06,0.52-0.06,0.78,0c0.58,0.11,1.1,0.42,1.48,0.86
		c0.38,0.45,0.6,1.01,0.62,1.6c0.01,0.26-0.04,0.53-0.15,0.77c-0.11,0.24-0.27,0.45-0.47,0.62c-0.2,0.17-0.44,0.29-0.7,0.35
		C82.82,21.59,82.55,21.59,82.29,21.53L82.29,21.53z"/>
	<path class="st4" d="M347.36,191.87h-0.09l-0.06,0.11c-2.56,4.39-5.23,8.99-7.89,14.27c-23.27,3.44-47.62,7.05-75.84,11.54v0.83
		c28.26-4.55,52.64-8.22,75.94-11.68h0.1l0.07-0.13c2.65-5.27,5.31-9.87,7.86-14.26c10.37-1.23,19.72-2.35,29.19-3.24v-0.67
		C367.15,189.53,357.77,190.64,347.36,191.87z"/>
	<path class="st4" d="M376.6,190.21c0.4,0,0.72-0.62,0.72-1.3c0-0.68-0.32-1.18-0.71-1.14c-0.39,0.04-0.72,0.63-0.72,1.3
		S376.21,190.26,376.6,190.21z"/>
	<path class="st4" d="M263.56,219.78c-0.64,0.1-1.17-0.51-1.17-1.38c-0.03-0.38,0.07-0.76,0.28-1.07c0.21-0.32,0.52-0.55,0.89-0.66
		c0.64-0.1,1.16,0.52,1.16,1.38c0.03,0.38-0.07,0.76-0.28,1.07C264.23,219.43,263.92,219.66,263.56,219.78L263.56,219.78z"/>
	<path class="st4" d="M307.72,135.11l-81.11-0.95l-0.09,0.09c-4.19,4-7.91,9.04-11.55,14c-4.47,6.07-9.2,12.47-15.01,17.23
		c-14.31,0.62-29.97,1.27-46.24,1.65v1.03c16.36-0.39,31.96-1.09,46.36-1.73h0.09l0.09-0.08c5.95-4.85,10.71-11.3,15.23-17.47
		c3.59-4.88,7.25-9.87,11.34-13.8l80.71,0.77c1.68,1.87,3.17,3.91,4.43,6.09c2.53,4.02,5.11,8.13,8.7,8.06
		c12.27,0.17,24.16-0.15,35.06-0.45c7.06-0.19,14.11-0.39,20.83-0.43v-0.66c-6.72,0-13.77,0.23-20.84,0.41
		c-10.89,0.28-22.75,0.59-35.05,0.39c-3.37,0.06-5.77-3.75-8.33-7.83c-1.3-2.25-2.83-4.35-4.57-6.27L307.72,135.11z"/>
	<path class="st4" d="M376.55,150.03c0.39,0,0.71-0.56,0.71-1.23c0-0.67-0.32-1.21-0.72-1.21c-0.4,0-0.71,0.56-0.71,1.24
		C375.84,149.5,376.15,150.04,376.55,150.03z"/>
	<path class="st4" d="M153.79,169.5c-0.23-0.01-0.46-0.06-0.67-0.15c-0.21-0.1-0.4-0.23-0.56-0.4c-0.16-0.17-0.28-0.37-0.35-0.59
		c-0.08-0.22-0.11-0.45-0.1-0.68c-0.02-0.48,0.15-0.96,0.47-1.32c0.32-0.36,0.76-0.59,1.24-0.63c0.23,0,0.46,0.05,0.67,0.15
		c0.21,0.1,0.4,0.23,0.56,0.4c0.16,0.17,0.28,0.37,0.36,0.59c0.08,0.22,0.11,0.45,0.1,0.68c0.01,0.48-0.16,0.96-0.48,1.32
		C154.71,169.23,154.27,169.46,153.79,169.5z"/>
	<path class="st4" d="M313.69,143.71l-61.99,0.41l-13.44,17.76l-17.49,0.69l-5.07,6.51l0.51,0.61l4.86-6.23l17.46-0.71l13.43-17.78
		l61.72-0.5V143.71z"/>
	<path class="st4" d="M216.99,170.46c-0.1,0.16-0.24,0.3-0.41,0.39c-0.16,0.1-0.35,0.15-0.54,0.16c-0.19,0.01-0.38-0.03-0.55-0.1
		c-0.17-0.08-0.33-0.2-0.44-0.35c-0.26-0.34-0.41-0.77-0.41-1.2s0.14-0.86,0.41-1.2c0.1-0.16,0.24-0.29,0.41-0.38
		c0.16-0.09,0.35-0.15,0.54-0.16c0.19-0.01,0.38,0.03,0.55,0.1c0.17,0.08,0.32,0.2,0.44,0.34c0.26,0.34,0.41,0.76,0.41,1.2
		C217.39,169.7,217.25,170.12,216.99,170.46L216.99,170.46z"/>
	<path class="st4" d="M257.31,170.54l-15.53,0.88l-10.57,14.24l-22.69,1.86l-9.18-10.43l-20.69,1.3v0.97l20.36-1.31l9.2,10.42
		l23.28-1.94l10.56-14.26l15-0.87l5.16,6.56l49.96-3.59v-0.75l-49.7,3.48L257.31,170.54z"/>
	<path class="st4" d="M178.69,180.68c-0.22,0-0.43-0.05-0.63-0.13c-0.2-0.09-0.38-0.22-0.53-0.38c-0.15-0.16-0.26-0.35-0.33-0.56
		c-0.07-0.21-0.1-0.43-0.08-0.64c-0.02-0.46,0.13-0.91,0.42-1.26c0.29-0.35,0.7-0.58,1.16-0.65c0.22,0,0.43,0.05,0.63,0.14
		c0.2,0.09,0.38,0.22,0.52,0.38c0.15,0.16,0.26,0.35,0.33,0.56c0.07,0.21,0.1,0.43,0.08,0.64c0.02,0.46-0.13,0.91-0.41,1.26
		C179.56,180.39,179.15,180.62,178.69,180.68z"/>
	<path class="st4" d="M271.02,155.56c-1.36,0-2.71,0.14-4.09,0.26c-1.38,0.11-2.67,0.22-4.09,0.27v0.83
		c1.41-0.06,2.78-0.16,4.09-0.28c2.9-0.35,5.83-0.37,8.73-0.05c1.02,0.33,1.71,1.61,2.43,2.98c0.73,1.37,1.5,2.88,2.76,3.26h0.09
		c22.34-0.54,43.12-1.56,61.58-2.46c11.79-0.59,23.34-1.15,34.13-1.53v-0.65c-10.79,0.37-22.34,0.91-34.14,1.47
		c-18.41,0.87-39.2,1.86-61.52,2.36c-1.02-0.34-1.7-1.6-2.4-2.95c-0.71-1.35-1.52-2.89-2.8-3.3
		C274.2,155.57,272.61,155.49,271.02,155.56L271.02,155.56z"/>
	<path class="st4" d="M376.61,159.75c0.39,0,0.71-0.58,0.71-1.25c0-0.68-0.32-1.2-0.71-1.18c-0.39,0.02-0.72,0.58-0.71,1.24
		C375.92,159.23,376.22,159.77,376.61,159.75z"/>
	<path class="st4" d="M262.93,158.02c-0.64,0-1.18-0.64-1.19-1.5c-0.04-0.37,0.05-0.73,0.27-1.03c0.21-0.3,0.53-0.51,0.89-0.58
		c0.63,0,1.16,0.65,1.17,1.5c0.04,0.36-0.05,0.73-0.26,1.03C263.6,157.74,263.28,157.95,262.93,158.02L262.93,158.02z"/>
	<path class="st4" d="M277.53,122.96c-3.53-0.12-7.08-0.22-10.62-0.26v0.82c10.69,0.12,21.38,0.67,31.31,1.17
		c6.43,0.33,12.9,0.66,19.03,0.86c2.14,0.06,3.47,3,4.86,6.09c0.42,0.92,0.85,1.89,1.31,2.76c0.46,0.87,1.02,1.61,1.63,1.62
		c18.28,0.19,35.67,0.35,51.62,0.19v-0.65c-15.92,0.1-33.34-0.1-51.61-0.32c-0.38,0-0.83-0.7-1.27-1.37
		c-0.43-0.82-0.86-1.78-1.27-2.69c-1.4-3.08-2.86-6.35-5.26-6.43c-6.14-0.21-12.6-0.54-19.03-0.88
		C291.59,123.58,284.62,123.22,277.53,122.96z"/>
	<path class="st4" d="M376.61,137.15c0.39,0,0.71-0.54,0.71-1.21s-0.32-1.22-0.71-1.22s-0.72,0.54-0.71,1.21
		C375.92,136.6,376.22,137.15,376.61,137.15z"/>
	<path class="st4" d="M266.97,124.69c-0.35-0.07-0.67-0.27-0.88-0.57c-0.21-0.29-0.31-0.65-0.27-1.01c0-0.86,0.51-1.54,1.14-1.51
		c0.63,0.03,1.14,0.73,1.14,1.58C268.1,124.03,267.59,124.71,266.97,124.69z"/>
	<path class="st4" d="M326.93,101.93l-8.69,12.58l-87.53-4.92l-17.74,21.44l-58.08-0.98v1.01l58.39,0.88L231,110.48l87.45,4.78
		l8.82-12.78L326.93,101.93z"/>
	<path class="st4" d="M154.98,132.44c-0.48-0.03-0.92-0.25-1.24-0.61c-0.32-0.36-0.48-0.83-0.46-1.3c-0.01-0.23,0.02-0.47,0.1-0.69
		c0.08-0.22,0.2-0.42,0.36-0.6c0.16-0.17,0.35-0.31,0.56-0.41c0.21-0.1,0.44-0.15,0.67-0.16c0.47,0.03,0.92,0.25,1.23,0.61
		c0.32,0.36,0.48,0.82,0.46,1.3c0.01,0.23-0.02,0.47-0.1,0.69c-0.08,0.22-0.2,0.42-0.36,0.59c-0.16,0.17-0.35,0.31-0.56,0.41
		C155.44,132.37,155.22,132.43,154.98,132.44z"/>
	<path class="st4" d="M260.58,80.71l-10.59,12.95l-58.04-5.11l-14.16,15.49l-47.53-2.88v1.05l47.86,2.82l14.15-15.51l57.98,5.01
		l10.77-13.18L260.58,80.71z"/>
	<path class="st4" d="M130.35,103.65c-0.51-0.05-0.97-0.29-1.32-0.67c-0.34-0.38-0.53-0.87-0.53-1.39
		c-0.01-0.25,0.03-0.49,0.12-0.72c0.09-0.23,0.22-0.44,0.4-0.61c0.17-0.17,0.38-0.31,0.61-0.4c0.23-0.09,0.47-0.13,0.72-0.12
		c0.5,0.06,0.97,0.3,1.3,0.68c0.34,0.38,0.52,0.87,0.52,1.38c0.01,0.24-0.03,0.49-0.12,0.71c-0.09,0.23-0.22,0.43-0.39,0.61
		s-0.38,0.31-0.6,0.4C130.83,103.61,130.59,103.66,130.35,103.65L130.35,103.65z"/>
	<path class="st4" d="M223.8,71.14l-36.28-4.51l-13.04,13.67l-34.88-3.45v1.03l35.24,3.43l13.02-13.69l35.94,4.42V71.14z"/>
	<path class="st4" d="M139.7,79.28c-0.5-0.07-0.97-0.32-1.29-0.71c-0.33-0.39-0.5-0.89-0.48-1.4c-0.01-0.24,0.02-0.47,0.11-0.7
		c0.08-0.22,0.22-0.42,0.38-0.59c0.17-0.17,0.37-0.3,0.59-0.38c0.22-0.08,0.46-0.11,0.69-0.1c0.49,0.07,0.94,0.31,1.27,0.69
		c0.33,0.38,0.5,0.86,0.5,1.36c0.02,0.24-0.01,0.48-0.09,0.71c-0.08,0.23-0.21,0.44-0.38,0.61c-0.17,0.17-0.37,0.31-0.6,0.39
		C140.18,79.27,139.94,79.3,139.7,79.28z"/>
	<path class="st4" d="M201.25,131.13l-16.58,19.64l-26.47,0.44v1l26.81-0.49l16.78-19.93L201.25,131.13z"/>
	<path class="st4" d="M158.24,153.59c-0.23-0.01-0.46-0.06-0.67-0.16c-0.21-0.1-0.4-0.24-0.56-0.41c-0.16-0.17-0.28-0.37-0.35-0.59
		c-0.08-0.22-0.11-0.45-0.1-0.69c-0.02-0.47,0.14-0.94,0.45-1.29c0.31-0.36,0.75-0.57,1.22-0.61c0.23,0.01,0.46,0.07,0.67,0.17
		c0.21,0.1,0.4,0.24,0.55,0.41c0.15,0.17,0.27,0.37,0.35,0.59c0.08,0.22,0.11,0.45,0.1,0.68c0.02,0.47-0.14,0.93-0.45,1.29
		C159.15,153.33,158.71,153.55,158.24,153.59L158.24,153.59z"/>
	<path class="st4" d="M376.66,181.22c-11.92,1.26-24.86,2.56-38.15,3.88h-0.06v0.05c-1.42,1.61-2.62,3.39-3.59,5.3
		c-1.52,2.7-2.98,5.27-5.05,6.35c-7.73-0.41-15.34,0.85-23.7,2.23c-4.7,0.78-9.67,1.6-14.78,2.11v0.79
		c5.11-0.52,10.08-1.35,14.81-2.14c8.34-1.39,15.96-2.66,23.67-2.26c2.23-1.13,3.8-3.93,5.32-6.61c0.93-1.85,2.08-3.57,3.43-5.14
		c13.29-1.35,26.18-2.66,38.09-3.94L376.66,181.22z"/>
	<path class="st4" d="M376.63,182.76c0.39,0,0.71-0.62,0.71-1.29c0-0.67-0.32-1.19-0.71-1.15c-0.39,0.04-0.72,0.62-0.72,1.3
		C375.92,182.3,376.23,182.8,376.63,182.76z"/>
	<path class="st4" d="M291.34,203.03c-0.58,0.07-1.02-0.52-1.02-1.34c-0.04-0.35,0.04-0.69,0.23-0.99c0.19-0.29,0.47-0.51,0.79-0.63
		c0.57-0.07,1.02,0.52,1.02,1.34c0.04,0.35-0.04,0.7-0.22,0.99S291.66,202.92,291.34,203.03L291.34,203.03z"/>
	<path class="st4" d="M377.23,175.28c-20.61,1.84-43.7,3.82-68.98,5.91v0.76c25.28-2.14,48.36-4.11,68.98-6.02V175.28z"/>
	<path class="st4" d="M308.29,180.19c-0.53,0-0.96,0.72-0.96,1.51c0,0.79,0.43,1.39,0.96,1.34c0.53-0.05,1.02-0.72,1.02-1.51
		C309.31,180.74,308.83,180.15,308.29,180.19z"/>
	<path class="st4" d="M226.04,91.76l-23.61,27.55l-31.35-1.15v0.98l31.67,1.11l23.79-27.82L226.04,91.76z"/>
	<path class="st4" d="M171.16,120.48c-0.46-0.05-0.88-0.27-1.18-0.62c-0.3-0.35-0.45-0.8-0.43-1.27c-0.02-0.22,0.01-0.45,0.08-0.66
		c0.07-0.21,0.19-0.41,0.34-0.57c0.15-0.17,0.33-0.3,0.54-0.39c0.2-0.09,0.42-0.14,0.65-0.15c0.46,0.05,0.88,0.27,1.18,0.62
		c0.3,0.35,0.45,0.8,0.43,1.27c0.02,0.22-0.01,0.45-0.08,0.66c-0.07,0.21-0.19,0.41-0.34,0.57c-0.15,0.17-0.33,0.3-0.54,0.39
		C171.6,120.43,171.38,120.48,171.16,120.48L171.16,120.48z"/>
	<g>
		<g class="st2">
			<g class="st2">
				<path class="st4" d="M360.77,93.32c-5.53-0.62-11.25-1.22-17.18-1.82v0.7c11.74,1.16,22.5,2.34,32.99,3.64v-0.65
					C371.42,94.55,366.17,93.93,360.77,93.32z"/>
			</g>
			<g class="st2">
				<path class="st4" d="M376.55,96.74c0.39,0,0.71-0.47,0.71-1.14s-0.32-1.25-0.71-1.3c-0.39-0.04-0.72,0.46-0.72,1.14
					C375.84,96.13,376.15,96.7,376.55,96.74z"/>
			</g>
			<g class="st2">
				<path class="st4" d="M343.64,93.19c-0.46-0.05-0.83-0.68-0.83-1.41c0-0.73,0.37-1.28,0.83-1.23c0.46,0.05,0.83,0.69,0.83,1.42
					S344.1,93.24,343.64,93.19z"/>
			</g>
			<g class="st2">
				<path class="st4" d="M256.29,37.86h-0.12c-38.41-7.48-80.21-15.7-130.65-25.27v1.03c50.37,9.5,92.14,17.58,130.51,25.01
					c3.63,4.87,7.51,9.55,11.62,14.02c2.8,3.08,5.41,6.05,7.84,9.11l0.08,0.1h0.1c38.45,5.97,72.52,11.3,101.6,15.74v-0.65
					c-29.05-4.52-63.09-9.87-101.49-15.89c-2.42-3.08-5.01-5.96-7.78-9.06c-4.11-4.47-7.98-9.15-11.6-14.03L256.29,37.86z"/>
			</g>
			<g class="st2">
				<path class="st4" d="M125.64,15.11c-0.52-0.13-0.99-0.42-1.33-0.84s-0.53-0.94-0.54-1.48c-0.02-0.24,0.02-0.48,0.11-0.7
					c0.09-0.22,0.23-0.42,0.41-0.58s0.4-0.27,0.63-0.33c0.23-0.06,0.47-0.06,0.71-0.01c0.52,0.13,0.99,0.43,1.32,0.85
					c0.33,0.42,0.52,0.94,0.53,1.48c0.02,0.24-0.02,0.48-0.11,0.7c-0.09,0.22-0.23,0.42-0.41,0.57c-0.18,0.16-0.39,0.27-0.62,0.33
					C126.11,15.15,125.87,15.16,125.64,15.11z"/>
			</g>
			<g class="st2">
				<path class="st4" d="M167.08,0l25.38,26.53l0.47-0.67L168.23,0H167.08z"/>
			</g>
			<g class="st2">
				<path class="st4" d="M356.49,245.25c-7.18,1.77-14.57,3.61-22.18,5.53v0.72c14.94-3.8,29.16-7.37,42.35-10.45v-0.65
					C370.17,241.93,363.44,243.55,356.49,245.25z"/>
			</g>
			<g class="st2">
				<path class="st4" d="M376.63,241.93c0.39-0.1,0.71-0.72,0.71-1.4c0-0.68-0.32-1.14-0.71-1.03c-0.39,0.11-0.72,0.72-0.72,1.39
					C375.92,241.56,376.23,242.03,376.63,241.93z"/>
			</g>
			<g class="st2">
				<path class="st4" d="M334.35,252.48c-0.47,0.12-0.86-0.39-0.86-1.13c-0.03-0.32,0.04-0.63,0.19-0.91
					c0.15-0.28,0.38-0.5,0.67-0.65c0.48-0.11,0.87,0.39,0.87,1.14c0.03,0.32-0.04,0.63-0.19,0.91
					C334.87,252.11,334.64,252.34,334.35,252.48L334.35,252.48z"/>
			</g>
			<g class="st2">
				<path class="st4" d="M275.13,140.4c-0.86,0.06-1.66,0.42-2.27,1.03c-0.26,0.21-0.52,0.42-0.84,0.64
					c-4.86,4.57-9.38,9.05-13.82,13.47c-4.45,4.42-9.27,9.25-14.53,14.17c-1.46,1.65-2.91,3.2-4.34,4.69c-2.58,2.62-5,5.39-7.25,8.3
					c-1.33,1.79-3.35,3.66-4.64,3.77c-19.58,2.2-40.96,3.81-63.2,5.5c-12.8,0.97-26.59,2.06-40.8,3.22v1.03
					c14.18-1.23,27.99-2.3,40.78-3.29c22.25-1.72,43.63-3.37,63.22-5.6c1.53-0.13,3.73-2.21,5.11-4.11
					c2.22-2.88,4.61-5.63,7.16-8.22c1.41-1.5,2.87-3.08,4.32-4.68c5.24-4.95,9.99-9.68,14.51-14.17c4.52-4.49,8.95-8.9,13.75-13.44
					c0.29-0.19,0.56-0.42,0.83-0.63c0.52-0.54,1.22-0.87,1.96-0.94c24.67,0.91,47.6,0.64,67.78,0.39
					c11.66-0.13,23.08-0.27,33.68-0.16v-0.65c-10.6-0.12-22.03,0-33.68,0.11C322.72,141.12,299.8,141.37,275.13,140.4z"/>
			</g>
			<g class="st2">
				<path class="st4" d="M376.55,142.34c0.39,0,0.71-0.56,0.71-1.22s-0.32-1.21-0.72-1.21c-0.4,0-0.71,0.54-0.71,1.22
					C375.84,141.81,376.15,142.34,376.55,142.34z"/>
			</g>
			<g class="st2">
				<path class="st4" d="M123.48,197.7c-0.25,0.02-0.49-0.01-0.73-0.1c-0.23-0.08-0.44-0.22-0.62-0.39
					c-0.18-0.17-0.32-0.38-0.41-0.61c-0.09-0.23-0.13-0.48-0.12-0.73c0-0.52,0.19-1.03,0.54-1.42c0.35-0.39,0.82-0.64,1.34-0.71
					c0.25-0.02,0.49,0.02,0.72,0.11c0.23,0.09,0.44,0.22,0.62,0.39c0.17,0.17,0.31,0.38,0.4,0.61c0.09,0.23,0.13,0.48,0.12,0.72
					c0,0.52-0.19,1.03-0.53,1.42C124.47,197.39,124,197.64,123.48,197.7L123.48,197.7z"/>
			</g>
			<g class="st2">
				<path class="st4" d="M316.73,153.81h-0.08l-0.06,0.06c-4.79,4.91-9.5,10.28-14.14,15.56c-2.66,3.01-5.43,6.17-8.18,9.19
					c-3.07,0.24-6.25,0.39-9.35,0.54c-6.71,0.22-13.41,0.8-20.06,1.74c-3.15,0.78-5.58,3.78-7.96,6.72
					c-1.12,1.45-2.32,2.82-3.62,4.11l0.34,0.68c1.32-1.31,2.55-2.71,3.69-4.18c2.3-2.85,4.66-5.77,7.61-6.5
					c6.63-0.94,13.3-1.53,19.99-1.76c3.13-0.16,6.34-0.33,9.45-0.58h0.09l0.07-0.07c2.76-3.08,5.56-6.24,8.23-9.25
					c4.62-5.26,9.3-10.58,14.05-15.48c22.56-0.68,41.92-1.25,60.44-1.73v-0.65C358.75,152.62,339.34,153.17,316.73,153.81z"/>
			</g>
			<g class="st2">
				<path class="st4" d="M254.15,193.27c-0.12,0.12-0.27,0.2-0.43,0.25c-0.16,0.05-0.33,0.05-0.49,0.02
					c-0.16-0.03-0.32-0.11-0.44-0.22c-0.13-0.11-0.23-0.24-0.29-0.4c-0.16-0.37-0.21-0.78-0.14-1.17c0.07-0.4,0.25-0.76,0.53-1.06
					c0.12-0.12,0.27-0.2,0.43-0.25c0.16-0.05,0.33-0.05,0.49-0.02c0.16,0.04,0.32,0.11,0.44,0.22c0.13,0.11,0.23,0.25,0.29,0.4
					c0.17,0.37,0.22,0.77,0.15,1.17C254.62,192.62,254.43,192.99,254.15,193.27L254.15,193.27z"/>
			</g>
			<g class="st2">
				<path class="st4" d="M325.14,188.64l-23.89,2.54c-5.04,3.85-9.35,9.36-14,15.3l-2.47,3.14c-0.4,0.36-0.78,0.74-1.13,1.14
					c-0.72,0.76-1.45,1.55-2.14,1.65l-40.9,5.86c-2.04-1.61-4.16-3.12-6.35-4.52c-3.63-2.4-7.1-4.7-10.14-8.15l-0.08-0.09h-0.11
					c-8.46-0.61-17.31,0.67-26.15,1.93c-6.05,0.87-12.44,1.79-18.88,2.13l-0.05,0.97c6.47-0.35,12.87-1.27,18.95-2.16
					c8.77-1.24,17.56-2.56,25.89-1.99c3.03,3.16,6.47,5.91,10.23,8.16c2.21,1.41,4.35,2.93,6.4,4.55l0.09,0.07l41.11-5.95
					c0.99-0.35,1.84-0.99,2.45-1.84c0.33-0.39,0.69-0.76,1.07-1.1l0,0c0.85-1.03,1.68-2.13,2.49-3.19
					c4.6-5.88,8.88-11.3,13.82-15.15l23.52-2.51c1.38,1.8,2.99,3.4,4.79,4.78c1.12,0.89,2.18,1.86,3.17,2.91l0.05,0.06h0.07
					c9.57,0.07,19.03-1.41,27.8-2.77c5.54-0.86,11.14-1.74,16.36-2.17v-0.65c-5.29,0.42-10.88,1.28-16.43,2.15
					c-8.73,1.35-18.16,2.81-27.68,2.72c-0.98-1.04-2.04-2-3.16-2.89c-1.79-1.38-3.39-2.99-4.75-4.8L325.14,188.64z"/>
			</g>
			<g class="st2">
				<path class="st4" d="M178.91,211.82c-0.22,0-0.43-0.04-0.63-0.13c-0.2-0.09-0.37-0.22-0.52-0.38c-0.14-0.16-0.25-0.35-0.31-0.56
					c-0.06-0.21-0.08-0.43-0.05-0.64c0-0.47,0.16-0.92,0.46-1.27c0.3-0.35,0.72-0.58,1.18-0.65c0.21,0,0.43,0.04,0.62,0.13
					c0.2,0.09,0.37,0.22,0.51,0.38s0.25,0.35,0.31,0.56s0.08,0.42,0.05,0.64c0.01,0.46-0.16,0.91-0.46,1.27
					C179.78,211.52,179.37,211.75,178.91,211.82L178.91,211.82z"/>
			</g>
			<g class="st2">
				<path class="st4" d="M355.11,167.75h-0.09c-6.85,0.43-14.18,0.9-21.69,1.56v0.72c7.47-0.68,14.77-1.15,21.6-1.59
					c2.03,2.98,4.37,5.73,6.96,8.22h0.05H362c4.88-0.42,9.81-0.84,14.63-1.1v-0.65c-4.81,0.25-9.71,0.66-14.58,1.03
					c-2.59-2.49-4.9-5.24-6.9-8.22L355.11,167.75z"/>
			</g>
			<g class="st2">
				<path class="st4" d="M376.61,176.52c0.39,0,0.71-0.61,0.71-1.27c0-0.67-0.31-1.19-0.7-1.17c-0.39,0.02-0.72,0.61-0.72,1.27
					C375.91,176.02,376.21,176.55,376.61,176.52z"/>
			</g>
			<g class="st2">
				<path class="st4" d="M333.38,171.02c-0.48,0-0.87-0.54-0.87-1.29c0-0.74,0.38-1.38,0.86-1.42c0.48-0.04,0.87,0.54,0.87,1.28
					C334.24,170.35,333.86,170.98,333.38,171.02z"/>
			</g>
			<g class="st2">
				<path class="st4" d="M376.56,126.58c-11.51-0.14-23.89-0.56-36.81-1.27v0.71c12.96,0.69,25.33,1.09,36.81,1.21V126.58z"/>
			</g>
			<g class="st2">
				<path class="st4" d="M376.53,128.12c0.4,0,0.71-0.53,0.71-1.2c0-0.67-0.32-1.23-0.72-1.24c-0.4-0.01-0.71,0.53-0.71,1.21
					C375.82,127.56,376.14,128.11,376.53,128.12z"/>
			</g>
			<g class="st2">
				<path class="st4" d="M339.76,126.98c-0.47,0-0.84-0.64-0.84-1.37c0-0.73,0.39-1.32,0.85-1.29c0.46,0.02,0.84,0.63,0.84,1.37
					C340.61,126.42,340.25,126.98,339.76,126.98z"/>
			</g>
			<g class="st2">
				<path class="st4" d="M377.24,113.25l-95.73-6.45h-0.07h-0.06c-4.47,3.08-8.42,7.05-12.67,11.3c-1.85,1.85-3.78,3.79-5.83,5.72
					c-4.4,3.55-8.61,7.34-14.53,13.1c-34.77-0.24-75.79-0.52-122.15-1.14v1.03c46.42,0.54,87.49,0.76,122.27,0.95h0.1l0.09-0.08
					c5.94-5.81,10.15-9.61,14.56-13.17c2.04-1.96,4.01-3.89,5.86-5.77c4.21-4.22,8.12-8.15,12.52-11.21l95.65,6.3L377.24,113.25z"/>
			</g>
			<g class="st2">
				<path class="st4" d="M126.28,138.28c-0.51-0.02-0.98-0.24-1.33-0.61c-0.35-0.37-0.53-0.86-0.52-1.37
					c-0.01-0.25,0.04-0.5,0.13-0.74c0.09-0.23,0.23-0.45,0.4-0.63c0.17-0.18,0.38-0.33,0.61-0.43c0.23-0.1,0.48-0.15,0.73-0.16
					c0.51,0.02,0.98,0.24,1.33,0.61c0.34,0.37,0.53,0.87,0.51,1.37c0.01,0.25-0.04,0.5-0.13,0.73c-0.09,0.23-0.22,0.45-0.4,0.63
					c-0.17,0.18-0.38,0.33-0.61,0.43C126.78,138.22,126.53,138.28,126.28,138.28L126.28,138.28z"/>
			</g>
			<g class="st2">
				<path class="st4" d="M330.87,69.6l-17.22,16.46L208.14,73.8l-29.17,22.15L66.13,87.59v1.14l113.11,8.2l29.15-22.19l105.41,12.1
					l17.34-16.61L330.87,69.6z"/>
			</g>
			<g class="st2">
				<path class="st4" d="M66.22,90.32c-0.59-0.04-1.14-0.3-1.55-0.73c-0.41-0.43-0.64-0.99-0.66-1.58c0.01-0.28,0.07-0.55,0.19-0.81
					c0.12-0.25,0.28-0.48,0.49-0.67c0.21-0.19,0.45-0.33,0.71-0.42c0.26-0.09,0.54-0.12,0.82-0.1c0.59,0.05,1.13,0.31,1.54,0.73
					c0.41,0.43,0.64,0.99,0.66,1.58c-0.01,0.28-0.07,0.55-0.19,0.8c-0.12,0.25-0.28,0.48-0.49,0.67c-0.21,0.19-0.45,0.33-0.71,0.42
					C66.77,90.31,66.49,90.34,66.22,90.32z"/>
			</g>
			<g class="st2">
				<path class="st4" d="M268.47,52.37L199.2,40.48l-27.24,18.8L89.62,48.31v1.11l82.61,10.87l27.22-18.84l69.02,11.74V52.37z"/>
			</g>
			<g class="st2">
				<path class="st4" d="M89.74,50.93c-0.56-0.09-1.07-0.37-1.45-0.8c-0.37-0.43-0.59-0.98-0.6-1.55c-0.01-0.26,0.04-0.52,0.15-0.76
					c0.1-0.24,0.26-0.45,0.45-0.62c0.19-0.17,0.43-0.3,0.67-0.37c0.25-0.07,0.51-0.09,0.77-0.05c0.56,0.09,1.07,0.38,1.45,0.81
					c0.37,0.43,0.59,0.98,0.6,1.55c0.01,0.26-0.04,0.52-0.15,0.76c-0.1,0.24-0.26,0.45-0.45,0.62c-0.2,0.17-0.43,0.3-0.68,0.37
					C90.26,50.96,89.99,50.97,89.74,50.93L89.74,50.93z"/>
			</g>
			<g class="st2">
				<path class="st4" d="M226.65,136.88l-33.29,29.88l-59.54,2.64v1.04l59.8-2.74l33.46-30.1L226.65,136.88z"/>
			</g>
			<g class="st2">
				<path class="st4" d="M133.91,171.87c-0.24,0-0.48-0.04-0.71-0.14c-0.22-0.09-0.43-0.23-0.6-0.41c-0.17-0.17-0.3-0.38-0.39-0.61
					s-0.13-0.47-0.12-0.72c-0.02-0.51,0.16-1.01,0.49-1.39c0.34-0.38,0.81-0.62,1.32-0.66c0.25-0.01,0.49,0.03,0.72,0.13
					c0.23,0.09,0.44,0.23,0.61,0.41c0.17,0.18,0.31,0.39,0.39,0.62c0.09,0.23,0.12,0.48,0.11,0.73c0,0.51-0.19,1-0.53,1.37
					C134.88,171.58,134.41,171.82,133.91,171.87L133.91,171.87z"/>
			</g>
			<g class="st2">
				<path class="st4" d="M376.66,224.52l-0.23,0.05v0.65l0.23-0.05V224.52z"/>
			</g>
			<g class="st2">
				<path class="st4" d="M376.63,226.08c0.39-0.08,0.71-0.7,0.71-1.37s-0.32-1.15-0.71-1.03c-0.39,0.12-0.72,0.69-0.72,1.37
					C375.92,225.73,376.23,226.16,376.63,226.08z"/>
			</g>
			<g class="st2">
				<path class="st4" d="M376.48,226.11c-0.39,0.08-0.71-0.4-0.71-1.03c0-0.63,0.32-1.3,0.71-1.37c0.39-0.07,0.71,0.4,0.71,1.03
					S376.87,226.03,376.48,226.11z"/>
			</g>
			<g class="st2">
				<path class="st4" d="M272.75,81.49l-43.95,38.24l-66.18-2.49v0.99l66.4,2.39l44.07-38.44L272.75,81.49z"/>
			</g>
			<g class="st2">
				<path class="st4" d="M162.7,119.6c-0.47-0.05-0.9-0.27-1.21-0.63c-0.31-0.36-0.47-0.82-0.45-1.29c-0.01-0.23,0.02-0.46,0.1-0.67
					c0.08-0.22,0.2-0.41,0.35-0.58c0.15-0.17,0.34-0.3,0.55-0.4c0.21-0.09,0.43-0.14,0.66-0.15c0.47,0.05,0.9,0.28,1.2,0.63
					c0.31,0.36,0.46,0.82,0.44,1.29c0.01,0.23-0.02,0.46-0.09,0.67c-0.08,0.22-0.19,0.41-0.35,0.58c-0.15,0.17-0.34,0.3-0.55,0.4
					C163.15,119.54,162.93,119.59,162.7,119.6L162.7,119.6z"/>
			</g>
		</g>
		<g>
			<path class="st4" d="M376.61,171.33c-14.11,1.31-29.33,2.47-45.31,3.42v0.72c15.98-1.03,31.2-2.17,45.32-3.49L376.61,171.33z"/>
		</g>
		<g>
			<path class="st4" d="M376.58,172.86c0.39,0,0.71-0.6,0.71-1.27c0-0.68-0.32-1.19-0.71-1.16c-0.39,0.03-0.71,0.6-0.71,1.27
				C375.88,172.38,376.19,172.9,376.58,172.86z"/>
		</g>
		<g>
			<path class="st4" d="M331.35,176.45c-0.48,0-0.87-0.53-0.87-1.28c0-0.75,0.39-1.39,0.87-1.42c0.48-0.03,0.88,0.54,0.88,1.28
				C332.23,175.77,331.84,176.42,331.35,176.45z"/>
		</g>
		<g>
			<path class="st4" d="M377.19,173.54c-0.95,1.95-2.05,3.79-3.16,5.59c-1.24,1.96-2.37,3.98-3.39,6.05
				c-11.33,2.23-23.62,3.41-36.21,4.62c-13.38,1.28-28.08,2.7-43.34,5.54h-0.12l-0.08,0.14c-1.39,2.39-2.96,4.67-4.7,6.81
				c-1.77,2.19-3.38,4.5-4.81,6.93c-11.62,3.08-24.23,4.48-37.04,5.88c-7.74,0.85-15.98,1.76-24.24,3.08v0.9
				c8.25-1.33,16.48-2.24,24.22-3.08c12.86-1.43,25.56-2.84,37.22-5.98h0.12l0.07-0.14c1.42-2.44,3.02-4.76,4.8-6.95
				c1.73-2.14,3.3-4.4,4.69-6.78c15.2-2.85,29.86-4.29,43.19-5.58c12.63-1.24,24.96-2.45,36.32-4.71h0.09l0.05-0.11
				c1.02-2.1,2.16-4.13,3.4-6.1c1.09-1.8,2.23-3.66,3.19-5.63L377.19,173.54z"/>
		</g>
		<g>
			<path class="st4" d="M220.16,220.36c-0.76,0.1-1.37-0.58-1.36-1.51c-0.02-0.42,0.1-0.84,0.35-1.18c0.25-0.34,0.61-0.59,1.01-0.69
				c0.75-0.1,1.36,0.58,1.36,1.5c0.02,0.42-0.1,0.84-0.35,1.18C220.92,220,220.56,220.25,220.16,220.36L220.16,220.36z"/>
		</g>
		<g>
			<path class="st4" d="M249.45,214.27l-17.7,24.07l-84,14.9v1.02l84.28-15.09l17.86-24.35L249.45,214.27z"/>
		</g>
		<g>
			<path class="st4" d="M147.84,255.63c-0.22,0.04-0.45,0.03-0.67-0.04c-0.22-0.06-0.42-0.18-0.59-0.33
				c-0.17-0.15-0.3-0.34-0.38-0.56c-0.08-0.21-0.12-0.44-0.1-0.67c0-0.51,0.17-1.01,0.49-1.41c0.32-0.4,0.76-0.68,1.25-0.8
				c0.22-0.04,0.45-0.03,0.66,0.03c0.22,0.06,0.41,0.17,0.58,0.32c0.17,0.15,0.3,0.33,0.38,0.54c0.08,0.21,0.12,0.43,0.11,0.66
				c0.01,0.52-0.15,1.02-0.47,1.43C148.78,255.22,148.34,255.51,147.84,255.63L147.84,255.63z"/>
		</g>
		<g>
			<path class="st4" d="M376.53,63.76c0.4,0.07,0.72-0.41,0.72-1.03c0-0.62-0.32-1.28-0.72-1.36c-0.4-0.07-0.71,0.41-0.71,1.03
				C375.83,63.02,376.14,63.68,376.53,63.76z"/>
		</g>
		<g>
			<path class="st4" d="M251.57,102.71c-5.47-0.39-11.07-0.69-16.7-1.03c-5.05-0.27-10.38-0.55-15.68-0.9v0.89
				c5.3,0.35,10.62,0.63,15.69,0.88c10.95,0.57,21.83,1.12,31.84,2.38c0.14,0,0.28,0.47,0.39,0.88c0.12,0.54,0.33,1.06,0.62,1.53
				c3.92,4.76,7.54,9.69,10.98,14.39c3.45,4.7,6.88,9.39,10.53,13.81c0.57,0.83,1.42,1.43,2.39,1.69c8.51,0,16.87,0.24,24.68,0.41
				c18.41,0.4,36.05,0.78,52.08-0.55h0.08v-0.1c1.78-3.3,3.78-6.47,5.97-9.51c0.8-1.16,1.63-2.36,2.46-3.61l-0.26-0.49
				c-0.83,1.24-1.66,2.44-2.46,3.6c-2.18,3.03-4.17,6.19-5.96,9.46c-15.98,1.31-33.55,0.89-51.96,0.46
				c-7.81-0.18-16.17-0.38-24.68-0.45c-0.83-0.23-1.55-0.75-2.04-1.47c-3.65-4.42-7.16-9.16-10.51-13.8
				c-3.35-4.65-7.06-9.65-10.97-14.39c-0.21-0.38-0.37-0.79-0.46-1.21c-0.19-0.67-0.4-1.42-0.95-1.45
				C261.86,103.53,256.76,103.07,251.57,102.71z"/>
		</g>
		<g>
			<path class="st4" d="M377.27,124.62c0.15-0.26,0.23-0.55,0.24-0.85c0.01-0.3-0.05-0.6-0.17-0.87c-0.26-0.51-0.71-0.59-1.02-0.15
				c-0.15,0.26-0.23,0.55-0.24,0.85c-0.01,0.3,0.05,0.6,0.18,0.87C376.53,124.92,376.98,125.05,377.27,124.62z"/>
		</g>
		<g>
			<path class="st4" d="M219.28,102.94c-0.41-0.07-0.77-0.29-1.03-0.62c-0.25-0.33-0.38-0.73-0.35-1.15
				c-0.03-0.2-0.01-0.4,0.05-0.59c0.06-0.19,0.15-0.37,0.28-0.52c0.13-0.15,0.28-0.28,0.46-0.36c0.18-0.09,0.37-0.14,0.57-0.15
				c0.4,0.07,0.75,0.29,1.01,0.61c0.25,0.32,0.38,0.72,0.36,1.12c0.03,0.2,0.02,0.4-0.03,0.6c-0.05,0.19-0.14,0.37-0.27,0.53
				c-0.13,0.16-0.28,0.28-0.46,0.37C219.67,102.88,219.48,102.93,219.28,102.94L219.28,102.94z"/>
		</g>
		<g>
			<path class="st4" d="M280.34,100.54l-0.4,0.55l5.03,6.92l16.82,1.1l12.87,18.29l58.64,1.66v-0.66l-58.45-1.75l-12.85-18.3
				l-16.82-1.13L280.34,100.54z"/>
		</g>
		<g>
			<path class="st4" d="M279.44,101.91c-0.21-0.32-0.32-0.69-0.32-1.07s0.11-0.75,0.32-1.07c0.08-0.13,0.2-0.24,0.34-0.31
				c0.14-0.07,0.29-0.11,0.45-0.1c0.15,0.01,0.31,0.05,0.44,0.13c0.13,0.08,0.24,0.2,0.31,0.33c0.21,0.32,0.32,0.69,0.32,1.06
				s-0.11,0.75-0.32,1.06c-0.08,0.14-0.19,0.25-0.33,0.32c-0.14,0.08-0.29,0.11-0.45,0.11c-0.16,0-0.31-0.05-0.44-0.13
				C279.62,102.17,279.52,102.05,279.44,101.91L279.44,101.91z"/>
		</g>
		<g>
			<path class="st4" d="M295.22,84.02l-22.41-2.6l-8.93,10.38l-20.16-1.9v0.86l20.41,1.89l8.92-10.39l21.96,2.52l10.15,14.74
				l14.81,1.26l4.92-6.5l47,4.76v-0.66l-47.2-4.85l-4.92,6.49l-14.41-1.26L295.22,84.02z"/>
		</g>
		<g>
			<path class="st4" d="M243.78,91.96c-0.38-0.09-0.71-0.32-0.94-0.64c-0.23-0.32-0.34-0.71-0.3-1.1c0-0.89,0.56-1.56,1.25-1.5
				c0.38,0.09,0.72,0.32,0.94,0.64c0.23,0.32,0.34,0.71,0.3,1.1C245.03,91.35,244.47,92.04,243.78,91.96z"/>
		</g>
		<g>
			<path class="st4" d="M342.54,108.81h-0.08v0.07c-0.68,0.84-1.25,1.76-1.72,2.73c-0.94,1.76-1.9,3.59-3.57,3.93
				c-2.97,0.22-5.96,0.09-8.91-0.38c-1.02-0.12-2.12-0.25-3.13-0.33v0.73c1.02,0.08,2.04,0.21,3.12,0.33
				c2.97,0.46,5.99,0.58,8.99,0.36c1.84-0.38,2.86-2.31,3.85-4.17c0.44-0.9,0.97-1.76,1.58-2.55c11.79,0.83,23.33,1.64,34.01,2.5
				v-0.65C365.93,110.54,354.35,109.66,342.54,108.81z"/>
		</g>
		<g>
			<path class="st4" d="M376.59,112.91c0.39,0,0.71-0.49,0.71-1.16c0-0.67-0.32-1.24-0.71-1.27c-0.39-0.03-0.71,0.49-0.71,1.17
				C375.89,112.32,376.2,112.89,376.59,112.91z"/>
		</g>
		<g>
			<path class="st4" d="M325.1,116.58c-0.5,0-0.89-0.71-0.88-1.46c0.01-0.75,0.44-1.34,0.93-1.28c0.49,0.05,0.89,0.71,0.87,1.47
				C326,116.07,325.59,116.63,325.1,116.58z"/>
		</g>
		<g>
			<path class="st4" d="M354.01,148.01c-8.1,0.13-16.47,0.33-25.06,0.57v0.73c16.86-0.5,32.88-0.8,47.73-0.91v-0.65
				C369.38,147.79,361.82,147.88,354.01,148.01z"/>
		</g>
		<g>
			<path class="st4" d="M376.63,149.3c0.39,0,0.71-0.56,0.71-1.23c0-0.67-0.32-1.21-0.71-1.2c-0.39,0.01-0.71,0.55-0.71,1.23
				C375.93,148.78,376.25,149.31,376.63,149.3z"/>
		</g>
		<g>
			<path class="st4" d="M329,150.32c-0.48,0-0.88-0.6-0.88-1.35s0.4-1.37,0.88-1.38c0.48-0.01,0.89,0.6,0.89,1.35
				C329.89,149.69,329.47,150.31,329,150.32z"/>
		</g>
		<g>
			<path class="st4" d="M259.1,138.43c-5.47,0-11.05,0.13-16.67,0.3c-7.08,0.21-14.6,0.42-22.06,0.27v0.89
				c7.47,0.14,15-0.08,22.09-0.3c12.27-0.37,24.29-0.74,35.46,0.8c1.51,2.06,3.07,4.11,4.63,6.23c3.21,4.26,6.48,8.61,9.45,13.25
				c0.45,0.67,1.04,1.23,1.74,1.63c0.7,0.4,1.48,0.63,2.28,0.67c29.98-1.33,57.33-2.54,81.33-3.76v-0.65
				c-24,1.18-51.35,2.35-81.33,3.63c-0.72-0.04-1.42-0.25-2.05-0.6c-0.63-0.36-1.16-0.85-1.57-1.45c-2.97-4.63-6.24-9-9.45-13.27
				c-1.63-2.16-3.17-4.21-4.69-6.33l-0.07-0.1h-0.1C271.79,138.8,265.44,138.4,259.1,138.43z"/>
		</g>
		<g>
			<path class="st4" d="M220.43,141.09c-0.35,0.08-0.71,0.04-1.04-0.1c-0.33-0.14-0.6-0.38-0.79-0.68c-0.19-0.3-0.28-0.66-0.25-1.02
				c0.02-0.36,0.15-0.7,0.38-0.98c0.22-0.28,0.53-0.48,0.87-0.58c0.34-0.1,0.71-0.09,1.04,0.03c0.34,0.12,0.63,0.34,0.83,0.63
				c0.21,0.29,0.32,0.64,0.32,1c0.04,0.4-0.08,0.81-0.33,1.12C221.2,140.84,220.83,141.04,220.43,141.09L220.43,141.09z"/>
		</g>
		<g>
			<path class="st4" d="M243.44,166.06l-47.5,2.24v0.94l47.24-2.3l13.82,16.03l56.01-4.51l10.13,13.26l0.33-0.58l-10.27-13.44
				l-55.96,4.42L243.44,166.06z"/>
		</g>
		<g>
			<path class="st4" d="M196.03,170.52c-0.21-0.01-0.42-0.06-0.61-0.14c-0.19-0.09-0.36-0.22-0.5-0.37
				c-0.14-0.16-0.24-0.34-0.31-0.54c-0.06-0.2-0.09-0.41-0.07-0.62c-0.03-0.44,0.11-0.87,0.38-1.21c0.28-0.34,0.67-0.56,1.1-0.62
				c0.21,0.01,0.41,0.06,0.6,0.15c0.19,0.09,0.36,0.22,0.5,0.38c0.14,0.16,0.24,0.34,0.31,0.54c0.06,0.2,0.09,0.41,0.07,0.62
				c0.03,0.44-0.11,0.86-0.38,1.2C196.84,170.23,196.46,170.46,196.03,170.52L196.03,170.52z"/>
		</g>
		<g>
			<path class="st4" d="M240.22,190.33l-34.98,3.21v0.92l34.71-3.24l12.74,14.12l35.15-4.3v-0.79l-34.9,4.2L240.22,190.33z"/>
		</g>
		<g>
			<path class="st4" d="M205.28,195.73c-0.2,0-0.4-0.04-0.59-0.13c-0.18-0.08-0.35-0.2-0.48-0.35c-0.14-0.15-0.24-0.33-0.3-0.52
				c-0.06-0.19-0.08-0.4-0.06-0.6c-0.02-0.43,0.11-0.86,0.37-1.2c0.26-0.34,0.64-0.58,1.06-0.67c0.2,0,0.4,0.04,0.59,0.13
				c0.18,0.08,0.35,0.2,0.48,0.35c0.14,0.15,0.24,0.33,0.3,0.52c0.06,0.19,0.08,0.4,0.06,0.6c0.02,0.43-0.11,0.86-0.37,1.2
				C206.08,195.4,205.7,195.64,205.28,195.73L205.28,195.73z"/>
		</g>
		<g>
			<path class="st4" d="M250.17,118.39l-26.54-1.11v0.89l26.29,1.05l16.17,20.44l0.42-0.61L250.17,118.39z"/>
		</g>
		<g>
			<path class="st4" d="M223.69,119.39c-0.4-0.06-0.76-0.27-1.02-0.59c-0.25-0.32-0.37-0.73-0.33-1.13c-0.02-0.2,0-0.4,0.05-0.58
				c0.06-0.19,0.15-0.36,0.28-0.52c0.13-0.15,0.28-0.28,0.46-0.37c0.18-0.09,0.37-0.14,0.56-0.16c0.4,0.07,0.76,0.28,1.01,0.61
				c0.25,0.32,0.37,0.73,0.33,1.13c0.02,0.19,0,0.39-0.06,0.58c-0.06,0.19-0.15,0.36-0.28,0.51c-0.13,0.15-0.28,0.27-0.45,0.36
				C224.07,119.33,223.88,119.38,223.69,119.39z"/>
		</g>
		<g>
			<path class="st4" d="M376.54,75.68c0.39,0.06,0.71-0.43,0.71-1.11s-0.32-1.26-0.71-1.33c-0.39-0.06-0.71,0.42-0.71,1.1
				C375.84,75.02,376.15,75.6,376.54,75.68z"/>
		</g>
		<g>
			<path class="st4" d="M377.28,91.72c-3.26-0.23-6.14-0.55-9.2-1.08v0.67c3.14,0.51,5.99,0.84,9.25,1.03L377.28,91.72z"/>
		</g>
		<g>
			<path class="st4" d="M368.09,89.73c-0.41-0.06-0.75,0.44-0.75,1.13c0,0.69,0.32,1.29,0.73,1.35c0.41,0.05,0.75-0.44,0.75-1.13
				C368.81,90.38,368.49,89.79,368.09,89.73z"/>
		</g>
		<g>
			<path class="st4" d="M267.44,150.87l-31.15,0.63v0.86l30.91-0.66l22.85,28.43l0.38-0.61L267.44,150.87z"/>
		</g>
		<g>
			<path class="st4" d="M236.36,153.56c-0.19-0.02-0.37-0.08-0.54-0.17c-0.17-0.09-0.32-0.22-0.44-0.37s-0.21-0.32-0.26-0.51
				c-0.05-0.18-0.07-0.38-0.05-0.57c-0.04-0.39,0.07-0.78,0.31-1.09c0.24-0.31,0.59-0.52,0.97-0.57c0.38,0.04,0.73,0.24,0.97,0.54
				c0.24,0.3,0.35,0.69,0.31,1.07c0.04,0.39-0.07,0.78-0.31,1.09C237.1,153.3,236.75,153.5,236.36,153.56L236.36,153.56z"/>
		</g>
	</g>
</g>
</svg>
