<?xml version="1.0" encoding="utf-8"?>
<!-- Generator: Adobe Illustrator 24.1.2, SVG Export Plug-In . SVG Version: 6.00 Build 0)  -->
<svg version="1.1" id="Layer_1" xmlns="http://www.w3.org/2000/svg" xmlns:xlink="http://www.w3.org/1999/xlink" x="0px" y="0px"
	 viewBox="0 0 454 377" style="enable-background:new 0 0 454 377;" xml:space="preserve">
<style type="text/css">
	.st0{clip-path:url(#SVGID_2_);}
	.st1{fill:none;stroke:#BEE5E9;stroke-width:0.29;stroke-miterlimit:10;}
	.st2{opacity:0.3;fill:#BEE5E9;enable-background:new    ;}
</style>
<g>
	<defs>
		<rect id="SVGID_1_" width="454" height="377"/>
	</defs>
	<clipPath id="SVGID_2_">
		<use xlink:href="#SVGID_1_"  style="overflow:visible;"/>
	</clipPath>
	<g class="st0">
		<path class="st1" d="M360.22,150.75l-11.04-24.73l-18.31,12.37L360.22,150.75z"/>
		<path class="st1" d="M326.02,120.75l-8.19,41.64l-24.08-7.8L326.02,120.75z M326.02,120.75l23.16,5.27l-10.76-16.82"/>
		<path class="st1" d="M326.02,120.75v-26.5l12.4,14.95L326.02,120.75z"/>
		<path class="st1" d="M326.02,94.24l-25.57,10.09l5.04-12.77L326.02,94.24z"/>
		<path class="st1" d="M330.86,138.38l-4.85-17.63l-8.19,41.64L330.86,138.38z"/>
		<path class="st1" d="M360.22,150.75l7.34,31.17l-16.97,4.48L360.22,150.75z"/>
		<path class="st1" d="M350.58,186.4l-15.46-21.9l25.1-13.75L350.58,186.4z"/>
		<path class="st1" d="M335.12,164.5l-10.76,26.46l26.23-4.56L335.12,164.5z"/>
		<path class="st1" d="M350.58,186.4l18.33,29.17l-1.36-33.65L350.58,186.4z"/>
		<path class="st1" d="M335,165l-62.01,15.4L253.02,202L205,191.52"/>
		<path class="st1" d="M305.49,91.56l-3.51-18.25l24.04,20.94L305.49,91.56z"/>
		<path class="st1" d="M300.45,104.33l11.1,11.96l14.46-22.05L300.45,104.33z"/>
		<path class="st1" d="M326.02,120.75l-14.46-4.46l-22.01,19.45l4.21,18.85l17.8-38.3"/>
		<path class="st1" d="M274.86,111.32l14.68,24.41l-31.35,18.85l-5.85-26.76L274.86,111.32z M274.86,111.32l-21.04-18.55
			l-1.49-21.58l26.86-11.3"/>
		<path class="st1" d="M274.86,111.32l11.44-25.54"/>
		<path class="st1" d="M286.3,85.78l14.14,18.55"/>
		<path class="st1" d="M269.31,75.46l-16.97-4.26l-2.62-21.98l29.48,10.68"/>
		<path class="st1" d="M350.58,186.4l-12.17,31.75l30.5-2.58l-4.72,25.69l-11.04,30.47l-10.17,17.89l-12.13,16.14l-18.29,18.15
			l-21.72,15.39l-35.97,15.5l-34.1,6.2l-33.63-1.81l-42.09-12.62l-27.67-16.38l-23.42-21.22L74.19,281.8l-14.78-34.67l-6.25-40.04
			l3.36-37.27l10.17-31.43l22.57-36.48l27.82-26.44l33.22-18.93l31.99-9.72l35.78-2.39l31.65,4.8l-27.69,5.48l-39.73-7.89"/>
		<path class="st1" d="M111.8,193.39l-9.85-36.38l22.12-31l3.74,28.57l36.71-22.6l-10.66,15.14l-29.8-21.11l31.23-21.68l44.58-5.78
			l23.74,17.74l-15.14,22.09l-8.78-15.82l23.93-6.27"/>
		<path class="st1" d="M229.42,92.77l-18.4-12.75l-11.15,18.53L229.42,92.77z"/>
		<path class="st1" d="M260,278l28.25-83.54l12.06-55.68l-28.27,12.4L265.9,87.6L276.83,60l7.85,45.89L302,83.78L276.83,60"/>
		<path class="st1" d="M252,128l-13,101.04l9.6,79.96"/>
		<path class="st1" d="M230.03,179.99l-36.83-29.8l10.13,24.25L187,189l6.2-38.81L245.57,128L290,144.63"/>
		<path class="st1" d="M252,155.37L248.3,101l-32.01,31.06l10.03,33.95L208,200"/>
		<path class="st1" d="M205.59,129.41l7.5-36.41l58.65,28.72l-21.53,66.98l-24.35-3.14l-10.6,12.94L197,181.47l28.86,4.09L285,219"
			/>
		<path class="st1" d="M145,96.4l32.1-5.01H211L182.25,47l-5.15,44.39l22.75,24.76l-0.19,32.08L192.63,165"/>
		<path class="st1" d="M199.88,98.55l-19.97,21.77"/>
		<path class="st1" d="M285.64,249.32l25.84-25.44l26.93-5.74"/>
		<path class="st1" d="M364.2,241.26l-26.74,14.63l-28.12-10"/>
		<path class="st1" d="M337.46,255.89l0.96-37.74l25.78,23.11l-20.91,26.4l9.87,4.07"/>
		<path class="st1" d="M311.49,223.88l-12.87-22.13l25.74-10.79L311.49,223.88z M311.49,223.88l-27.5-7.4l1.66,32.84l23.7-3.43
			l12.13,18.55l15.99-8.55l5.83,11.77l-30.05,19.77l-38.37,7.38l4.34,26.33l18.82-3.24l9.49-19.04l23.36,6.91l12.42-38.1"/>
		<path class="st1" d="M264.58,216.08l19.74-14.73l-18.19-27.58l30.18,5.84l-18.56-25.41l50.07-16.2l5.74,26.11L310.23,162
			l-13.91,17.61l22.72,10.96L338,217.74l-39.22,27.73l2.9-22L242,240.02l24.82,8.89L304.03,287l11.1-22.98l-48.32-15.11"/>
		<path class="st1" d="M317.83,162.39l-32.69,11.77"/>
		<path class="st1" d="M342.99,289.62l-29.76-2.2l-5.72,11.43l-32.65-4.05"/>
		<path class="st1" d="M312.57,323.91l-14.55-6.01l32.84-12.13l-17.63-18.34"/>
		<path class="st1" d="M298.73,317.64l-7.87,21.66l-11.66-18.17l-24.31,33.67l0.13-29.81l19.85-30.19L298.73,317.64z"/>
		<path class="st1" d="M279.2,321.14l-24.18,3.86l-1.06-19.34l20.91-10.85"/>
		<path class="st1" d="M274.86,294.8l10.78-45.48l-40.27,15.12L274.86,294.8z"/>
		<path class="st1" d="M226.26,277.57l27.69,28.08l-31.33,4.75L226.26,277.57z"/>
		<path class="st1" d="M298.28,233.85l-114.65-54.98L164.5,192l104.06,61.21l46.6-30.36l21.82,3.22"/>
		<path class="st1" d="M222.62,310.41l-14.14-22.99l-8.59,33.71"/>
		<path class="st1" d="M189.07,276.76l-6.38-22.28l-20.29,9.96l26.78,12.32l-7.7,20.28l-13.12,20.04c0,0-16.78,2.03-17.4,2.03
			c-0.62,0-13.12,4.37-13.12,4.37l-0.32-26.44l13.44,22.07"/>
		<path class="st1" d="M222.62,310.41l12.53,20.47l-14.36,30.13l-28.44-17.36l35.22,3.11"/>
		<path class="st1" d="M255,310.77l-19.96,8.51l-35.44-14.1L239.23,358L255,310.77z M255,310.77l-32.55-21.1l-22.85,15.52
			L181,270.33l27.23-13.91l17.87-14.25L219.03,214l-10.79,42.42l-19.52-15.42l37.38,1.17l-22.19-22.7"/>
		<path class="st1" d="M187.16,359.2l12.72-38.06l-31.63-4.05L187.16,359.2z"/>
		<path class="st1" d="M168.25,317.08l-8.91-23.95l22.04,3.9l1.19,21.9l9.78,24.71l-17.42-11.66"/>
		<path class="st1" d="M189.05,276.76l-29.72,16.38l-21.93,3.9"/>
		<path class="st1" d="M163.23,352.03l19.33-33.11"/>
		<path class="st1" d="M74.34,177.42l-21.19,29.66l10.59-31.64l2.93-37.06l21.33-11.81l13.93-15.89l2.23-22.99l15.48,6.55
			l11.23-14.69l19.4-23.03l19.72,4.8l12.27-14.52l25.31,13.09l14.42-5.2l-11,25.33l41.31-8.83"/>
		<path class="st1" d="M326.02,94.24l5.57,21.3l17.59,10.47l-1.51,19.45l-12.55,19.04l19.91,5.42l12.53,12l-11.12,34.71l7.76,24.63"
			/>
		<path class="st1" d="M301.98,73.31h-19.1l22.61,18.25"/>
		<path class="st1" d="M279.2,59.89h-28.2l-32.93-15.48l3.96,10.28l30.31,16.5l-22.91,21.58h24.4l-22.14,40.32"/>
		<path class="st1" d="M170.02,61.32l7.13,18.7l30.46-20.13l3.42,20.13"/>
		<path class="st1" d="M285.64,249.32l-31.69,56.33"/>
		<path class="st1" d="M249,248l-16.08,29L200,265.54"/>
		<path class="st1" d="M180.5,243.5l91.68-75.76l21.57-13.16"/>
		<path class="st1" d="M182.88,137.89l-18.36-5.91l11.91,9.87"/>
		<path class="st1" d="M258,155l-50,134"/>
		<path class="st1" d="M218.07,44.41l4.74-6.76l-2.36-8.29"/>
		<path class="st1" d="M452.98,107.49l-13.93,9.81l-20.23-8.1L452.98,107.49z"/>
		<path class="st1" d="M430.2,241.26l-20.93,5.78l-5.47-23.16l12.95,9.85"/>
		<path class="st1" d="M397.27,314.46l-42.24-8.85l6.25-15.27L397.27,314.46z"/>
		<path class="st1" d="M327.95,40.49l15.34-11.13l-8.55-20.58L327.95,40.49z"/>
		<path class="st1" d="M254.89,354.8l1.51,11.83l-7.7,2.13L254.89,354.8z"/>
		<path class="st2" d="M292.05,51.11h-28.21l-1.28-10.68L292.05,51.11z"/>
		<path class="st2" d="M274.65,44.8l-27.14,2.94l-16.59-12.11L274.65,44.8z"/>
		<path class="st2" d="M195.14,38.02l24.8,6.67l10.98-9.06L195.14,38.02z"/>
		<path class="st2" d="M262.56,40.43l0.51,4.26l-32.16-9.06L262.56,40.43z"/>
		<path class="st2" d="M211.51,36.93l-9.68,8.83l-18.97,6.78l-19.72-4.8l31.99-9.72L211.51,36.93z"/>
		<path class="st2" d="M265.18,62.41l-22.89,21.58l-18.42-12.77L265.18,62.41z"/>
		<path class="st2" d="M292.05,51.11l3.68,13.41h19.12L292.05,51.11z"/>
		<path class="st2" d="M307.64,60.28l1.64,8.68l9.08,13.82l20.51,2.69l-24.01-20.94L307.64,60.28z"/>
		<path class="st2" d="M362.03,117.23l-10.76-16.82l-12.4-14.95l5.57,21.3L362.03,117.23z"/>
		<path class="st2" d="M373.07,141.96l-11.04-24.73l-6.66-1.51v6.01l5.15,14.95L373.07,141.96z"/>
		<path class="st2" d="M369.49,132.77l-1.62,28.36l12.53,12l-7.34-31.17L369.49,132.77z"/>
		<path class="st2" d="M381.77,206.78l-11.74-18.7l7.02-30.53l3.36,15.59L381.77,206.78z"/>
		<path class="st2" d="M377.04,232.46l-7.76-24.61l11.13-34.71l1.36,33.65L377.04,232.46z"/>
		<path class="st2" d="M380.51,213.56l-14.66,8.89l-15.55,24.65l5.85,11.75l9.85,4.09l11.04-30.49L380.51,213.56z"/>
		<path class="st2" d="M377.04,232.46l-20.89,26.4l-12.44,38.12l12.12-16.14L366,262.95L377.04,232.46z"/>
		<path class="st2" d="M355.84,280.84l-35.46,9.23l-8.81,18.79l-7.87,21.66l21.72-15.39l18.29-18.15L355.84,280.84z"/>
		<path class="st2" d="M325.42,315.12l-14.55-6.01l-18.82,3.01l-24.31,33.9l35.97-15.5L325.42,315.12z"/>
		<path class="st2" d="M285.54,338.34l-27.31-1.47l-17.8,1.11l-6.76,14.22l18.51-3.35l15.57-2.84L285.54,338.34z"/>
		<path class="st2" d="M252.16,348.86l-11.74-10.88l-35.22-3.11l-5.19,15.54l33.65,1.79L252.16,348.86z"/>
		<path class="st2" d="M233.66,352.2l-28.46-17.33l-17.42-11.66l-11.7,20.04l23.93,7.16L233.66,352.2z"/>
		<path class="st2" d="M200.01,350.41l-21.55-21.05l-20.55,8.42l18.17,5.46L200.01,350.41z"/>
		<path class="st2" d="M337.2,182.16l10.76-26.44l-27.59,15.5L337.2,182.16z"/>
		<path class="st2" d="M240.25,159.1L227,153l8.49,11.54L240.25,159.1z"/>
		<path class="st2" d="M293.36,262.18l5.13-21.64l-11.51,20.47L293.36,262.18z"/>
		<path class="st2" d="M201.92,267.98l-0.74-21.13l-5.74-1.15L201.92,267.98z"/>
		<path class="st2" d="M328.57,169.74l-12.87-22.13l-14.63,14.73L328.57,169.74z"/>
		<path class="st2" d="M374.15,66.67l39.86,16.1l-15.99-16.29L374.15,66.67z"/>
		<path class="st2" d="M408.69,198.3l6.64-13.69l-16.93-8.91L408.69,198.3z"/>
		<path class="st2" d="M189.99,0l-10.32,14.69L172.21,0L189.99,0z"/>
		<path class="st2" d="M345.03,356.34l1.28-27.16l-17.61-2.47L345.03,356.34z"/>
		<path class="st2" d="M259.33,22.6l7.36-15.27h-11.95L259.33,22.6z"/>
	</g>
</g>
</svg>
