<?xml version="1.0" encoding="utf-8"?>
<!-- Generator: Adobe Illustrator 24.1.2, SVG Export Plug-In . SVG Version: 6.00 Build 0)  -->
<svg version="1.1" id="Layer_1" xmlns="http://www.w3.org/2000/svg" xmlns:xlink="http://www.w3.org/1999/xlink" x="0px" y="0px"
	 viewBox="0 0 485.19 117.29" style="enable-background:new 0 0 485.19 117.29;" xml:space="preserve">
<style type="text/css">
	.st0{opacity:0.13;}
	.st1{opacity:0.13;fill:#7ED1E1;enable-background:new    ;}
	.st2{opacity:0.57;}
	.st3{opacity:0.57;fill:url(#SVGID_1_);enable-background:new    ;}
	.st4{opacity:0.57;fill:url(#SVGID_2_);enable-background:new    ;}
	.st5{opacity:0.57;fill:url(#SVGID_3_);enable-background:new    ;}
	.st6{opacity:0.57;fill:url(#SVGID_4_);enable-background:new    ;}
	.st7{fill:url(#SVGID_5_);}
	.st8{fill:url(#SVGID_6_);}
	.st9{fill:url(#SVGID_7_);}
	.st10{fill:url(#SVGID_8_);}
	.st11{fill:url(#SVGID_9_);}
	.st12{fill:url(#SVGID_10_);}
	.st13{fill:url(#SVGID_11_);}
</style>
<g>
	<g class="st0">
		<path class="st1" d="M0.2,72.24c11.23,2.82,22.47-1.26,32.4-5.13c5.55-2.17,11.19-4.35,17.3-5.35c5.76-0.91,11.71-0.62,17.28,0.84
			c10.06,2.57,18.52,7.85,27.62,11.93c9.1,4.08,18.97,6.44,29.54,6.39c10.18-0.05,20.5-2.12,29.18-6.36
			c7.58-3.71,13.45-9.09,18.72-14.67c5.51-5.83,10.44-12.03,16.8-17.33c6.6-5.49,14.63-9.33,24.12-10.77
			c5.63-0.85,11.65-0.93,17.17,0.41c4.14,1.01,7.32,2.98,10.7,5c6.17,3.67,12.43,7.22,18.84,10.62
			c14.76,7.83,30.75,15.68,48.1,19.34c6.39,1.35,12.82,1.8,19.34,0.83c5.69-0.86,11.12-2.57,16.26-4.65
			c10.66-4.33,20.1-10.2,30.33-15.06c9.74-4.61,20.71-8.37,32.33-7.07c16.38,1.83,29.34,12.16,39.29,21.75
			c4.01,3.87,7.73,7.9,11.29,12.03c0.21,0.24,0.7,0,0.5-0.23c-6.4-7.41-13.33-14.64-21.53-20.9c-5.57-4.26-11.83-8.15-18.97-10.66
			c-10.53-3.7-21.69-3.28-32.21,0.19c-10.99,3.63-20.52,9.49-30.47,14.53c-9.96,5.05-21.37,10.09-33.63,10.21
			c-7.96,0.08-15.88-1.97-23.16-4.33c-8.76-2.83-17.11-6.44-25.19-10.31c-7.61-3.65-15-7.58-22.23-11.68
			c-2.89-1.64-5.76-3.31-8.61-5.01c-3.03-1.8-5.93-3.65-9.55-4.69c-9.12-2.64-20.11-1.4-28.77,1.73
			c-8.02,2.89-14.29,7.88-19.66,13.27c-5.63,5.66-10.46,11.8-16.35,17.3c-6.67,6.24-14.7,11.14-24.64,13.72
			c-10.77,2.82-22.36,3.07-33.32,0.74c-10.62-2.32-19.45-7.58-28.81-11.91c-8.58-3.97-18-7.09-28.17-5.97
			c-11.95,1.31-21.73,7.42-33.03,10.23c-6.08,1.52-12.5,2.12-18.67,0.57C0,71.71-0.15,72.16,0.2,72.24L0.2,72.24z"/>
		<path class="st1" d="M2.04,73.55c9.57,2.38,19.47-0.87,27.92-4.33c9.39-3.83,18.94-8.25,29.91-7.8
			c9.52,0.39,18.02,4.14,26.07,7.82c8.05,3.68,16.22,7.44,25.51,9.05c18.45,3.21,38.62-0.44,52.47-10.69
			c11.22-8.3,18.31-19.61,30.5-27.15c7.63-4.68,16.97-7.32,26.65-7.53c5.59-0.13,11.37,0.66,16.2,2.97
			c2.95,1.42,5.72,3.11,8.57,4.65c15.81,8.52,32.21,16.73,49.8,22.79c8.78,3.02,18.58,5.93,28.34,5.44
			c9.76-0.49,18.84-3.73,27.24-7.49c10.82-4.87,20.83-10.83,31.98-15.25c9.32-3.69,19.63-5.92,30.02-4
			c14.46,2.66,25.84,11.7,34.86,20.46c3.5,3.39,6.75,6.93,9.87,10.54c0.21,0.24,0.71,0,0.5-0.23c-9.32-10.8-20.41-22.23-35.49-28.37
			c-9.11-3.77-19.75-4.55-29.59-2.17c-27.54,6.5-49.17,30.59-80.35,25.27c-10.63-1.8-20.68-5.64-30.25-9.63
			c-8.86-3.7-17.46-7.8-25.87-12.09c-6.52-3.33-12.72-7.15-19.36-10.31c-8.35-3.97-19.05-3.61-28.14-1.59
			c-15.62,3.48-24.99,13.49-34.46,23.1c-4.94,5.02-10.18,9.96-16.72,13.75c-8.47,4.91-18.91,7.51-29.36,8.06
			c-10.91,0.58-21.81-1.19-31.54-5.11c-8.15-3.22-15.63-7.4-24.04-10.16c-8.41-2.76-17.17-3.41-25.93-1.22
			c-10.14,2.53-18.75,7.78-28.88,10.3c-5.33,1.32-10.9,1.83-16.31,0.49C1.83,73.03,1.68,73.47,2.04,73.55L2.04,73.55z"/>
		<path class="st1" d="M3.87,75.3c9.19,2.27,18.65-1.26,26.56-4.69c9.14-3.97,18.43-8.57,29.23-8.64c9.4-0.06,17.98,3.23,26.09,6.62
			c8.18,3.43,16.28,6.98,25.42,8.56c18.16,3.14,38.34,0.13,52.68-9.38c11.56-7.68,19.03-18.57,31.36-25.59
			c7.71-4.33,16.87-6.79,26.35-7.06c5.35-0.17,10.83,0.44,15.65,2.35c3.18,1.25,6.12,2.96,9.12,4.45
			c15.62,7.76,31.64,15.25,48.52,21.23c8.73,3.1,18.23,6.14,27.96,6.36c9.57,0.22,18.84-2.64,27.2-6.04
			c11.73-4.77,22.46-10.88,34.14-15.7c9.44-3.9,19.95-6.8,30.74-5.33c14.15,1.92,25.41,10.29,34.24,18.65
			c3.51,3.33,6.76,6.83,9.85,10.41c0.21,0.24,0.7,0,0.5-0.23c-8.98-10.4-19.89-21.49-34.82-26.88c-9.65-3.48-20.03-3.48-29.97-0.78
			c-10.29,2.79-19.46,7.63-28.68,12.08c-7.81,3.76-15.72,7.58-24.23,10.28c-4.8,1.58-9.87,2.58-15.04,2.98
			c-5,0.34-9.96-0.26-14.79-1.28c-10.24-2.17-19.95-5.89-29.33-9.71c-8.73-3.55-17.27-7.41-25.68-11.42
			c-3.46-1.65-6.9-3.33-10.32-5.02c-2.9-1.44-5.74-3.07-8.78-4.33c-8.63-3.53-19.17-3.03-28.28-1
			c-15.24,3.4-24.71,12.72-34.52,21.82c-5.05,4.69-10.41,9.2-16.96,12.59c-8.68,4.5-19.11,6.77-29.44,7.19
			c-10.83,0.44-21.63-1.28-31.39-5c-8.04-3.02-15.6-6.89-24-9.28c-8.64-2.45-17.46-2.58-26.12-0.05
			c-9.69,2.83-17.94,8.01-27.71,10.69c-4.99,1.37-10.27,1.99-15.4,0.72C3.67,74.77,3.52,75.22,3.87,75.3L3.87,75.3z"/>
		<path class="st1" d="M5.71,77.05c8.77,2.17,17.8-1.62,25.18-5.02c8.79-4.05,17.69-8.75,28.13-9.42c9.4-0.6,18.19,2.23,26.48,5.37
			c8.28,3.14,16.39,6.5,25.43,8.03c17.75,3.01,37.77,0.65,52.51-7.97c11.76-6.88,19.61-17.08,31.67-23.67
			c7.51-4.04,16.23-6.45,25.3-7.01c5.37-0.36,10.85-0.03,15.93,1.46c3.56,1.05,6.8,2.77,10.11,4.26
			c15.75,7.17,31.7,14.14,48.32,20.04c8.52,3.03,17.46,6.05,26.84,6.86c9.12,0.8,18.14-1.3,26.37-4.21
			c12.95-4.58,24.66-10.95,37.14-16.25c9.39-4,19.8-7.45,30.72-6.71c14.35,0.97,25.92,8.98,34.8,17.28c3.34,3.16,6.48,6.45,9.4,9.87
			c0.21,0.24,0.7,0,0.5-0.23c-8.63-9.98-19.3-20.59-33.94-25.3c-9.99-3.21-20.59-2.48-30.48,0.52c-10.57,3.21-20.07,8.24-29.82,12.7
			c-8.32,3.78-16.85,7.66-26.04,10.04c-4.78,1.24-9.8,2.06-14.85,2.04c-4.8,0-9.56-0.86-14.13-1.97
			c-10.04-2.43-19.61-6.11-28.98-9.81c-8.38-3.3-16.63-6.8-24.81-10.41c-3.52-1.56-7.02-3.14-10.51-4.72
			c-2.96-1.35-5.88-2.89-9.02-3.97c-8.91-3.05-19.28-2.41-28.42-0.36c-7.16,1.66-13.77,4.51-19.4,8.35
			c-5.51,3.71-10.22,8.09-15.16,12.25c-5.39,4.52-11.16,8.73-18.03,11.73c-8.78,3.84-18.92,5.67-28.92,5.92
			c-10.63,0.25-21.2-1.41-30.88-4.87c-8.1-2.83-15.82-6.46-24.35-8.45c-8.73-2.04-17.46-1.57-25.88,1.21
			c-9.25,3.07-17.16,8.21-26.55,11.05c-4.66,1.41-9.65,2.14-14.51,0.95C5.5,76.53,5.35,76.98,5.71,77.05z"/>
		<path class="st1" d="M7.54,78.8c8.62,2.1,17.46-2.17,24.5-5.65c8.22-4.05,16.54-8.57,26.33-9.79c9.44-1.18,18.54,1.23,27.11,4.13
			c8.39,2.84,16.61,6.01,25.62,7.46c17.34,2.79,36.87,0.91,51.89-6.74c12.08-6.16,20.4-15.81,32.48-21.95
			c7.56-3.77,16.16-6.07,25.08-6.7c5.25-0.4,10.59-0.22,15.66,1c3.79,0.91,7.22,2.53,10.71,3.97c15.49,6.42,31.08,12.71,47.05,18.37
			c8.73,3.1,17.82,6.48,27.37,7.64c8.77,1.08,17.74-0.66,25.88-3.16c13.64-4.18,25.93-10.47,38.67-16.01
			c9.65-4.21,20.27-8.26,31.59-8.07c14.01,0.23,25.47,7.39,34.26,15.37c3.36,3.09,6.48,6.33,9.36,9.71c0.21,0.24,0.7,0,0.5-0.23
			c-8.35-9.66-18.93-19.94-33.52-23.82c-10.25-2.74-20.88-1.23-30.63,2.01c-10.95,3.64-20.87,8.93-31.29,13.38
			c-8.76,3.75-17.86,7.44-27.57,9.39c-4.65,0.94-9.56,1.54-14.37,1.24c-4.81-0.3-9.5-1.37-14.02-2.63
			c-9.62-2.69-18.91-6.19-28.1-9.66c-8.27-3.13-16.47-6.37-24.62-9.69c-3.44-1.4-6.88-2.81-10.3-4.23
			c-2.95-1.22-5.87-2.59-9.01-3.51c-8.96-2.63-19.04-1.92-28.1,0.03c-7.12,1.56-13.77,4.23-19.56,7.85
			c-5.51,3.41-10.31,7.48-15.36,11.3c-5.65,4.27-11.76,8.18-18.87,10.85c-8.84,3.33-18.74,4.85-28.49,5.01
			c-10.18,0.16-20.29-1.32-29.72-4.33c-8.4-2.65-16.48-6.16-25.34-7.83c-8.13-1.54-16.67-0.92-24.3,1.76
			c-9.19,3.13-16.92,8.36-26.04,11.6c-4.63,1.65-9.72,2.74-14.7,1.52c-0.35-0.09-0.5,0.36-0.15,0.44L7.54,78.8z"/>
		<path class="st1" d="M9.38,80.55c8.34,2.01,16.89-2.64,23.48-6.08c7.74-4.06,15.54-8.49,24.75-10.2
			c18.72-3.48,35.54,6.86,53.25,9.59c17.04,2.64,36.17,1.19,51.49-5.52c12.28-5.38,21.08-14.3,33.04-20
			c7.42-3.54,15.84-5.63,24.44-6.46c5.13-0.5,10.38-0.51,15.44,0.36c4.03,0.7,7.66,2.09,11.35,3.48
			c15.43,5.78,30.9,11.5,46.52,16.96c8.5,2.96,17.09,6.2,26.15,7.94c8.47,1.63,17,0.8,25.25-1.21c14.62-3.56,27.91-9.85,41.14-15.73
			c10.07-4.48,20.94-9.21,32.74-9.79c13.99-0.68,25.66,5.66,34.6,13.56c3.32,2.97,6.38,6.1,9.19,9.38c0.21,0.24,0.71,0,0.5-0.23
			c-8.12-9.38-18.68-19.34-33.27-22.35c-10.65-2.2-21.41,0.17-31.13,3.7c-11.35,4.13-21.78,9.65-32.98,14.03
			c-9.11,3.56-18.54,7.06-28.63,8.48c-4.88,0.69-9.8,0.87-14.7,0.15c-4.68-0.7-9.21-1.95-13.63-3.32
			c-17.49-5.41-34.5-11.94-51.5-18.25c-6.34-2.36-12.77-5.37-19.55-6.86c-8.9-1.96-18.56-1.13-27.38,0.77
			c-7.11,1.55-13.8,4.12-19.72,7.58c-5.36,3.11-10.13,6.77-15.19,10.16c-6.03,4.04-12.57,7.58-19.96,9.88
			c-8.83,2.77-18.43,3.97-27.91,4.02c-10.07,0.01-20.06-1.43-29.47-4.24c-8.24-2.4-16.29-5.49-25-6.73
			c-8.48-1.21-16.69-0.09-24.4,2.86c-8.67,3.31-15.98,8.38-24.56,11.78C19.34,80,14.41,81.3,9.53,80.12
			C9.18,80.03,9.02,80.48,9.38,80.55L9.38,80.55z"/>
		<path class="st1" d="M11.21,82.3c7.67,1.84,15.52-2.68,21.44-5.93c7.66-4.21,15.2-8.86,24.25-11.08
			c18.48-4.54,35.64,4.74,53.33,7.42c16.76,2.55,35.45,1.51,51.04-4.23c12.41-4.57,21.7-12.59,33.47-17.92
			c7.28-3.29,15.36-5.31,23.65-6.29c5.36-0.64,10.85-0.86,16.22-0.18c4.29,0.55,8.2,1.75,12.18,3.09
			c15.42,5.16,30.82,10.35,46.22,15.54c8.32,2.8,16.6,5.88,25.3,7.88c8.03,1.91,16.57,2.08,24.72,0.49
			c8.94-1.73,17.46-4.89,25.73-8.03c5.86-2.23,11.52-4.76,17.19-7.28c10.47-4.66,21.46-9.85,33.58-11.19
			c13.88-1.53,25.73,3.87,34.87,11.72c3.22,2.82,6.19,5.82,8.87,8.97c0.21,0.24,0.7,0,0.5-0.23c-7.87-9.08-18.33-18.56-32.76-20.74
			c-11.1-1.68-22.08,1.5-31.89,5.34c-12.07,4.72-23.43,10.43-35.68,14.86c-9.19,3.32-18.77,6.63-28.95,7.22
			c-9.33,0.52-18.24-1.86-26.77-4.58c-17-5.41-33.71-11.33-50.54-16.99c-6.58-2.21-13.29-5.02-20.32-6.2
			c-8.91-1.5-18.38-0.56-27.07,1.28c-7.12,1.52-13.86,3.97-19.93,7.25c-5.41,2.89-10.34,6.31-15.62,9.35
			c-6.27,3.61-13.05,6.6-20.46,8.51c-8.89,2.29-18.32,3.23-27.66,3.14c-9.92-0.09-19.45-1.58-28.83-4.07
			c-8.11-2.17-16.14-4.82-24.7-5.64c-8.73-0.84-17.04,0.83-24.7,4.13C39.62,71.46,32.61,76.54,24.32,80
			c-3.96,1.66-8.44,2.95-12.91,1.87c-0.35-0.09-0.51,0.36-0.15,0.43L11.21,82.3z"/>
		<path class="st1" d="M13.05,84.05c7.28,1.74,14.74-2.98,20.18-6.14c7.4-4.31,14.65-9.02,23.38-11.6
			c18.07-5.37,35.39,2.69,52.99,5.27c17,2.49,35.84,1.66,51.92-3.57c12.27-3.97,22-11.1,33.72-15.82c7.41-2.99,15.48-4.79,23.7-5.75
			c5.11-0.6,10.33-0.86,15.47-0.36c4.37,0.41,8.46,1.44,12.56,2.65c15.38,4.56,30.73,9.19,45.95,14.11
			c8.7,2.81,17.27,6.04,26.27,8.23c7.92,1.93,15.81,2.41,23.97,1.11c8.93-1.44,17.41-4.39,25.7-7.28c6.2-2.17,12.16-4.72,18.07-7.33
			c10.89-4.79,22.06-10.34,34.46-12.27c5.61-0.87,11.41-0.81,16.88,0.57c6.81,1.71,12.59,5.23,17.46,9.27
			c3.15,2.68,6.02,5.55,8.6,8.59c0.21,0.24,0.7,0,0.5-0.23c-7.54-8.7-17.71-17.51-31.7-19.02c-11.53-1.25-22.76,2.63-32.74,6.72
			c-12.55,5.16-24.53,10.89-37.6,15.26c-8.78,2.93-17.97,5.73-27.61,6.04c-9.29,0.29-18.14-2.26-26.6-4.99
			c-16.65-5.38-33.25-10.79-50.08-15.85c-7.01-2.1-14.14-4.74-21.56-5.78c-8.96-1.24-18.38-0.23-27.11,1.52
			c-6.92,1.39-13.53,3.57-19.64,6.48c-5.51,2.61-10.57,5.69-16.01,8.39c-14.57,7.26-31.25,10.35-48.43,10.11
			c-9.9-0.14-19.45-1.59-28.91-3.82c-8.18-1.94-16.39-4.27-25.01-4.59c-8.61-0.32-16.73,1.8-24.1,5.27
			C39.76,73,33.01,78.17,24.91,81.74c-3.56,1.57-7.62,2.84-11.71,1.87c-0.07-0.01-0.14,0-0.2,0.03c-0.06,0.03-0.1,0.08-0.12,0.13
			c-0.02,0.05-0.01,0.11,0.02,0.16C12.93,83.99,12.98,84.03,13.05,84.05z"/>
		<path class="st1" d="M14.88,85.79c6.57,1.56,13.24-2.84,18.03-5.78c7.21-4.4,14.12-9.2,22.46-12.27
			c8.73-3.23,18.04-3.54,27.42-2.12c8.82,1.34,17.35,3.65,26.19,4.88c16.9,2.34,35.28,1.74,51.6-2.64
			c6.34-1.76,12.44-4.01,18.22-6.72c5.4-2.47,10.69-5.1,16.39-7.15c15.9-5.7,35.06-8.07,51.86-3.7
			c15.45,4.01,30.87,8.11,46.03,12.76c16.11,4.94,32.21,12.38,50.08,10.14c9.16-1.14,17.87-3.97,26.39-6.76
			c6.24-2.09,12.32-4.45,18.22-7.07c11.34-4.92,22.68-10.81,35.38-13.36c5.58-1.12,11.43-1.41,17.04-0.26
			c6.52,1.34,12.13,4.47,16.77,8.19c3.1,2.54,5.92,5.3,8.4,8.23c0.21,0.24,0.7,0,0.49-0.23c-7.27-8.38-17.2-16.5-30.81-17.33
			c-11.7-0.7-22.97,3.72-32.97,7.96c-6.07,2.57-12.01,5.32-18.08,7.88c-7.09,2.96-14.4,5.58-21.89,7.84
			c-8.57,2.62-17.56,4.98-26.86,4.93c-9.4-0.05-18.33-2.93-26.87-5.74c-16.33-5.36-32.9-10.18-49.69-14.63
			c-7.07-1.87-14.24-4.15-21.64-4.96c-9.02-0.98-18.32,0.04-27.11,1.69c-6.9,1.29-13.56,3.26-19.81,5.88
			c-5.51,2.3-10.7,5-16.19,7.31c-15.2,6.38-32.16,8.89-49.3,8.49c-9.76-0.23-19.17-1.63-28.58-3.58
			c-8.15-1.68-16.43-3.57-24.93-3.39c-8.51,0.18-16.35,2.7-23.43,6.34c-7.58,3.89-14.03,9.02-21.78,12.72
			c-3.25,1.54-7.05,2.91-10.89,2c-0.07-0.02-0.15-0.01-0.22,0.02s-0.11,0.08-0.13,0.14c-0.02,0.06-0.01,0.12,0.03,0.17
			C14.74,85.74,14.8,85.78,14.88,85.79L14.88,85.79z"/>
		<path class="st1" d="M16.72,87.54c6.11,1.44,12.28-2.95,16.6-5.73c7.05-4.54,13.76-9.48,21.88-12.86
			c8.23-3.43,17.13-4.45,26.33-3.59s18.12,3.01,27.27,4.14c16.93,2.09,34.97,1.66,51.5-2.06c6.48-1.51,12.79-3.45,18.84-5.82
			c5.62-2.15,11.14-4.45,17-6.2c16.31-4.9,34.98-7.07,51.92-3.25c15.28,3.44,30.54,6.95,45.47,11.26
			c16.04,4.63,32.08,12.4,49.77,10.76c8.69-0.8,17-3.21,25.14-5.64c6.81-2.06,13.45-4.46,19.86-7.2
			c11.81-5.01,23.28-11.16,36.15-14.41c5.54-1.4,11.45-2.14,17.24-1.32c6.4,0.91,11.99,3.66,16.6,7.2c3.04,2.39,5.77,5.01,8.15,7.83
			c0.21,0.24,0.71,0,0.5-0.23c-7.12-8.2-17-15.63-30.4-15.59c-12.02,0.03-23.35,5.07-33.54,9.55c-6.17,2.72-12.3,5.54-18.61,8.11
			c-7.5,2.99-15.25,5.56-23.21,7.7c-8.27,2.28-16.97,4.16-25.83,3.78c-9.65-0.42-18.81-3.67-27.6-6.59
			c-15.6-5.18-31.7-9.26-47.94-12.99c-7.03-1.62-14.14-3.57-21.43-4.31c-9.21-0.93-18.6,0.07-27.64,1.57
			c-6.88,1.13-13.58,2.83-19.99,5.08c-5.51,1.95-10.84,4.24-16.38,6.19c-15.76,5.55-32.82,7.71-50.03,7.29
			c-9.62-0.24-18.97-1.51-28.35-3.13c-8.27-1.44-16.7-2.94-25.22-2.32s-16.16,3.51-23.07,7.36c-7.2,4-13.33,9.14-20.73,12.91
			c-2.97,1.51-6.51,2.97-10.11,2.12c-0.07-0.02-0.15-0.01-0.22,0.02c-0.07,0.03-0.12,0.08-0.14,0.14c-0.02,0.06-0.01,0.12,0.03,0.17
			c0.04,0.05,0.1,0.09,0.17,0.11V87.54z"/>
		<path class="st1" d="M18.55,89.3c5.76,1.34,11.63-3.21,15.53-5.88c6.86-4.69,13.39-9.75,21.3-13.36
			c7.98-3.67,16.73-5.15,25.93-4.73c9.04,0.42,17.92,2.17,26.85,3.16c17,1.87,34.76,1.57,51.51-1.48
			c12.56-2.29,24.01-6.75,36.21-9.85c7.56-1.87,15.32-3.22,23.18-4.04c10.03-1.1,19.68-1.08,29.56,0.8
			c15.22,2.91,30.44,5.87,45.27,9.85c8.45,2.27,16.54,5.16,24.86,7.7c7.85,2.4,15.81,4.1,24.3,3.65c8.63-0.46,17-2.58,25.09-4.82
			c7.25-1.98,14.3-4.38,21.1-7.18c12.3-5.08,23.95-11.49,37.01-15.36c5.39-1.59,11.17-2.69,16.95-2.26
			c6.29,0.47,11.91,2.84,16.48,6.19c2.96,2.23,5.6,4.71,7.87,7.39c0.21,0.24,0.7,0,0.5-0.23c-6.93-7.97-16.62-14.55-29.59-13.82
			c-12.35,0.7-23.75,6.27-34.23,10.99c-6.4,2.89-12.78,5.79-19.4,8.37c-7.75,2.94-15.77,5.4-24.01,7.36
			c-8.27,2.03-16.97,3.56-25.69,2.81c-9.43-0.81-18.31-4.14-26.95-7c-15.5-5.13-31.77-8.66-48.06-11.88
			c-7.42-1.46-14.9-3.19-22.55-3.7c-9.13-0.61-18.47,0.49-27.42,1.85c-6.82,1.03-13.51,2.5-20.01,4.41
			c-5.55,1.64-10.98,3.5-16.54,5.05c-16.08,4.47-32.93,6.22-49.95,5.78c-9.69-0.26-19.15-1.47-28.68-2.78
			c-7.91-1.08-15.99-2.05-24-1.12c-8.52,0.99-16.08,4.17-22.88,8.22c-6.95,4.13-12.87,9.33-20,13.25c-2.69,1.48-5.97,3.02-9.37,2.23
			c-0.07-0.01-0.14,0-0.2,0.03c-0.06,0.03-0.1,0.08-0.12,0.13c-0.02,0.05-0.01,0.11,0.02,0.16c0.03,0.05,0.09,0.09,0.16,0.11
			L18.55,89.3z"/>
		<path class="st1" d="M20.39,91.04c5.59,1.29,11.35-3.7,14.93-6.32c6.77-4.96,13.3-10.18,21.26-14c7.62-3.65,16.41-5.51,25.34-5.37
			c8.73,0.07,17.39,1.41,26.06,2.2c17.54,1.61,35.61,1.35,52.96-1.36c12.47-1.94,24.35-5.45,36.68-7.81
			c8.14-1.52,16.4-2.64,24.72-3.35c9.47-0.87,19.06-0.55,28.4,0.96c15.73,2.49,31.49,5.05,46.74,9.02
			c16.14,4.21,31.45,12.05,49.06,10.83c8.58-0.59,16.89-2.65,25.02-4.78c7.19-1.91,14.16-4.27,20.86-7.07
			c12.3-5.1,23.87-11.55,36.76-15.7c5.17-1.67,10.73-2.95,16.38-2.76c5.97,0.19,11.38,2.2,15.78,5.3c2.75,2,5.19,4.26,7.26,6.72
			c0.21,0.24,0.7,0,0.5-0.23c-6.6-7.58-15.88-13.24-28.1-12.09c-12.22,1.15-23.35,6.89-33.71,11.64
			c-6.34,2.89-12.69,5.82-19.27,8.38c-7.67,2.98-15.65,5.24-23.84,7.18c-8.31,1.97-16.97,3.54-25.73,3
			c-9.43-0.58-18.26-3.82-26.86-6.67c-15.62-5.19-32.01-8.5-48.58-11.25c-7.35-1.23-14.83-2.67-22.33-3.25
			c-9.4-0.74-18.88,0.24-28.17,1.38c-7.02,0.84-13.98,2.01-20.82,3.52c-5.7,1.26-11.32,2.73-17,3.97
			c-16.42,3.61-33.44,5.25-50.48,4.88c-9.36-0.19-18.55-1.13-27.82-2.1c-8.02-0.84-16.2-1.53-24.22-0.41
			c-8.27,1.16-15.62,4.31-22.24,8.32c-7.09,4.31-12.99,9.67-20,14.03c-2.55,1.59-5.94,3.56-9.38,2.76
			c-0.04-0.01-0.07-0.01-0.11-0.01c-0.04,0-0.07,0.01-0.11,0.03c-0.03,0.01-0.06,0.03-0.08,0.06c-0.02,0.02-0.04,0.05-0.05,0.08
			c-0.01,0.03-0.01,0.06-0.01,0.09c0,0.03,0.02,0.06,0.04,0.08c0.02,0.03,0.04,0.05,0.07,0.07c0.03,0.02,0.06,0.03,0.1,0.04H20.39z"
			/>
		<path class="st1" d="M22.23,92.79c2.17,0.49,4.25-0.21,6.08-1.12c3.13-1.56,5.78-3.71,8.39-5.78c6.54-5.11,12.94-10.4,20.74-14.37
			c7.48-3.8,16.14-5.92,25.05-6.14c8.85-0.26,17.67,0.76,26.47,1.36c17.51,1.18,35.28,0.93,52.65-1.24
			c12.6-1.58,24.97-4.06,37.54-5.78c8.27-1.12,16.6-1.99,24.95-2.65c9.78-0.77,19.1-0.36,28.79,0.89c16,2.03,32.08,4.11,47.53,8.05
			c8.68,2.21,16.83,5.41,25.38,7.87c7.94,2.29,15.92,3.34,24.35,2.64c8.77-0.72,17.38-2.77,25.73-4.92
			c6.9-1.84,13.59-4.14,19.98-6.88c12.14-5.09,23.47-11.45,36.03-15.88c5.05-1.8,10.57-3.3,16.17-3.35
			c5.55-0.02,10.91,1.58,15.04,4.49c2.5,1.78,4.71,3.79,6.56,6.01c0.21,0.24,0.71,0,0.5-0.23c-3.24-3.73-7.25-7.22-12.54-9.14
			c-4.24-1.55-8.93-1.87-13.52-1.32c-12.04,1.44-22.97,7.33-33.22,12.13c-6.35,2.98-12.72,5.94-19.34,8.55
			c-7.5,2.89-15.31,5.25-23.35,7.04c-8.56,1.96-17.46,3.65-26.43,3.27c-9.62-0.41-18.51-3.58-27.24-6.5
			c-15.76-5.27-32.21-8.34-49.06-10.64c-7.46-1.02-14.98-2.17-22.52-2.73c-9.82-0.74-19.63,0.2-29.37,1.18
			c-12.82,1.29-25.35,3.4-38,5.41c-16.68,2.66-33.35,4.16-50.39,3.92c-9.41-0.13-18.72-0.87-28.09-1.54
			c-8.14-0.58-16.43-0.92-24.46,0.51c-8.27,1.47-15.55,4.86-22.06,9.02c-6.97,4.49-12.71,9.99-19.55,14.56
			c-2.27,1.52-5.44,3.59-8.64,2.86c-0.07-0.02-0.15-0.01-0.22,0.02c-0.07,0.03-0.11,0.08-0.13,0.14c-0.02,0.06-0.01,0.12,0.03,0.17
			C22.1,92.74,22.16,92.78,22.23,92.79L22.23,92.79z"/>
		<path class="st1" d="M24.06,94.54c2.05,0.46,4-0.31,5.66-1.22c2.87-1.58,5.3-3.67,7.69-5.66c6.48-5.37,12.81-10.88,20.58-15.13
			c7.32-4.03,15.86-6.47,24.76-7.1c8.78-0.64,17.62,0.03,26.39,0.43c18.09,0.83,36.24,0.6,54.22-1.16
			c12.61-1.23,25.2-2.53,37.83-3.58c8.38-0.7,16.76-1.44,25.16-2c9.45-0.63,18.6-0.21,27.99,0.7c16.54,1.6,33.28,3.19,49.21,7.22
			c8.79,2.23,17,5.61,25.7,8.02c7.76,2.2,16.07,2.95,24.27,2.2c15.93-1.44,31.62-5.8,45.69-11.77c12.1-5.14,23.32-11.55,35.69-16.29
			c9.5-3.64,20.72-6.04,29.7-0.23c2.37,1.58,4.44,3.42,6.15,5.46c0.21,0.24,0.71,0,0.5-0.23c-2.94-3.37-6.62-6.5-11.49-8.1
			c-4.19-1.39-8.78-1.44-13.18-0.72c-11.86,1.94-22.52,7.97-32.66,12.85c-13.33,6.41-26.77,12.13-41.9,15.46
			c-8.69,1.92-17.67,3.61-26.76,3.42c-9.59-0.21-18.38-3.12-27.07-6.06c-8.19-2.77-16.39-5.14-25.07-6.78
			c-8.23-1.55-16.6-2.64-24.98-3.54c-7.75-0.84-15.55-1.72-23.35-2.22c-9.73-0.62-19.36,0.19-29.03,0.96
			c-13.17,1.05-26.33,2.17-39.46,3.46c-16.84,1.67-33.51,3.06-50.54,2.91c-9.46-0.08-18.87-0.64-28.31-0.99
			c-8.14-0.3-16.41-0.27-24.32,1.44c-8.35,1.83-15.62,5.5-22.12,9.95c-6.73,4.62-12.26,10.16-18.84,14.89
			c-2,1.44-4.96,3.61-7.95,2.94c-0.07-0.01-0.14,0-0.2,0.03c-0.06,0.03-0.1,0.08-0.12,0.13c-0.02,0.05-0.01,0.11,0.02,0.16
			c0.03,0.05,0.09,0.09,0.16,0.11L24.06,94.54z"/>
		<path class="st1" d="M25.9,96.29c1.91,0.43,3.71-0.41,5.19-1.29c2.8-1.68,5.14-3.86,7.46-5.91c6.32-5.6,12.6-11.27,20.3-15.74
			c7.13-4.15,15.45-6.85,24.22-7.86c8.8-1.03,17.78-0.68,26.65-0.48c18.3,0.48,36.61,0.14,54.86-1c12.72-0.83,25.45-0.89,38.19-1.36
			c8.73-0.32,17.41-0.99,26.13-1.48c9.43-0.53,18.66-0.07,28.06,0.56c16.92,1.12,34.18,2.24,50.39,6.5
			c8.89,2.34,17.16,5.94,26.09,8.21c7.88,2,15.92,2.37,24.1,1.54c16.04-1.61,31.43-5.78,45.55-11.91
			c11.86-5.15,22.82-11.53,34.81-16.49c8.52-3.53,19.3-6.8,27.98-1.74c2.32,1.42,4.32,3.12,5.94,5.05c0.21,0.23,0.71,0,0.5-0.23
			c-2.68-3.07-6.09-5.84-10.63-7.14c-4.03-1.16-8.41-0.95-12.51-0.1c-11.56,2.39-21.83,8.46-31.8,13.39
			c-12.8,6.33-25.99,12.34-40.69,15.48c-8.91,1.9-18.09,3.67-27.39,3.68c-9.65,0.02-18.38-2.53-27.15-5.5
			c-8.24-2.79-16.36-5.38-25.09-6.97c-8.42-1.54-17-2.47-25.6-3.18c-7.98-0.66-15.99-1.23-24-1.66c-9.91-0.53-19.65,0.16-29.52,0.77
			c-13.33,0.83-26.63,0.91-39.98,1.41c-7.53,0.29-15.03,0.87-22.55,1.26c-9.55,0.5-19.11,0.73-28.69,0.69
			c-9.65-0.03-19.3-0.41-28.95-0.43c-8.15,0-16.38,0.39-24.16,2.4c-8.18,2.11-15.31,5.93-21.62,10.47
			c-6.65,4.79-12.07,10.47-18.45,15.44c-1.8,1.4-4.64,3.82-7.5,3.19c-0.07-0.02-0.15-0.01-0.22,0.02c-0.07,0.03-0.11,0.08-0.13,0.14
			c-0.02,0.06-0.01,0.12,0.03,0.17c0.04,0.05,0.1,0.09,0.17,0.11L25.9,96.29z"/>
		<path class="st1" d="M27.73,98.04c1.74,0.38,3.34-0.45,4.64-1.28c2.78-1.78,5.05-4.09,7.35-6.24c6.02-5.68,12.08-11.37,19.48-16
			c7.14-4.5,15.54-7.61,24.5-9.06c8.87-1.44,18-1.44,27.01-1.3c9.91,0.15,19.87,0.15,29.77-0.16c8.32-0.26,16.69-0.95,25.02-0.64
			c12.77,0.48,25.46,1.44,38.26,1.16c8.99-0.19,17.92-0.78,26.9-1.23c9.38-0.47,18.68-0.12,28.05,0.23
			c17.3,0.64,35.16,1.2,51.68,5.7c9,2.45,17.34,6.21,26.48,8.37c8.07,1.91,16.41,2.03,24.72,1.14c15.85-1.69,31.13-5.75,45.03-11.97
			c11.73-5.21,22.52-11.62,34.21-16.86c7.76-3.47,18.34-7.58,26.74-2.98c2.1,1.21,3.9,2.71,5.32,4.42c0.21,0.24,0.7,0,0.5-0.23
			c-2.43-2.78-5.59-5.22-9.79-6.21c-3.9-0.92-8.05-0.44-11.86,0.52c-11.26,2.85-21.16,8.96-30.97,13.97
			c-12.51,6.4-25.6,12.53-40.08,15.7c-9.12,2-18.71,3.66-28.21,3.75c-9.65,0.09-18.4-2.22-27.17-5.21
			c-8.35-2.85-16.48-5.63-25.41-7.18c-8.44-1.47-17.08-2.22-25.69-2.71c-8.29-0.47-16.62-0.76-24.92-1.05
			c-10.05-0.36-19.96,0.24-29.97,0.76c-13.56,0.72-27.16,0.74-40.72,0.07c-7.43-0.36-14.83-0.83-22.29-0.6
			c-9.53,0.3-19.03,0.72-28.58,0.79c-9.74,0.06-19.5-0.26-29.23,0c-8.17,0.22-16.38,1.05-24.06,3.35
			c-8.13,2.43-15.2,6.4-21.45,11.11c-6.64,5.01-11.99,10.88-18.26,16.16c-1.55,1.31-4.22,3.84-6.85,3.25
			c-0.07-0.02-0.15-0.01-0.22,0.02c-0.07,0.03-0.11,0.08-0.13,0.14c-0.02,0.06-0.01,0.12,0.03,0.17c0.04,0.05,0.1,0.09,0.17,0.11
			L27.73,98.04z"/>
		<path class="st1" d="M29.56,99.79c1.69,0.36,3.22-0.62,4.38-1.44c2.62-1.87,4.75-4.2,6.92-6.38c5.88-5.9,11.87-11.76,19.2-16.6
			c7.01-4.68,15.3-8.03,24.22-9.79c8.81-1.73,17.95-2.08,26.99-2.27c10.21-0.21,20.43-0.13,30.64-0.4
			c8.5-0.22,17.05-0.72,25.53-0.07c12.94,1.01,25.73,3.1,38.75,3.3c9.19,0.14,18.3-0.4,27.45-0.79c5.08-0.22,10.11-0.11,15.16-0.07
			c4.19,0.03,8.36-0.27,12.55-0.36c17.35-0.36,35.61,0.49,52.03,5.28c9.19,2.68,17.77,6.61,27.27,8.62
			c7.91,1.67,16.12,1.63,24.2,0.78c8.52-0.89,17.12-2.32,25.21-4.62c6.95-2.03,13.66-4.55,20.04-7.51
			c11.67-5.32,22.33-11.82,33.81-17.35c6.97-3.36,17.28-8.21,25.32-4.13c1.89,1.01,3.5,2.31,4.74,3.82c0.21,0.24,0.71,0,0.5-0.23
			c-2.19-2.5-5.1-4.63-8.97-5.31c-3.86-0.69-7.81,0.08-11.4,1.18c-10.95,3.38-20.52,9.54-30.2,14.65
			c-12.46,6.57-25.55,12.77-40.09,16.01c-9.03,2.01-18.64,3.48-28.03,3.63c-9.56,0.16-18.25-1.84-26.95-4.81
			c-8.42-2.89-16.59-5.91-25.57-7.58c-8.57-1.6-17.38-2.4-26.17-2.74c-8.36-0.33-16.63,0-24.98,0.21
			c-5.05,0.13-10.07-0.2-15.11-0.04c-4.86,0.16-9.71,0.46-14.57,0.66c-8.03,0.32-16.08,0.45-24.13-0.03
			c-6.2-0.36-12.34-1.16-18.5-1.84c-7.24-0.8-14.5-1.53-21.82-1.49c-9.61,0.05-19.2,0.5-28.81,0.56c-9.98,0.06-20,0.06-29.95,0.69
			c-8.18,0.52-16.35,1.62-23.95,4.13c-8.09,2.66-15.1,6.86-21.26,11.71c-6.56,5.18-11.81,11.19-17.86,16.7
			c-1.38,1.24-3.95,4.04-6.43,3.5c-0.07-0.01-0.15,0-0.21,0.03c-0.06,0.03-0.11,0.08-0.13,0.13c-0.02,0.06-0.01,0.11,0.02,0.17
			c0.03,0.05,0.09,0.09,0.16,0.11H29.56z"/>
		<path class="st1" d="M31.4,101.54c1.57,0.33,2.96-0.72,3.97-1.52c2.46-1.93,4.45-4.26,6.5-6.44c5.94-6.34,12.07-12.6,19.66-17.79
			c7.03-4.83,15.33-8.38,24.3-10.4c8.95-2.01,18.3-2.64,27.57-3c10.3-0.4,20.62-0.43,30.93-0.47c8.34-0.03,16.73-0.11,25.06,0.34
			c12.93,0.7,25.09,4.33,37.94,5.35c9.24,0.72,18.47,0.26,27.71-0.12c5.2-0.21,10.39-0.11,15.6-0.21c4.3-0.08,8.59-0.49,12.87-0.69
			c17.61-0.77,36.52-0.52,53.11,4.69c9.05,2.84,17.65,6.74,27.16,8.6c7.98,1.56,16.27,1.44,24.35,0.64
			c8.53-0.86,17.07-2.23,25.15-4.58c6.88-2.06,13.52-4.59,19.83-7.58c11.68-5.41,22.28-12.06,33.54-17.95
			c6.21-3.25,16.19-8.85,23.93-5.49c1.78,0.83,3.28,1.97,4.4,3.34c0.21,0.24,0.71,0,0.5-0.23c-1.97-2.25-4.65-4.04-8.18-4.44
			c-3.63-0.42-7.31,0.55-10.57,1.72c-10.84,3.87-20.25,10.27-29.97,15.56c-12.33,6.72-25.41,12.96-39.93,16.24
			c-9.07,2.09-18.43,3.27-27.87,3.52c-9.45,0.18-18.14-1.53-26.77-4.46c-8.53-2.89-16.75-6.2-25.85-7.88
			c-8.79-1.63-17.86-2.26-26.87-2.4c-8.57-0.14-17.06,0.32-25.59,0.81c-5.17,0.3-10.35,0.03-15.53,0.21
			c-4.99,0.17-9.97,0.46-14.97,0.59c-8.19,0.22-16.38-0.08-24.44-1.32c-5.83-0.9-11.52-2.24-17.35-3.13
			c-7.22-1.1-14.53-1.44-21.88-1.54c-9.57-0.14-19.15-0.05-28.72,0.02c-17.95,0.15-37.42,0.03-54.12,5.92
			c-8.38,2.96-15.6,7.44-21.89,12.63c-6.47,5.36-11.64,11.47-17.46,17.26c-1.16,1.16-3.68,4.22-5.97,3.74
			c-0.04-0.01-0.07-0.01-0.11-0.01c-0.04,0-0.07,0.01-0.11,0.03c-0.03,0.01-0.06,0.03-0.08,0.06s-0.04,0.05-0.05,0.08
			c-0.01,0.03-0.01,0.06-0.01,0.09c0,0.03,0.02,0.06,0.04,0.08c0.02,0.03,0.04,0.05,0.07,0.07c0.03,0.02,0.06,0.03,0.1,0.04
			L31.4,101.54z"/>
		<path class="st1" d="M33.23,103.29c1.51,0.31,2.85-0.91,3.73-1.69c2.37-2.09,4.29-4.5,6.31-6.8c5.7-6.5,11.72-12.82,19.14-18.17
			c6.91-5.02,15.09-8.85,24-11.23c8.88-2.36,18.23-3.35,27.54-3.89c10.44-0.61,20.92-0.67,31.39-0.62
			c8.42,0.04,16.91,0.11,25.27,0.92c13.3,1.3,25.35,6.2,38.6,7.62c9.19,0.97,18.38,0.56,27.59,0.2c9.53-0.36,19.05-0.58,28.57-1.01
			c18.38-0.83,37.77-1.8,55.08,4c8.69,2.89,17.06,6.63,26.32,8.32c8.39,1.53,17.08,1.33,25.57,0.46c8.34-0.86,16.54-2.21,24.43-4.57
			c6.85-2.11,13.44-4.69,19.69-7.73c11.49-5.49,21.89-12.16,32.78-18.32c4.02-2.28,8.17-4.58,12.73-6.14
			c3.15-1.08,6.94-1.91,10.23-0.68c1.57,0.65,2.91,1.6,3.86,2.78c0.21,0.24,0.71,0,0.5-0.23c-4.48-5.09-11.52-3.77-17.57-1.22
			c-10.4,4.37-19.45,10.73-28.99,16.15c-12.15,6.86-25.13,13.19-39.56,16.6c-9.19,2.16-18.7,3.35-28.28,3.55
			c-9.47,0.19-18.28-1.34-26.96-4.26c-8.68-2.93-16.86-6.5-26.09-8.1c-8.77-1.5-17.83-1.76-26.78-1.65
			c-19.19,0.23-38.34,1.68-57.54,1.99c-8.31,0.13-16.61-0.36-24.67-2.04c-5.92-1.24-11.62-3.04-17.53-4.33
			c-16.26-3.52-33.89-2.92-50.59-2.75c-18.21,0.18-37.74,0.8-54.35,7.31c-8.3,3.25-15.45,7.94-21.66,13.32
			c-6.34,5.5-11.42,11.68-16.94,17.69c-0.92,1.02-3.56,4.54-5.68,4.12c-0.07-0.02-0.15-0.01-0.22,0.02
			c-0.07,0.03-0.11,0.08-0.13,0.14c-0.02,0.06-0.01,0.12,0.03,0.17C33.1,103.24,33.16,103.27,33.23,103.29z"/>
		<path class="st1" d="M35.07,105.04c1.45,0.28,2.71-1.12,3.46-1.87c2.2-2.17,4.01-4.6,5.94-6.92c5.68-6.86,11.8-13.56,19.38-19.22
			c6.84-5.15,14.91-9.17,23.76-11.83c8.87-2.65,18.27-3.94,27.68-4.65c10.62-0.8,21.33-0.87,31.99-0.7
			c8.53,0.13,17.21,0.36,25.6,1.7c12.87,2.02,23.99,8,36.94,9.78c8.96,1.23,18.09,0.77,27.11,0.46c9.97-0.34,19.91-0.84,29.87-1.56
			c18.58-1.33,38.16-2.87,55.74,3.12c8.78,2.99,17.22,6.8,26.61,8.51c8.32,1.52,16.95,1.41,25.38,0.64
			c8.52-0.78,16.87-2.12,24.88-4.54c6.93-2.14,13.58-4.79,19.87-7.91c11.39-5.55,21.67-12.29,32.22-18.77
			c4-2.45,8.07-4.95,12.55-6.86c2.78-1.18,6.4-2.46,9.59-1.55c1.43,0.46,2.64,1.25,3.47,2.27c0.21,0.24,0.71,0,0.5-0.23
			c-4.19-4.76-11.2-2.26-16.24,0.21c-10.16,4.96-19.06,11.5-28.63,17.1c-12.15,7.11-25.27,13.55-39.89,17
			c-9.27,2.15-18.87,3.28-28.53,3.36c-9.11,0.09-18.15-1.35-26.49-4.23c-8.89-3-17.35-6.91-26.9-8.46
			c-8.91-1.44-18.13-1.48-27.18-1.13c-9.05,0.35-18.04,1.17-27.06,1.7c-10.55,0.62-21.14,1.03-31.71,1.21
			c-8.17,0.14-16.32-0.54-24.09-2.62c-5.79-1.56-11.24-3.79-16.97-5.48c-15.78-4.65-33.44-4.36-50.04-4.22
			c-18.66,0.16-38.47,1.44-55.18,8.56c-8.34,3.58-15.53,8.51-21.7,14.14c-6.18,5.63-11.26,12-16.54,18.22
			c-0.79,0.93-3.33,4.73-5.25,4.36C34.87,104.54,34.71,104.96,35.07,105.04L35.07,105.04z"/>
		<path class="st1" d="M36.91,106.79c1.25,0.23,2.3-1.08,2.91-1.72c2.19-2.32,3.96-4.91,5.87-7.37
			c5.51-7.09,11.55-13.96,19.04-19.85c6.67-5.3,14.54-9.58,23.22-12.6c9.06-3.12,18.84-4.78,28.6-5.68
			c10.65-0.97,21.43-1.04,32.14-0.75c8.57,0.23,17.3,0.72,25.63,2.44c12.93,2.69,23.59,9.59,36.73,11.81
			c9.09,1.53,18.49,1.17,27.72,0.84c10.15-0.36,20.22-1.17,30.29-2.14c9.55-0.93,19.15-1.83,28.8-1.8c4.83-0.03,9.65,0.29,14.4,0.96
			c4.86,0.72,9.35,2.08,13.84,3.69c8.7,3.11,17.12,6.82,26.55,8.39c8.69,1.44,17.67,1.27,26.45,0.42
			c8.16-0.78,16.06-2.17,23.71-4.54c6.87-2.19,13.47-4.88,19.69-8.05c11.39-5.7,21.6-12.63,31.93-19.43
			c3.81-2.53,7.65-5.09,11.85-7.22c2.46-1.24,5.78-2.89,8.87-2.36c1.29,0.25,2.41,0.89,3.12,1.77c0.21,0.24,0.71,0,0.5-0.23
			c-3.93-4.44-11.11-0.57-15.16,1.71c-9.58,5.41-18.13,11.89-27.44,17.57c-12.18,7.42-25.47,14.1-40.32,17.69
			c-8.97,2.17-18.55,3.17-27.92,3.3c-8.92,0.17-17.78-1.11-26.04-3.76c-9.28-3-17.99-7.39-27.87-9.11
			c-9.07-1.57-18.53-1.42-27.73-0.87c-9.33,0.57-18.59,1.65-27.89,2.44c-10.62,0.89-21.29,1.37-31.98,1.42
			c-8.35,0.04-16.62-0.85-24.39-3.34c-5.97-1.92-11.49-4.63-17.37-6.71c-15.43-5.45-33.08-5.57-49.72-5.41
			c-19,0.16-38.84,2.14-55.44,9.91c-16.93,7.94-27.51,20.71-37.59,33.6c-0.65,0.83-3.14,4.9-4.82,4.59
			c-0.36-0.06-0.51,0.36-0.15,0.44V106.79z"/>
		<path class="st1" d="M38.74,108.54c1.2,0.2,2.2-1.32,2.71-1.93c1.96-2.37,3.61-4.91,5.39-7.35c5.27-7.22,11.13-14.19,18.38-20.28
			C78.7,67.62,96.28,61.12,115.7,58.81c11.03-1.31,22.25-1.44,33.37-1.03c8.66,0.32,17.46,1,25.76,3.04
			c12.96,3.18,23.23,10.7,36.3,13.6c9.02,2.01,18.45,2.03,27.74,1.68c10.33-0.39,20.53-1.4,30.73-2.66
			c9.82-1.2,19.69-2.43,29.65-2.62c5.02-0.15,10.05,0.11,15,0.78c4.87,0.72,9.35,2.13,13.82,3.76c8.77,3.2,17.23,6.97,26.77,8.6
			c8.79,1.51,17.88,1.41,26.78,0.62c15.86-1.41,30.27-5.95,43.6-12.77c11.4-5.84,21.6-12.93,31.66-20.09
			c3.75-2.67,7.48-5.4,11.52-7.8c2.19-1.3,5.24-3.25,8.18-3.12c0.54,0.03,1.07,0.16,1.54,0.37c0.47,0.22,0.86,0.52,1.16,0.88
			c0.21,0.24,0.71,0,0.5-0.23c-3.51-3.95-10.66,1.02-13.69,2.95c-9.43,6.02-17.99,12.82-27.48,18.8
			c-12.03,7.58-25.31,14.3-40.14,17.91c-9.03,2.2-18.65,3.15-28.09,3.21c-9.11,0.11-18.14-1.25-26.56-3.99
			c-9.25-3.04-17.92-7.58-27.82-9.28c-9.16-1.58-18.76-1.2-28.03-0.43c-20.74,1.73-41.16,5.55-62.16,4.76
			c-8.37-0.31-16.49-1.72-24.01-4.65c-5.78-2.26-11.07-5.18-16.82-7.48c-15.4-6.17-33.4-6.66-50.36-6.45
			c-19.28,0.24-38.98,3.13-55.24,11.67c-16.41,8.62-26.8,21.58-36.37,34.81c-0.46,0.66-2.8,4.69-4.14,4.47
			c-0.36-0.06-0.51,0.36-0.16,0.43L38.74,108.54z"/>
		<path class="st1" d="M40.58,110.29c1.09,0.16,1.96-1.44,2.37-1.99c1.88-2.56,3.51-5.23,5.3-7.83c5.11-7.42,10.94-14.58,18.11-20.9
			c13.43-11.84,31.17-19.21,51.03-21.8c11.03-1.44,22.38-1.54,33.54-0.96c8.64,0.45,17.39,1.44,25.51,3.89
			c12.94,3.91,22.74,12.23,36.04,15.54c8.85,2.21,18.2,2.35,27.4,2.02c10.65-0.39,21.08-1.73,31.55-3.27
			c10.11-1.49,20.31-3.02,30.62-3.35c4.79-0.2,9.6,0.01,14.33,0.64c5.09,0.72,9.78,2.35,14.43,4.1c8.76,3.31,17.24,7.03,26.82,8.66
			c8.99,1.53,18.29,1.44,27.4,0.65c15.66-1.37,30.01-6.14,43.04-12.97c11.44-6,21.6-13.29,31.43-20.81
			c3.62-2.77,7.18-5.59,10.96-8.22c2.04-1.42,4.74-3.58,7.59-3.92c0.43-0.07,0.88-0.05,1.29,0.08c0.41,0.13,0.76,0.35,1.01,0.64
			c0.21,0.23,0.71,0,0.5-0.23c-3.08-3.44-10.54,2.89-12.64,4.42c-8.99,6.54-17.46,13.49-26.88,19.65
			c-11.89,7.76-25.15,14.58-39.98,18.26c-8.94,2.22-18.4,3.15-27.76,3.2c-9.07,0.05-17.97-1.11-26.39-3.78
			c-9.65-3.06-18.56-8.02-28.79-9.87c-9.23-1.66-18.96-1.08-28.25-0.1c-21,2.2-41.52,6.79-62.91,5.78c-8.5-0.4-16.7-2.01-24.16-5.28
			c-5.73-2.53-10.87-5.74-16.49-8.4c-14.96-7.07-32.59-8.19-49.69-8.09c-19.98,0.13-40.05,3.63-56.49,12.9
			c-16.19,9.12-26.77,22.36-35.84,36.01c-0.34,0.51-2.79,5.05-3.84,4.88C40.37,109.8,40.22,110.23,40.58,110.29L40.58,110.29z"/>
		<path class="st1" d="M42.49,112.05c0.99,0.1,1.92-1.97,2.21-2.42c1.78-2.8,3.44-5.65,5.27-8.43C54.97,93.55,60.82,86.2,68,79.68
			c13.48-12.27,31.47-20.37,51.83-23.1c11.12-1.48,22.63-1.52,33.83-0.65c8.85,0.68,17.71,2.13,25.73,5.25
			c12.48,4.85,21.72,13.62,35.16,17.1c9.03,2.34,18.69,2.48,28.1,2.06c10.31-0.46,20.35-2.1,30.41-3.82
			c10.31-1.76,20.68-3.61,31.25-4.09c4.76-0.28,9.54-0.11,14.24,0.52c5.05,0.74,9.68,2.42,14.24,4.19c8.63,3.34,17,7.05,26.43,8.8
			c9.43,1.74,19.23,1.74,28.82,0.92c15.62-1.34,30.08-6.33,42.97-13.29c11.31-6.09,21.33-13.5,30.79-21.26
			c3.62-2.96,7.14-6,10.79-8.93c1.96-1.57,4.24-3.75,6.89-4.61c0.67-0.22,1.42-0.36,1.91,0.17c0.21,0.23,0.71,0,0.5-0.23
			c-2.52-2.77-10.34,4.84-11.67,5.93c-8.58,7.07-17,14.23-26.46,20.6c-11.89,8.01-25.32,14.97-40.37,18.67
			c-17.85,4.38-38.39,4.42-55.66-1.49c-9.23-3.15-17.92-8.01-27.87-9.72c-9.06-1.56-18.61-0.78-27.67,0.36
			c-21.23,2.66-41.81,8.07-63.61,6.86c-8.56-0.48-16.76-2.27-24.11-5.78c-5.79-2.77-10.85-6.33-16.4-9.36
			c-14.7-8.04-32.23-9.85-49.78-9.8c-20.45,0.06-40.53,4.21-56.91,14.08C65.1,78.88,54.35,92.72,45.6,107.05
			c-0.28,0.47-2.33,4.65-3.16,4.56c-0.37-0.04-0.36,0.41,0,0.45L42.49,112.05z"/>
		<path class="st1" d="M44.32,113.79c0.92,0.03,1.69-2.14,1.94-2.6c1.64-2.95,3.28-5.9,5.08-8.8C56.27,94.46,62.15,86.8,69.36,80
			c13.33-12.58,31.16-21.5,51.78-24.46c11.39-1.63,23.36-1.61,34.83-0.42c8.66,0.9,17.18,2.72,24.81,6.14
			c12.33,5.55,21.16,14.91,34.77,18.82c19.2,5.52,40.56,1.57,59.64-2.14c10.34-2.01,20.8-4.12,31.46-4.74
			c4.64-0.27,9.36-0.27,13.95,0.42c5.27,0.79,10.14,2.68,14.89,4.58c8.6,3.44,17,7.13,26.46,8.88c9.62,1.78,19.65,1.8,29.43,0.96
			c15.45-1.36,29.83-6.56,42.44-13.53c11.34-6.27,21.35-13.9,30.57-22.02c3.51-3.08,6.89-6.24,10.31-9.38
			c1.96-1.8,3.93-3.97,6.41-5.37c0.27-0.16,1.07-0.68,1.38-0.34c0.22,0.23,0.72,0,0.5-0.23c-1.76-1.89-9.79,6.62-10.63,7.39
			c-8.12,7.52-16.48,14.89-25.89,21.45c-11.75,8.19-25.16,15.27-40.23,19.05c-17.87,4.48-38.47,4.41-55.78-1.49
			c-9.48-3.23-18.38-8.4-28.55-10.2c-9.13-1.62-18.84-0.6-27.91,0.75c-21.46,3.17-42.18,9.38-64.37,7.87
			c-8.73-0.59-17.04-2.68-24.33-6.55c-5.87-3.12-10.92-7.06-16.51-10.47c-6.07-3.74-12.98-6.56-20.37-8.3
			c-9.28-2.14-19.06-2.77-28.7-2.79c-20.93-0.02-41.05,4.81-57.37,15.3C66.13,79.6,55.2,94.01,46.9,108.92
			c-0.23,0.42-2.1,4.44-2.58,4.42C43.95,113.34,43.95,113.78,44.32,113.79z"/>
		<path class="st1" d="M46.23,115.54c0.74-0.12,1.38-2.34,1.58-2.74c1.54-3.15,3.18-6.27,4.99-9.33
			c4.83-8.22,10.71-16.11,17.92-23.18c13.33-13.08,31.33-22.88,52.53-25.93c11.4-1.64,23.53-1.53,34.94,0
			c8.55,1.14,16.79,3.37,24.07,7.13c12.19,6.29,20.7,16.24,34.63,20.52c19.54,6,40.98,1.54,60.28-2.65
			c10.39-2.26,20.9-4.63,31.68-5.41c4.78-0.34,9.65-0.36,14.39,0.43c5.27,0.89,10.17,2.94,14.91,4.9c8.57,3.54,17,7.2,26.48,8.98
			c9.62,1.8,19.7,1.92,29.5,1.04c15.58-1.41,30.07-6.76,42.67-13.94c11.41-6.5,21.42-14.42,30.4-22.91
			c3.33-3.14,6.51-6.37,9.62-9.65c1.91-2.02,3.72-4.15,5.83-6.06c0.25-0.23,1-0.79,0.98-0.82c0.23,0.23,0.63-0.09,0.4-0.32
			c-0.68-0.67-2.56,1.56-2.82,1.8c-2.3,2.34-4.5,4.76-6.78,7.13c-7.81,8.1-16.27,15.84-25.85,22.68
			c-11.74,8.39-25.31,15.57-40.57,19.29c-18.08,4.41-38.6,3.97-55.93-2.14c-9.65-3.4-18.76-8.9-29.26-10.53
			c-9.25-1.44-19.02-0.1-28.1,1.48c-21.67,3.79-42.79,10.83-65.44,8.62c-8.58-0.8-16.73-3.37-23.62-7.46
			c-5.79-3.44-10.72-7.66-16.25-11.33c-6.04-4.01-12.79-7.2-20.31-9.16c-9.13-2.39-18.84-3.14-28.43-3.19
			c-11.41-0.05-22.72,1.33-33.33,4.69c-9.19,2.97-17.65,7.17-25.01,12.41c-15.58,10.97-26.43,25.6-34.08,40.75
			c-0.3,0.6-1.74,4.37-2.17,4.44c-0.36,0.06-0.21,0.49,0.15,0.44L46.23,115.54z"/>
		<path class="st1" d="M48.27,117.13c2-5.68,5.01-11.21,8.25-16.5c6.96-11.41,16.08-22.2,27.9-30.86
			c14.62-10.72,33.25-17.26,53.37-17.59c11.15-0.18,22.63,0.66,33.08,3.93c7.38,2.31,13.84,5.88,19.61,10.14
			c4.92,3.63,9.36,7.66,14.49,11.12c5.37,3.63,11.49,6.43,18.32,7.94c21.66,4.8,43.01-1.67,63.62-6.42
			c11.16-2.57,23.28-5.37,35.03-4.31c9.41,0.84,17.76,5.4,25.95,8.8c8.98,3.73,18.38,6.43,28.53,7.29
			c12.08,1.07,24.32,0.08,35.87-2.92c19.14-5.08,35.43-15.41,48.81-27.07c8.82-7.65,16.56-16.02,23.1-24.97
			c0.33-0.46,0.66-0.92,0.98-1.39c0.17-0.26-0.33-0.49-0.5-0.23c-4.52,6.73-10.26,13.07-16.24,19.04
			c-12.24,12.2-27.06,23.35-44.84,30.4c-21.01,8.33-46.74,9.75-68.46,2.17c-8.27-2.89-15.82-6.88-24.17-9.63
			c-9.78-3.23-20.43-2.17-30.53-0.42c-12.27,2.14-24.12,5.52-36.24,8.1c-10.68,2.27-21.6,3.44-32.66,2.4
			c-8-0.7-15.65-2.98-22.21-6.65c-5.54-3.13-10.15-7.11-14.95-10.9c-5.09-4.01-10.5-7.76-16.84-10.51
			c-8.27-3.58-17.52-5.34-26.86-6.01c-11.06-0.8-22.33-0.39-33.05,2.04c-9,2.07-17.46,5.37-25,9.75
			c-13.53,7.79-24.09,18.43-32.16,29.89c-5.03,7.02-9.14,14.43-12.24,22.11c-0.15,0.38-0.3,0.77-0.46,1.16
			c-0.02,0.06-0.01,0.12,0.03,0.17c0.04,0.05,0.1,0.09,0.17,0.11c0.07,0.02,0.15,0.01,0.22-0.02c0.07-0.03,0.11-0.08,0.13-0.14
			L48.27,117.13z"/>
	</g>
	<g class="st2">
		
			<linearGradient id="SVGID_1_" gradientUnits="userSpaceOnUse" x1="411.8179" y1="762.204" x2="91.8197" y2="762.204" gradientTransform="matrix(1 0 0 -1 8.410366e-06 842.1102)">
			<stop  offset="0.22" style="stop-color:#4A95D1"/>
			<stop  offset="1" style="stop-color:#FFFFFF;stop-opacity:0"/>
		</linearGradient>
		<path class="st3" d="M311.23,101.9c-11.24,0-22.1-1.76-31.6-5.34c-9.5-3.58-17.78-8.91-25.73-14.05l-0.05-0.03
			c-19.46-12.55-38.87-23.86-62.2-24.22c-17.38-0.28-33.51,5.78-49.11,11.65l-2.03,0.76c-15.62,5.86-33.85,11.94-52.03,9.86
			l0.06-0.33c18.05,2.07,36.21-3.97,51.77-9.83l2.03-0.76c15.65-5.88,31.83-11.95,49.3-11.68c23.47,0.36,42.93,11.7,62.46,24.3
			l0.05,0.03c7.95,5.13,16.16,10.43,25.66,14.01c22.97,8.66,53.98,6.59,78.94-5.28c3.09-1.47,6.12-3.09,9.06-4.66
			c4.7-2.53,9.56-5.11,14.78-7.15c17.13-6.72,39.58-8.1,66.71-4.09l-0.08,0.32c-27.04-4-49.39-2.63-66.44,4.06
			c-5.19,2.04-10.04,4.62-14.7,7.13c-2.94,1.57-5.97,3.19-9.08,4.67C344.21,98.29,327.33,101.9,311.23,101.9z"/>
	</g>
	<g class="st2">
		
			<linearGradient id="SVGID_2_" gradientUnits="userSpaceOnUse" x1="275010.0938" y1="759.9155" x2="23718.7559" y2="759.9155" gradientTransform="matrix(1 0 0 -1 8.410366e-06 842.1102)">
			<stop  offset="0.22" style="stop-color:#4A95D1"/>
			<stop  offset="1" style="stop-color:#FFFFFF;stop-opacity:0"/>
		</linearGradient>
		<path class="st4" d="M325.1,104.19c-11.24,0-22.1-1.76-31.6-5.34c-9.5-3.58-17.78-8.91-25.73-14.05l-0.05-0.03
			c-19.46-12.55-38.87-23.86-62.2-24.22c-17.38-0.28-33.51,5.78-49.11,11.65l-2.03,0.76c-15.62,5.86-33.84,11.94-52.03,9.86
			l0.06-0.33c18.07,2.07,36.2-3.99,51.78-9.83l2.03-0.76c15.65-5.88,31.83-11.95,49.3-11.68c23.47,0.36,42.93,11.7,62.46,24.3
			l0.05,0.03c7.95,5.13,16.16,10.43,25.66,14.01c22.97,8.66,53.98,6.59,78.94-5.28c3.09-1.47,6.12-3.09,9.06-4.66
			c4.7-2.53,9.57-5.11,14.78-7.15c17.13-6.72,39.58-8.1,66.71-4.09l-0.08,0.32c-27.06-4-49.41-2.63-66.46,4.06
			c-5.19,2.04-10.04,4.62-14.73,7.13c-2.94,1.57-5.97,3.19-9.08,4.67C358.07,100.58,341.18,104.19,325.1,104.19z"/>
	</g>
	<g class="st2">
		
			<linearGradient id="SVGID_3_" gradientUnits="userSpaceOnUse" x1="285156.25" y1="813.369" x2="13840.3643" y2="813.369" gradientTransform="matrix(1 0 0 -1 8.410366e-06 842.1102)">
			<stop  offset="0.22" style="stop-color:#4A95D1"/>
			<stop  offset="1" style="stop-color:#FFFFFF;stop-opacity:0"/>
		</linearGradient>
		<path class="st5" d="M462.39,54.73c-50.45,0-63.58-11.14-78.57-23.88c-9.53-8.09-19.38-16.45-39.8-23.07
			c-19.35-6.27-38.5-6.27-58.55,0c-16.97,5.3-31.05,13.99-42.36,20.96c-5.97,3.7-11.16,6.89-15.3,8.61
			c-11.95,4.99-24.67,9.78-37.92,9.78c-1.67,0-3.34-0.08-5-0.23c-10.5-1-19.97-5.08-29.12-9.02c-4.98-2.14-10.11-4.36-15.4-6.07
			c-16.65-5.31-35.14-5.91-52.29-1.7l-0.13-0.31c17.25-4.24,35.84-3.63,52.59,1.71c5.29,1.72,10.45,3.94,15.44,6.09
			c9.12,3.93,18.55,7.99,28.95,8.98c14.93,1.42,29.26-3.92,42.67-9.51c4.12-1.7,9.28-4.88,15.26-8.57
			c11.33-7,25.44-15.69,42.46-21.01c20.16-6.3,39.42-6.3,58.87,0c20.51,6.65,30.39,15.04,39.95,23.15
			c16.33,13.86,30.44,25.83,93.4,23.46v0.33C472.14,54.63,467.1,54.73,462.39,54.73z"/>
	</g>
	<g class="st2">
		
			<linearGradient id="SVGID_4_" gradientUnits="userSpaceOnUse" x1="290533" y1="813.6901" x2="19222.6504" y2="813.6901" gradientTransform="matrix(1 0 0 -1 8.410366e-06 842.1102)">
			<stop  offset="0.22" style="stop-color:#9B71B1"/>
			<stop  offset="1" style="stop-color:#FFFFFF;stop-opacity:0"/>
		</linearGradient>
		<path class="st6" d="M468.73,55.74c-50.45,0-63.57-11.71-78.57-25.08c-9.53-8.5-19.38-17.28-39.8-24.23
			c-19.35-6.58-38.5-6.58-58.55,0c-16.96,5.57-31.04,14.69-42.36,22.02c-5.97,3.88-11.16,7.22-15.29,9.02
			c-11.95,5.24-24.68,10.27-37.92,10.27c-1.67,0-3.34-0.08-5-0.25c-10.5-1.05-19.97-5.33-29.13-9.48
			c-4.98-2.25-10.11-4.58-15.4-6.37c-16.57-5.58-35.16-6.22-52.29-1.8l-0.13-0.33c17.22-4.45,35.92-3.81,52.59,1.8
			c5.29,1.8,10.45,4.14,15.44,6.39c9.12,4.13,18.55,8.39,28.95,9.43c14.92,1.49,29.26-4.11,42.67-9.98c4.1-1.8,9.26-5.14,15.23-9.02
			c11.34-7.35,25.44-16.48,42.47-22.07c20.16-6.62,39.41-6.62,58.87,0c20.51,6.98,30.39,15.8,39.95,24.32
			c16.33,14.56,30.43,27.13,93.39,24.65l0.02,0.36C478.49,55.63,473.44,55.75,468.73,55.74z"/>
	</g>
	
		<radialGradient id="SVGID_5_" cx="16.833" cy="829.4131" r="0.1916" gradientTransform="matrix(-57.7485 11.2733 3.6523 18.709 -1754.8567 -15695.9209)" gradientUnits="userSpaceOnUse">
		<stop  offset="0" style="stop-color:#F8E9F2"/>
		<stop  offset="0.11" style="stop-color:#EACCE2"/>
		<stop  offset="0.27" style="stop-color:#D19DC7"/>
		<stop  offset="0.32" style="stop-color:#CD96C3;stop-opacity:0.96"/>
		<stop  offset="0.42" style="stop-color:#C085BA;stop-opacity:0.84"/>
		<stop  offset="0.55" style="stop-color:#A76AAC;stop-opacity:0.64"/>
		<stop  offset="0.7" style="stop-color:#6F496C;stop-opacity:0.37"/>
		<stop  offset="0.88" style="stop-color:#281D1C;stop-opacity:0.03"/>
		<stop  offset="0.9" style="stop-color:#211915;stop-opacity:0"/>
	</radialGradient>
	<path class="st7" d="M298.5,9.27c6.12-1.25,10.44-4.21,9.65-6.62c-0.8-2.41-6.4-3.35-12.53-2.1c-6.12,1.25-10.44,4.21-9.65,6.62
		C286.77,9.58,292.38,10.52,298.5,9.27z"/>
	
		<radialGradient id="SVGID_6_" cx="-67.4766" cy="1076.0487" r="0.1916" gradientTransform="matrix(-1444.0221 728.6372 186.5637 369.7343 -331903.625 -357373.5625)" gradientUnits="userSpaceOnUse">
		<stop  offset="0" style="stop-color:#F8E9F2"/>
		<stop  offset="0.11" style="stop-color:#EACCE2"/>
		<stop  offset="0.27" style="stop-color:#D19DC7"/>
		<stop  offset="0.32" style="stop-color:#CD96C3;stop-opacity:0.96"/>
		<stop  offset="0.42" style="stop-color:#C085BA;stop-opacity:0.84"/>
		<stop  offset="0.55" style="stop-color:#A76AAC;stop-opacity:0.64"/>
		<stop  offset="0.7" style="stop-color:#6F496C;stop-opacity:0.37"/>
		<stop  offset="0.88" style="stop-color:#281D1C;stop-opacity:0.03"/>
		<stop  offset="0.9" style="stop-color:#211915;stop-opacity:0"/>
	</radialGradient>
	<path class="st8" d="M380.7,93.83c1.54-0.75,2.83-1.79,3.75-3.02c0.92-1.23,1.44-2.62,1.53-4.04c-1.76-0.48-3.64-0.64-5.49-0.46
		c-1.85,0.18-3.62,0.69-5.19,1.49c-1.54,0.75-2.83,1.79-3.75,3.02c-0.92,1.23-1.44,2.62-1.53,4.04c1.76,0.48,3.64,0.64,5.49,0.46
		C377.37,95.14,379.14,94.63,380.7,93.83z"/>
	
		<radialGradient id="SVGID_7_" cx="-185.6068" cy="1073.651" r="0.1916" gradientTransform="matrix(-405.6112 -278.8002 -139.9912 203.6656 64837.6836 -293930.5)" gradientUnits="userSpaceOnUse">
		<stop  offset="0" style="stop-color:#F8E9F2"/>
		<stop  offset="0.11" style="stop-color:#EACCE2"/>
		<stop  offset="0.27" style="stop-color:#D19DC7"/>
		<stop  offset="0.32" style="stop-color:#CD96C3;stop-opacity:0.96"/>
		<stop  offset="0.42" style="stop-color:#C085BA;stop-opacity:0.84"/>
		<stop  offset="0.55" style="stop-color:#A76AAC;stop-opacity:0.64"/>
		<stop  offset="0.7" style="stop-color:#6F496C;stop-opacity:0.37"/>
		<stop  offset="0.88" style="stop-color:#281D1C;stop-opacity:0.03"/>
		<stop  offset="0.9" style="stop-color:#211915;stop-opacity:0"/>
	</radialGradient>
	<path class="st9" d="M372.81,20.65c1.73,1.19,4.18,1.33,6.48,0.58c0.5-1.99-0.11-3.94-1.84-5.12c-1.73-1.18-4.18-1.33-6.48-0.58
		C370.48,17.52,371.08,19.46,372.81,20.65z"/>
	
		<radialGradient id="SVGID_8_" cx="-177.1756" cy="1078.3677" r="0.1916" gradientTransform="matrix(-542.3274 -213.0164 -80.2901 204.4141 -27836.5723 -278626.5313)" gradientUnits="userSpaceOnUse">
		<stop  offset="0" style="stop-color:#F8E9F2"/>
		<stop  offset="0.11" style="stop-color:#EACCE2"/>
		<stop  offset="0.27" style="stop-color:#D19DC7"/>
		<stop  offset="0.32" style="stop-color:#CD96C3;stop-opacity:0.96"/>
		<stop  offset="0.42" style="stop-color:#C085BA;stop-opacity:0.84"/>
		<stop  offset="0.55" style="stop-color:#A76AAC;stop-opacity:0.64"/>
		<stop  offset="0.7" style="stop-color:#6F496C;stop-opacity:0.37"/>
		<stop  offset="0.88" style="stop-color:#281D1C;stop-opacity:0.03"/>
		<stop  offset="0.9" style="stop-color:#211915;stop-opacity:0"/>
	</radialGradient>
	<path class="st10" d="M271.93,96.43c2.04,0.79,4.45,0.43,6.43-0.77c-0.12-2.03-1.3-3.79-3.34-4.58c-2.04-0.79-4.45-0.43-6.46,0.77
		C268.71,93.87,269.89,95.63,271.93,96.43z"/>
	
		<radialGradient id="SVGID_9_" cx="-173.726" cy="1093.0994" r="0.1916" gradientTransform="matrix(-629.5172 -119.2103 -38.7253 204.4976 -90725.7969 -261357.2969)" gradientUnits="userSpaceOnUse">
		<stop  offset="0" style="stop-color:#F8E9F2"/>
		<stop  offset="0.11" style="stop-color:#EACCE2"/>
		<stop  offset="0.27" style="stop-color:#D19DC7"/>
		<stop  offset="0.32" style="stop-color:#CD96C3;stop-opacity:0.96"/>
		<stop  offset="0.42" style="stop-color:#C085BA;stop-opacity:0.84"/>
		<stop  offset="0.55" style="stop-color:#A76AAC;stop-opacity:0.64"/>
		<stop  offset="0.7" style="stop-color:#6F496C;stop-opacity:0.37"/>
		<stop  offset="0.88" style="stop-color:#281D1C;stop-opacity:0.03"/>
		<stop  offset="0.9" style="stop-color:#211915;stop-opacity:0"/>
	</radialGradient>
	<path class="st11" d="M208.66,63.44c2.2,0.42,4.47-0.36,6.11-1.87c-0.64-1.96-2.25-3.48-4.45-3.9c-2.2-0.42-4.46,0.36-6.11,1.87
		C204.85,61.5,206.47,63.02,208.66,63.44z"/>
	
		<radialGradient id="SVGID_10_" cx="-87.3562" cy="1114.614" r="0.1916" gradientTransform="matrix(-453.8397 254.1104 112.9609 201.7475 -182283.4375 -210389.5)" gradientUnits="userSpaceOnUse">
		<stop  offset="0" style="stop-color:#F8E9F2"/>
		<stop  offset="0.11" style="stop-color:#EACCE2"/>
		<stop  offset="0.27" style="stop-color:#D19DC7"/>
		<stop  offset="0.32" style="stop-color:#CD96C3;stop-opacity:0.96"/>
		<stop  offset="0.42" style="stop-color:#C085BA;stop-opacity:0.84"/>
		<stop  offset="0.55" style="stop-color:#A76AAC;stop-opacity:0.64"/>
		<stop  offset="0.7" style="stop-color:#6F496C;stop-opacity:0.37"/>
		<stop  offset="0.88" style="stop-color:#281D1C;stop-opacity:0.03"/>
		<stop  offset="0.9" style="stop-color:#211915;stop-opacity:0"/>
	</radialGradient>
	<path class="st12" d="M256.14,24.54c1.84-1.03,2.59-2.89,2.21-4.85c-2.3-0.9-4.82-0.95-6.67,0.08c-1.85,1.03-2.59,2.89-2.21,4.85
		C251.78,25.52,254.29,25.56,256.14,24.54z"/>
	
		<radialGradient id="SVGID_11_" cx="-100.4566" cy="1110.9653" r="0.1916" gradientTransform="matrix(-625.4111 135.9843 44.8491 206.2675 -130477.7734 -225377.9063)" gradientUnits="userSpaceOnUse">
		<stop  offset="0" style="stop-color:#F8E9F2"/>
		<stop  offset="0.11" style="stop-color:#EACCE2"/>
		<stop  offset="0.27" style="stop-color:#D19DC7"/>
		<stop  offset="0.32" style="stop-color:#CD96C3;stop-opacity:0.96"/>
		<stop  offset="0.42" style="stop-color:#C085BA;stop-opacity:0.84"/>
		<stop  offset="0.55" style="stop-color:#A76AAC;stop-opacity:0.64"/>
		<stop  offset="0.7" style="stop-color:#6F496C;stop-opacity:0.37"/>
		<stop  offset="0.88" style="stop-color:#281D1C;stop-opacity:0.03"/>
		<stop  offset="0.9" style="stop-color:#211915;stop-opacity:0"/>
	</radialGradient>
	<path class="st13" d="M398.8,77.76c2.18-0.47,3.74-2.02,4.32-4c-1.7-1.48-3.99-2.2-6.17-1.73c-2.18,0.47-3.74,2.03-4.32,4
		C394.32,77.51,396.61,78.24,398.8,77.76z"/>
</g>
</svg>
