<?xml version="1.0" encoding="utf-8"?>
<!-- Generator: Adobe Illustrator 24.1.2, SVG Export Plug-In . SVG Version: 6.00 Build 0)  -->
<svg version="1.1" id="Layer_1" xmlns="http://www.w3.org/2000/svg" xmlns:xlink="http://www.w3.org/1999/xlink" x="0px" y="0px"
	 viewBox="0 0 100 100" style="enable-background:new 0 0 100 100;" xml:space="preserve">
<style type="text/css">
	.st0{fill:#59F3F9;}
</style>
<g>
	<path class="st0" d="M13.7,31.39c0.57,0.27,1.03,0.05,1.47-0.32c0.3-0.25,0.43-0.59,0.52-0.95c0.8-2.95,2.05-5.71,3.57-8.36
		c2.27-3.95,5.16-7.38,8.66-10.29c4.35-3.62,9.33-5.93,14.87-7.04c0.29-0.06,0.6-0.11,0.87-0.22c0.54-0.21,0.87-0.63,0.96-1.19
		c0.09-0.59-0.25-1.02-0.7-1.35c-0.38-0.28-0.84-0.22-1.26-0.14c-4.57,0.89-8.85,2.53-12.79,5.02c-2.69,1.7-5.11,3.72-7.3,6.05
		c-2.05,2.17-3.86,4.51-5.4,7.06c-1.82,3.02-3.27,6.2-4.2,9.61c-0.07,0.26-0.13,0.52-0.17,0.7C12.84,30.67,13.13,31.12,13.7,31.39z"
		/>
	<path class="st0" d="M83.61,72.8c-0.87,0.37-1.71,0.76-2.43,1.38c-0.66,0.57-1.05,1.28-1.02,2.19c0.02,0.73,0,1.47,0,2.2
		c0,0-0.01,0-0.01,0c0,0.87,0.11,1.75-0.02,2.6c-0.26,1.7-0.01,1.56-1.76,1.49c-1.09-0.04-2.18-0.24-3.27-0.37
		c-1.32-0.16-2.65-0.28-3.97-0.47c-2.01-0.29-4.01-0.63-6.02-0.92c-2.7-0.39-5.4-0.85-8.08-1.34c-1.01-0.19-2.01-0.53-3.05-0.5
		c-0.64,0.02-1.08,0.32-1.24,0.83c-0.19,0.62-0.01,1.23,0.5,1.61c0.27,0.21,0.58,0.31,0.92,0.37c0.88,0.18,1.76,0.37,2.64,0.57
		c0.42,0.1,0.44,0.18,0.12,0.5c-0.4,0.4-0.75,0.85-1.1,1.3c-2.28,2.83-3.9,5.98-4.65,9.54c-0.28,1.33-0.55,2.68-0.46,4.06
		c0.05,0.83,0.68,1.44,1.4,1.43c0.71-0.01,1.31-0.64,1.38-1.44c0.07-0.76,0.12-1.53,0.24-2.28c0.78-4.73,3.12-8.6,6.51-11.91
		c0.37-0.36,0.75-0.49,1.26-0.4c1.12,0.19,2.24,0.35,3.36,0.52c2.08,0.31,4.15,0.62,6.23,0.91c1.29,0.18,2.58,0.29,3.87,0.47
		c1.75,0.24,3.51,0.4,5.28,0.35c0.99-0.03,1.72-0.47,2.13-1.4c0.4-0.9,0.58-1.84,0.6-2.82c0.02-1.34,0.06-2.67-0.01-4.01
		c-0.03-0.73,0.28-1.12,0.86-1.42c0.38-0.2,0.8-0.35,1.13-0.64c0.46-0.42,0.61-1.22,0.3-1.74C84.97,73.01,84.23,72.54,83.61,72.8z"
		/>
	<path class="st0" d="M91.26,29.26c-0.93-0.69-1.97-0.91-3.11-0.91c-8.56,0.01-17.11,0-25.67,0c-3.74,0-7.49-0.01-11.23,0.01
		c-3.52,0.02-5.84,2.83-5.77,5.79c0.01,0.23,0.01,0.47,0,0.7c-0.04,0.62-0.09,0.68-0.71,0.72c-0.27,0.02-0.53,0-0.8,0
		c-5.18,0-10.36,0-15.54,0c-5.25,0-10.49-0.02-15.74,0.01c-2.36,0.01-4.1,1.17-5.18,3.19c-1.06,1.98-0.93,3.99,0.26,5.9
		c0.79,1.27,1.89,2.16,3.36,2.52c0.68,0.17,1.01,0.51,1.09,1.22c0.09,0.76,0.3,1.51,0.5,2.25c1.33,4.88,3.43,9.4,6.23,13.6
		c1.43,2.14,3.04,4.14,4.69,6.11c2.34,2.78,2.26,6.48,0.06,9.1c-1.37,1.64-2.87,3.16-4.31,4.74c-0.77,0.84-1.54,1.67-2.3,2.51
		c-0.13,0.15-0.25,0.31-0.34,0.49c-0.4,0.85,0.07,1.75,0.99,1.88c0.56,0.08,1.04-0.02,1.45-0.48c1.01-1.11,2.06-2.19,3.07-3.3
		c1.22-1.33,2.42-2.67,3.63-4.01c1.42-1.58,2.1-3.49,2.28-5.56c0.22-2.52-0.48-4.83-2.04-6.85c-1.02-1.32-2.14-2.56-3.14-3.89
		c-2.23-2.98-4.16-6.13-5.6-9.57c-0.98-2.35-1.83-4.73-2.32-7.24c-0.13-0.67-0.06-0.76,0.61-0.8c0.17-0.01,0.33,0,0.5,0
		c9.36,0,18.72,0,28.07,0c1.17,0,1.17,0.01,1.4,1.18c0.02,0.1,0.02,0.2,0.04,0.3c0.44,1.96,1.28,3.73,2.61,5.24
		c2.46,2.81,5.63,4.08,9.33,4.09c5.98,0.01,11.96,0,17.95,0c0.97,0,1.93-0.04,2.89-0.15c1.81-0.21,3.3-0.98,4.59-2.22
		c0.61-0.58,1.09-1.26,1.66-1.87c0.22-0.24,0.43-0.29,0.66-0.01c0.93,1.13,1.87,2.26,2.79,3.4c0.27,0.34,0.21,0.53-0.19,0.67
		c-0.25,0.09-0.52,0.14-0.77,0.21c-0.93,0.27-1.89,0.47-2.78,0.84c-1.73,0.72-1.84,1.51-1.58,2.89c0.07,0.39,0.2,0.78,0.31,1.16
		c0.29,0.96,0.59,1.91,0.88,2.87c0.2,0.69,0.1,0.88-0.62,0.85c-1.67-0.07-3.33,0.29-5,0.23c-0.33-0.01-0.67,0-0.98,0.15
		c-0.59,0.28-0.93,0.87-0.84,1.46c0.11,0.75,0.49,1.11,1.27,1.18c0.27,0.02,0.53,0,0.8,0.01c2.24,0.09,4.46-0.32,6.7-0.23
		c0.1,0,0.2-0.01,0.3-0.02c0.3-0.05,0.59-0.1,0.89-0.17c0.87-0.2,1.3-0.95,1.03-1.82c-0.53-1.69-1.08-3.37-1.61-5.06
		c-0.28-0.9-0.23-0.99,0.7-1.25c0.68-0.19,1.36-0.33,2.04-0.52c0.71-0.19,1.42-0.4,2.06-0.77c0.73-0.42,1.12-1.01,1.03-1.89
		c-0.05-0.49-0.21-0.89-0.48-1.29c-0.94-1.43-2.09-2.68-3.18-3.99c-0.73-0.87-0.68-0.98,0.39-1.28c0.19-0.05,0.38-0.11,0.57-0.18
		c2.16-0.73,4.06-2.96,4.07-5.43c0.02-4.38,0.03-8.76-0.01-13.13C93.18,31.32,92.46,30.14,91.26,29.26z M45.48,43.88
		c-0.01,0.62-0.09,0.68-0.7,0.72c-0.23,0.01-0.47,0-0.7,0c-5.14,0-10.29,0-15.43,0c-5.18,0-10.36-0.01-15.53,0.01
		c-0.84,0-1.57-0.2-2.25-0.69c-1.63-1.17-1.35-3.98,0.07-4.87c0.77-0.49,1.56-0.69,2.46-0.69c9.39,0.01,18.77,0.01,28.16,0.01
		c1.04,0,2.07-0.01,3.11,0c0.75,0.01,0.81,0.07,0.82,0.8C45.49,40.74,45.49,42.31,45.48,43.88z M58.73,55.1
		c-0.03,0.06-0.16,0.11-0.25,0.12c-4.99,0.52-8.79-2.29-9.93-6.78c-0.19-0.77-0.29-1.57-0.28-2.38c0.03-1.87,0.01-3.74,0.01-5.61
		c0-2,0-4,0-6.01c0-1.03,0.36-1.87,1.13-2.57c0.56-0.5,1.24-0.68,1.93-0.71c1.33-0.06,2.67-0.02,4-0.03c0.38,0,0.47,0.15,0.32,0.5
		c-0.49,1.09-0.56,2.24-0.56,3.42c0.02,3.87-0.03,7.74,0.02,11.61c0.03,2.39,0.75,4.59,2.15,6.55c0.41,0.57,0.84,1.12,1.35,1.6
		C58.7,54.9,58.76,55.03,58.73,55.1z M90.41,45.15c-0.01,2.02-0.9,3.15-2.83,3.71c-1.6,0.46-3.03,1.22-4.19,2.44
		c-0.62,0.65-1.24,1.3-1.83,1.99c-1.05,1.25-2.38,1.97-4.09,1.96c-3.71-0.03-7.41,0.02-11.12-0.02c-4.2-0.05-7.78-3.44-8.27-7.57
		c-0.15-1.27-0.16-2.53-0.16-3.79c0-3.04,0-6.08,0-9.12c0-1.11,0.24-2.11,1.15-2.87c0.4-0.33,0.83-0.55,1.36-0.55
		c0.07,0,0.13,0,0.2,0c9.08-0.24,18.16-0.17,27.24-0.18c0.27,0,0.54,0.01,0.8,0.06c1.09,0.23,1.74,0.99,1.75,2.12
		c0.02,2.04,0.01,4.07,0.01,6.11C90.41,41.34,90.42,43.24,90.41,45.15z"/>
	<path class="st0" d="M48.69,4.12c0.83,3.66,3.69,6.11,7.46,6.53c0.73,0.08,1.46,0.15,2.18,0.3c5.39,1.08,9.99,3.67,13.97,7.4
		c2,1.87,3.9,3.84,5.51,6.07c0.21,0.29,0.49,0.56,0.78,0.78c0.66,0.49,1.45,0.33,1.91-0.36c0.37-0.55,0.35-1.14-0.11-1.76
		c-1.28-1.76-2.68-3.41-4.18-4.98c-2.18-2.28-4.6-4.27-7.28-5.93c-3.77-2.34-7.81-3.88-12.26-4.29c-1.22-0.11-2.34-0.52-3.32-1.29
		c-0.81-0.64-1.33-1.48-1.67-2.45c-0.1-0.28-0.02-0.46,0.31-0.47c0.2,0,0.4-0.02,0.6,0c1.96,0.12,3.92,0.28,5.86,0.57
		c3.45,0.51,6.8,1.38,10.04,2.66c3.89,1.53,7.45,3.64,10.56,6.42c3.28,2.93,6.07,6.29,8.16,10.19c0.25,0.47,0.51,0.94,0.84,1.36
		c0.55,0.71,1.3,0.82,1.93,0.35c0.59-0.44,0.77-1.14,0.4-1.88c-0.69-1.41-1.51-2.76-2.39-4.05c-1.91-2.82-4.06-5.44-6.63-7.72
		c-2.34-2.07-4.85-3.88-7.59-5.35c-4-2.14-8.26-3.58-12.72-4.41c-2.99-0.56-5.99-0.96-9.03-0.93c-0.43,0-0.87,0.02-1.3-0.08
		c-1.16-0.28-2.38,0.27-2.22,1.9C48.45,3.14,48.58,3.63,48.69,4.12z"/>
</g>
</svg>
