<?xml version="1.0" encoding="utf-8"?>
<!-- Generator: Adobe Illustrator 24.1.2, SVG Export Plug-In . SVG Version: 6.00 Build 0)  -->
<svg version="1.1" id="Layer_1" xmlns="http://www.w3.org/2000/svg" xmlns:xlink="http://www.w3.org/1999/xlink" x="0px" y="0px"
	 viewBox="0 0 30 30" style="enable-background:new 0 0 30 30;" xml:space="preserve">
<style type="text/css">
	.st0{fill-rule:evenodd;clip-rule:evenodd;fill:#59F3F9;}
</style>
<path class="st0" d="M0,15C0,6.61,6.89,0,15,0c8.27,0,15,6.73,15,15s-6.73,15-15,15C6.75,30,0,23.28,0,15z M16.36,21.82h1.36
	c3.5,0,5.42-4.16,3.03-6.82c2.4-2.66,0.47-6.82-3.03-6.82h-1.36V6.82c0-1.8-2.73-1.8-2.73,0v1.36H9.55c-1.8,0-1.8,2.73,0,2.73h1.36
	v8.18H9.55c-1.8,0-1.8,2.73,0,2.73h4.09v1.36c0,1.8,2.73,1.8,2.73,0v-1.36H16.36z M17.73,10.91h-4.09v2.73h4.09
	C19.53,13.64,19.53,10.91,17.73,10.91z M17.73,16.36h-4.09v2.73h4.09C19.53,19.09,19.53,16.36,17.73,16.36z"/>
</svg>
