<?xml version="1.0" encoding="utf-8"?>
<!-- Generator: Adobe Illustrator 24.1.2, SVG Export Plug-In . SVG Version: 6.00 Build 0)  -->
<svg version="1.1" id="Layer_1" xmlns="http://www.w3.org/2000/svg" xmlns:xlink="http://www.w3.org/1999/xlink" x="0px" y="0px"
	 viewBox="0 0 30 30" style="enable-background:new 0 0 30 30;" xml:space="preserve">
<style type="text/css">
	.st0{fill-rule:evenodd;clip-rule:evenodd;fill:#FFFFFF;}
</style>
<path class="st0" d="M15,30c8.28,0,15-6.72,15-15c0-8.28-6.72-15-15-15S0,6.72,0,15C0,23.28,6.72,30,15,30z M12.5,10
	c0,1.38-1.12,2.5-2.5,2.5c-1.38,0-2.5-1.12-2.5-2.5S8.62,7.5,10,7.5C11.38,7.5,12.5,8.62,12.5,10z M22.5,10c0,1.38-1.12,2.5-2.5,2.5
	c-1.38,0-2.5-1.12-2.5-2.5s1.12-2.5,2.5-2.5C21.38,7.5,22.5,8.62,22.5,10z M22.5,20c0,1.38-1.12,2.5-2.5,2.5
	c-1.38,0-2.5-1.12-2.5-2.5c0-1.38,1.12-2.5,2.5-2.5C21.38,17.5,22.5,18.62,22.5,20z M12.5,20c0,1.38-1.12,2.5-2.5,2.5
	c-1.38,0-2.5-1.12-2.5-2.5c0-1.38,1.12-2.5,2.5-2.5C11.38,17.5,12.5,18.62,12.5,20z"/>
</svg>
