<?xml version="1.0" encoding="utf-8"?>
<!-- Generator: Adobe Illustrator 24.1.2, SVG Export Plug-In . SVG Version: 6.00 Build 0)  -->
<svg version="1.1" id="Layer_1" xmlns="http://www.w3.org/2000/svg" xmlns:xlink="http://www.w3.org/1999/xlink" x="0px" y="0px"
	 viewBox="0 0 36.14 36.14" style="enable-background:new 0 0 36.14 36.14;" xml:space="preserve">
<style type="text/css">
	.st0{display:none;}
	.st1{display:inline;}
	.st2{fill:#1EB1E7;}
	.st3{display:none;fill:#008FC1;}
	.st4{display:inline;clip-path:url(#SVGID_2_);}
	.st5{fill:#5B66AF;}
	.st6{fill:#84271A;}
</style>
<g class="st0">
	<g class="st1">
		<path class="st2" d="M36,6.93c-1.35,0.59-2.77,0.98-4.24,1.16c1.54-0.92,2.69-2.38,3.25-4.08c-1.46,0.84-3.04,1.44-4.69,1.78
			c-1.11-1.19-2.58-1.97-4.18-2.24c-1.6-0.27-3.25,0.01-4.68,0.77c-1.43,0.77-2.57,1.98-3.24,3.46c-0.67,1.48-0.83,3.14-0.46,4.72
			C11.61,12.21,6.17,9.26,2.53,4.81c-0.66,1.13-1.01,2.41-1,3.72c0,1.21,0.3,2.41,0.87,3.48c0.57,1.07,1.4,1.98,2.41,2.66
			c-1.17-0.04-2.32-0.35-3.34-0.92v0.09c0,1.7,0.59,3.36,1.67,4.68c1.08,1.32,2.58,2.23,4.25,2.57c-0.63,0.17-1.28,0.26-1.94,0.26
			c-0.47,0-0.93-0.05-1.38-0.13c0.48,1.47,1.4,2.75,2.63,3.67c1.24,0.92,2.73,1.43,4.27,1.46c-2.61,2.05-5.83,3.15-9.15,3.15
			c-0.59,0-1.17-0.03-1.76-0.1c3.38,2.17,7.32,3.32,11.34,3.32c13.58,0,20.99-11.24,20.99-20.98c0-0.31,0-0.63-0.02-0.94
			c1.45-1.04,2.7-2.33,3.69-3.82L36,6.93z"/>
	</g>
</g>
<path class="st3" d="M35.97,5.73l-5.43,25.62c-0.41,1.81-1.48,2.26-3,1.41l-8.28-6.1l-3.99,3.84c-0.44,0.44-0.81,0.81-1.66,0.81
	l0.6-8.43L29.54,9.01c0.67-0.59-0.15-0.92-1.04-0.33L9.54,20.63l-8.16-2.56c-1.78-0.55-1.81-1.78,0.37-2.63l31.93-12.3
	C35.16,2.58,36.45,3.47,35.97,5.73L35.97,5.73z"/>
<g class="st0">
	<defs>
		<rect id="SVGID_1_" x="0.05" y="4.42" width="36.04" height="27.31"/>
	</defs>
	<clipPath id="SVGID_2_" class="st1">
		<use xlink:href="#SVGID_1_"  style="overflow:visible;"/>
	</clipPath>
	<g class="st4">
		<path class="st5" d="M30.58,6.7c-2.36-1.08-4.86-1.84-7.44-2.28c-0.32,0.56-0.69,1.32-0.95,1.93c-2.77-0.41-5.52-0.41-8.24,0
			c-0.26-0.6-0.64-1.36-0.96-1.93c-2.57,0.43-5.08,1.2-7.44,2.28C0.84,13.63-0.44,20.39,0.2,27.05c3.12,2.27,6.15,3.65,9.12,4.55
			c0.74-0.99,1.39-2.04,1.95-3.14c-1.07-0.4-2.1-0.88-3.08-1.46c0.26-0.19,0.51-0.38,0.75-0.58c5.93,2.7,12.37,2.7,18.23,0
			c0.25,0.2,0.5,0.39,0.75,0.58c-0.98,0.58-2.01,1.07-3.08,1.46c0.56,1.1,1.22,2.15,1.95,3.14c2.98-0.9,6-2.28,9.13-4.56
			C36.69,19.33,34.66,12.63,30.58,6.7L30.58,6.7z M12.08,22.96c-1.78,0-3.24-1.62-3.24-3.59s1.43-3.6,3.24-3.6
			c1.81,0,3.27,1.62,3.24,3.6C15.33,21.34,13.9,22.96,12.08,22.96z M24.06,22.96c-1.78,0-3.24-1.62-3.24-3.59s1.43-3.6,3.24-3.6
			c1.81,0,3.27,1.62,3.24,3.6C27.3,21.34,25.87,22.96,24.06,22.96z"/>
	</g>
</g>
<path class="st6" d="M36.1,18.3c0-2.25-1.8-4.05-4.05-3.82c-0.9,0-2.02,0.45-2.7,1.13c-3.15-2.03-6.75-3.38-10.58-3.38l1.8-8.55
	l5.85,1.35c0,1.58,1.35,2.7,2.92,2.7s2.7-1.35,2.7-2.93s-1.35-2.7-2.92-2.7c-1.13,0-2.02,0.67-2.48,1.57l-6.3-1.57H19.9
	c-0.22,0-0.22,0.22-0.22,0.45l-2.25,9.67c-3.83,0-7.43,1.13-10.58,3.38c-1.57-1.58-4.05-1.58-5.63,0c-1.58,1.57-1.58,4.05,0,5.63
	c0.23,0.23,0.67,0.67,1.12,0.67v1.13c0,6.08,6.98,11.02,15.75,11.02c8.77,0,15.75-4.95,15.75-11.02V21.9
	C35.2,21.22,36.1,19.87,36.1,18.3z M9.1,21.22c0-1.58,1.35-2.7,2.7-2.7c1.57,0,2.7,1.35,2.7,2.7s-1.35,2.7-2.7,2.7
	C10.22,23.92,9.1,22.8,9.1,21.22z M24.85,28.65c-2.02,1.35-4.27,2.25-6.75,2.02c-2.48,0-4.73-0.67-6.75-2.02
	c-0.23-0.23-0.23-0.67,0-1.13c0.23-0.23,0.68-0.23,0.9,0c1.58,1.13,3.6,1.8,5.63,1.58c2.02,0.23,4.05-0.45,5.63-1.58
	c0.23-0.23,0.68-0.23,1.13,0C25.07,27.75,25.07,28.2,24.85,28.65z M24.17,23.92c-1.58,0-2.7-1.35-2.7-2.7s1.35-2.7,2.7-2.7
	c1.57,0,2.7,1.35,2.7,2.7C27.1,22.8,25.75,23.92,24.17,23.92z"/>
</svg>
