<?xml version="1.0" encoding="utf-8"?>
<!-- Generator: Adobe Illustrator 24.1.2, SVG Export Plug-In . SVG Version: 6.00 Build 0)  -->
<svg version="1.1" id="Layer_1" xmlns="http://www.w3.org/2000/svg" xmlns:xlink="http://www.w3.org/1999/xlink" x="0px" y="0px"
	 viewBox="0 0 36.14 36.14" style="enable-background:new 0 0 36.14 36.14;" xml:space="preserve">
<style type="text/css">
	.st0{clip-path:url(#SVGID_2_);}
	.st1{fill:#1EB1E7;}
</style>
<g>
	<defs>
		<rect id="SVGID_1_" x="0.07" y="0.07" width="36" height="36"/>
	</defs>
	<clipPath id="SVGID_2_">
		<use xlink:href="#SVGID_1_"  style="overflow:visible;"/>
	</clipPath>
	<g class="st0">
		<path class="st1" d="M36,6.93c-1.35,0.59-2.77,0.98-4.24,1.16c1.54-0.92,2.69-2.38,3.25-4.08c-1.46,0.84-3.04,1.44-4.69,1.78
			c-1.11-1.19-2.58-1.97-4.18-2.24c-1.6-0.27-3.25,0.01-4.68,0.77c-1.43,0.77-2.57,1.98-3.24,3.46c-0.67,1.48-0.83,3.14-0.46,4.72
			C11.61,12.21,6.17,9.26,2.53,4.81c-0.66,1.13-1.01,2.41-1,3.72c0,1.21,0.3,2.41,0.87,3.48c0.57,1.07,1.4,1.98,2.41,2.66
			c-1.17-0.04-2.32-0.35-3.34-0.92v0.09c0,1.7,0.59,3.36,1.67,4.68c1.08,1.32,2.58,2.23,4.25,2.57c-0.63,0.17-1.28,0.26-1.94,0.26
			c-0.47,0-0.93-0.05-1.38-0.13c0.48,1.47,1.4,2.75,2.63,3.67c1.24,0.92,2.73,1.43,4.27,1.46c-2.61,2.05-5.83,3.15-9.15,3.15
			c-0.59,0-1.17-0.03-1.76-0.1c3.38,2.17,7.32,3.32,11.34,3.32c13.58,0,20.99-11.24,20.99-20.98c0-0.31,0-0.63-0.02-0.94
			c1.45-1.04,2.7-2.33,3.69-3.82L36,6.93z"/>
	</g>
</g>
</svg>
