<?xml version="1.0" encoding="utf-8"?>
<!-- Generator: Adobe Illustrator 24.1.2, SVG Export Plug-In . SVG Version: 6.00 Build 0)  -->
<svg version="1.1" id="Layer_1" xmlns="http://www.w3.org/2000/svg" xmlns:xlink="http://www.w3.org/1999/xlink" x="0px" y="0px"
	 viewBox="0 0 25 25" style="enable-background:new 0 0 25 25;" xml:space="preserve">
<style type="text/css">
	.st0{fill:#59F3F9;}
	.st1{fill:#0A0B0B;}
</style>
<g>
	<path class="st0" d="M5,0h15c2.76,0,5,2.24,5,5v15c0,2.76-2.24,5-5,5H5c-2.76,0-5-2.24-5-5V5C0,2.24,2.24,0,5,0z"/>
	<path class="st1" d="M16.28,8.17H15.2V7.63c0-0.14-0.06-0.28-0.16-0.38c-0.1-0.1-0.24-0.16-0.38-0.16s-0.28,0.06-0.38,0.16
		s-0.16,0.24-0.16,0.38v0.54h-3.24V7.63c0-0.14-0.06-0.28-0.16-0.38c-0.1-0.1-0.24-0.16-0.38-0.16s-0.28,0.06-0.38,0.16
		C9.86,7.34,9.8,7.48,9.8,7.63v0.54H8.72c-0.43,0-0.84,0.17-1.14,0.48C7.27,8.95,7.1,9.36,7.1,9.79v6.5c0,0.43,0.17,0.84,0.47,1.15
		c0.3,0.3,0.72,0.48,1.14,0.48h7.56c0.43,0,0.84-0.17,1.14-0.48c0.3-0.3,0.47-0.72,0.47-1.15v-6.5c0-0.43-0.17-0.84-0.47-1.15
		C17.12,8.34,16.71,8.17,16.28,8.17z M16.82,16.29c0,0.14-0.06,0.28-0.16,0.38c-0.1,0.1-0.24,0.16-0.38,0.16H8.72
		c-0.14,0-0.28-0.06-0.38-0.16s-0.16-0.24-0.16-0.38V12.5h8.63L16.82,16.29L16.82,16.29z M16.82,11.42H8.18V9.79
		c0-0.14,0.06-0.28,0.16-0.38c0.1-0.1,0.24-0.16,0.38-0.16H9.8v0.54c0,0.14,0.06,0.28,0.16,0.38c0.1,0.1,0.24,0.16,0.38,0.16
		s0.28-0.06,0.38-0.16s0.16-0.24,0.16-0.38V9.25h3.24v0.54c0,0.14,0.06,0.28,0.16,0.38s0.24,0.16,0.38,0.16s0.28-0.06,0.38-0.16
		s0.16-0.24,0.16-0.38V9.25h1.08c0.14,0,0.28,0.06,0.38,0.16c0.1,0.1,0.16,0.24,0.16,0.38V11.42z"/>
</g>
</svg>
