<?xml version="1.0" encoding="utf-8"?>
<!-- Generator: Adobe Illustrator 24.1.2, SVG Export Plug-In . SVG Version: 6.00 Build 0)  -->
<svg version="1.1" id="Layer_1" xmlns="http://www.w3.org/2000/svg" xmlns:xlink="http://www.w3.org/1999/xlink" x="0px" y="0px"
	 viewBox="0 0 20 20" style="enable-background:new 0 0 20 20;" xml:space="preserve">
<style type="text/css">
	.st0{fill-rule:evenodd;clip-rule:evenodd;fill:url(#SVGID_1_);}
	.st1{fill-rule:evenodd;clip-rule:evenodd;fill:#FFFFFF;}
</style>
<linearGradient id="SVGID_1_" gradientUnits="userSpaceOnUse" x1="10" y1="20" x2="10" y2="1.956942e-06">
	<stop  offset="0" style="stop-color:#4F4F4F"/>
	<stop  offset="1" style="stop-color:#1F1F1F"/>
</linearGradient>
<path class="st0" d="M5,0C3.67,0,2.4,0.53,1.46,1.46S0,3.67,0,5v10c0,1.33,0.53,2.6,1.46,3.54C2.4,19.47,3.67,20,5,20h10
	c1.33,0,2.6-0.53,3.54-1.46C19.47,17.6,20,16.33,20,15V5c0-1.33-0.53-2.6-1.46-3.54C17.6,0.53,16.33,0,15,0H5z M13.73,8.68
	c0.09-0.1,0.16-0.21,0.21-0.33C13.98,8.23,14,8.1,14,7.97c0-0.13-0.03-0.26-0.09-0.38c-0.05-0.12-0.13-0.23-0.23-0.32
	c-0.1-0.09-0.21-0.16-0.33-0.21C13.23,7.02,13.1,7,12.97,7s-0.26,0.03-0.38,0.09c-0.12,0.05-0.23,0.13-0.32,0.23l-3.08,3.29
	L7.66,9.25C7.46,9.08,7.2,9,6.95,9.02c-0.26,0.02-0.5,0.14-0.67,0.33C6.1,9.55,6.01,9.8,6.03,10.06c0.01,0.26,0.12,0.5,0.31,0.68
	l2.25,2C8.78,12.92,9.04,13.01,9.3,13s0.51-0.12,0.68-0.31L13.73,8.68L13.73,8.68z"/>
<path class="st1" d="M13.73,8.68c0.09-0.1,0.16-0.21,0.21-0.33C13.98,8.23,14,8.1,14,7.97c0-0.13-0.03-0.26-0.09-0.38
	c-0.05-0.12-0.13-0.23-0.23-0.32c-0.1-0.09-0.21-0.16-0.33-0.21C13.23,7.02,13.1,7,12.97,7s-0.26,0.03-0.38,0.09
	c-0.12,0.05-0.23,0.13-0.32,0.23l-3.08,3.29L7.66,9.25C7.46,9.08,7.2,9,6.95,9.02c-0.26,0.02-0.5,0.14-0.67,0.33
	C6.1,9.55,6.01,9.8,6.03,10.06c0.01,0.26,0.12,0.5,0.31,0.68l2.25,2C8.78,12.92,9.04,13.01,9.3,13s0.51-0.12,0.68-0.31L13.73,8.68
	L13.73,8.68z"/>
</svg>
