<?xml version="1.0" encoding="utf-8"?>
<!-- Generator: Adobe Illustrator 24.1.2, SVG Export Plug-In . SVG Version: 6.00 Build 0)  -->
<svg version="1.1" id="Layer_1" xmlns="http://www.w3.org/2000/svg" xmlns:xlink="http://www.w3.org/1999/xlink" x="0px" y="0px"
	 viewBox="0 0 30 30" style="enable-background:new 0 0 30 30;" xml:space="preserve">
<style type="text/css">
	.st0{fill-rule:evenodd;clip-rule:evenodd;fill:#FFFFFF;}
</style>
<path class="st0" d="M3.95,26.84h22.11c0.42,0,0.82,0.17,1.12,0.46s0.46,0.7,0.46,1.12s-0.17,0.82-0.46,1.12S26.47,30,26.05,30H3.95
	c-0.42,0-0.82-0.17-1.12-0.46c-0.3-0.3-0.46-0.7-0.46-1.12s0.17-0.82,0.46-1.12C3.13,27.01,3.53,26.84,3.95,26.84z M16.58,17.64
	l5.12-5.12l2.23,2.23L15,23.69l-8.93-8.93l2.23-2.23l5.12,5.12V0h3.16V17.64z"/>
</svg>
