<?xml version="1.0" encoding="utf-8"?>
<!-- Generator: Adobe Illustrator 24.1.2, SVG Export Plug-In . SVG Version: 6.00 Build 0)  -->
<svg version="1.1" id="Layer_1" xmlns="http://www.w3.org/2000/svg" xmlns:xlink="http://www.w3.org/1999/xlink" x="0px" y="0px"
	 viewBox="0 0 20 20" style="enable-background:new 0 0 20 20;" xml:space="preserve">
<style type="text/css">
	.st0{fill:#FFFFFF;}
</style>
<g>
	<path class="st0" d="M0.01,4.38c0.16-0.57,0.48-1.02,1.03-1.27C1.25,3.02,1.47,2.96,1.7,2.96c5.53,0,11.06,0,16.59,0
		c0.91,0,1.69,0.79,1.7,1.7c0,3.55,0,7.11,0,10.66c0,0.94-0.8,1.7-1.75,1.7c-4.64,0-9.28,0-13.92,0c-0.83,0-1.65-0.02-2.48,0.01
		c-0.77,0.02-1.55-0.46-1.79-1.31c-0.01-0.04-0.03-0.07-0.04-0.11C0.01,11.87,0.01,8.12,0.01,4.38z M2.11,4.17
		C2.16,4.24,2.2,4.28,2.24,4.32c2.41,2.42,4.82,4.84,7.22,7.25c0.34,0.34,0.72,0.34,1.06,0c0.91-0.92,1.82-1.84,2.74-2.75
		c1.49-1.49,2.97-2.98,4.46-4.47c0.05-0.05,0.12-0.09,0.14-0.18C12.61,4.17,7.37,4.17,2.11,4.17z M2.11,15.82
		c5.27,0,10.51,0,15.77,0c-0.03-0.04-0.05-0.06-0.06-0.08c-1.58-1.59-3.17-3.17-4.75-4.76c-0.1-0.1-0.16-0.08-0.25,0.01
		c-0.48,0.49-0.97,0.98-1.46,1.46c-0.79,0.79-1.93,0.79-2.73,0c-0.47-0.47-0.95-0.94-1.41-1.42C7.07,10.87,7,10.9,6.86,11.03
		c-1.53,1.55-3.07,3.08-4.61,4.63C2.21,15.7,2.17,15.75,2.11,15.82z M1.21,5.05c0,3.3,0,6.59,0,9.88c0.08-0.02,0.12-0.08,0.16-0.12
		c1.55-1.55,3.1-3.11,4.66-4.66c0.13-0.13,0.13-0.2,0-0.32c-1.55-1.55-3.1-3.11-4.66-4.66C1.33,5.13,1.29,5.07,1.21,5.05z
		 M18.78,14.94c0-3.3,0-6.59,0-9.89c-0.09,0.02-0.13,0.09-0.18,0.14c-1.54,1.54-3.08,3.09-4.63,4.63c-0.14,0.14-0.14,0.21,0,0.35
		c1.55,1.54,3.09,3.09,4.63,4.63C18.65,14.85,18.69,14.92,18.78,14.94z"/>
</g>
</svg>
