<?xml version="1.0" encoding="utf-8"?>
<!-- Generator: Adobe Illustrator 24.1.2, SVG Export Plug-In . SVG Version: 6.00 Build 0)  -->
<svg version="1.1" id="Layer_1" xmlns="http://www.w3.org/2000/svg" xmlns:xlink="http://www.w3.org/1999/xlink" x="0px" y="0px"
	 viewBox="0 0 100 100" style="enable-background:new 0 0 100 100;" xml:space="preserve">
<style type="text/css">
	.st0{display:none;}
	.st1{display:inline;fill:#59F3F9;}
	.st2{fill:#008FC1;}
	.st3{display:inline;fill:#0A0B0B;}
	.st4{fill:#0A0B0B;}
</style>
<g class="st0">
	<path class="st1" d="M13.7,31.39c0.57,0.27,1.03,0.05,1.47-0.32c0.3-0.25,0.43-0.59,0.52-0.95c0.8-2.95,2.05-5.71,3.57-8.36
		c2.27-3.95,5.16-7.38,8.66-10.29c4.35-3.62,9.33-5.93,14.87-7.04c0.29-0.06,0.6-0.11,0.87-0.22C44.2,4,44.53,3.58,44.62,3.02
		c0.09-0.59-0.25-1.02-0.7-1.35c-0.38-0.28-0.84-0.22-1.26-0.14c-4.57,0.89-8.85,2.53-12.79,5.02c-2.69,1.7-5.11,3.72-7.3,6.05
		c-2.05,2.17-3.86,4.51-5.4,7.06c-1.82,3.02-3.27,6.2-4.2,9.61c-0.07,0.26-0.13,0.52-0.17,0.7C12.84,30.67,13.13,31.12,13.7,31.39z"
		/>
	<path class="st1" d="M83.61,72.8c-0.87,0.37-1.71,0.76-2.43,1.38c-0.66,0.57-1.05,1.28-1.02,2.19c0.02,0.73,0,1.47,0,2.2h-0.01
		c0,0.87,0.11,1.75-0.02,2.6c-0.26,1.7-0.01,1.56-1.76,1.49c-1.09-0.04-2.18-0.24-3.27-0.37c-1.32-0.16-2.65-0.28-3.97-0.47
		c-2.01-0.29-4.01-0.63-6.02-0.92c-2.7-0.39-5.4-0.85-8.08-1.34c-1.01-0.19-2.01-0.53-3.05-0.5c-0.64,0.02-1.08,0.32-1.24,0.83
		c-0.19,0.62-0.01,1.23,0.5,1.61c0.27,0.21,0.58,0.31,0.92,0.37c0.88,0.18,1.76,0.37,2.64,0.57c0.42,0.1,0.44,0.18,0.12,0.5
		c-0.4,0.4-0.75,0.85-1.1,1.3c-2.28,2.83-3.9,5.98-4.65,9.54c-0.28,1.33-0.55,2.68-0.46,4.06c0.05,0.83,0.68,1.44,1.4,1.43
		c0.71-0.01,1.31-0.64,1.38-1.44c0.07-0.76,0.12-1.53,0.24-2.28c0.78-4.73,3.12-8.6,6.51-11.91c0.37-0.36,0.75-0.49,1.26-0.4
		c1.12,0.19,2.24,0.35,3.36,0.52c2.08,0.31,4.15,0.62,6.23,0.91c1.29,0.18,2.58,0.29,3.87,0.47c1.75,0.24,3.51,0.4,5.28,0.35
		c0.99-0.03,1.72-0.47,2.13-1.4c0.4-0.9,0.58-1.84,0.6-2.82c0.02-1.34,0.06-2.67-0.01-4.01c-0.03-0.73,0.28-1.12,0.86-1.42
		c0.38-0.2,0.8-0.35,1.13-0.64c0.46-0.42,0.61-1.22,0.3-1.74C84.97,73.01,84.23,72.54,83.61,72.8z"/>
	<path class="st1" d="M91.26,29.26c-0.93-0.69-1.97-0.91-3.11-0.91c-8.56,0.01-17.11,0-25.67,0c-3.74,0-7.49-0.01-11.23,0.01
		c-3.52,0.02-5.84,2.83-5.77,5.79c0.01,0.23,0.01,0.47,0,0.7c-0.04,0.62-0.09,0.68-0.71,0.72c-0.27,0.02-0.53,0-0.8,0
		c-5.18,0-10.36,0-15.54,0c-5.25,0-10.49-0.02-15.74,0.01c-2.36,0.01-4.1,1.17-5.18,3.19c-1.06,1.98-0.93,3.99,0.26,5.9
		c0.79,1.27,1.89,2.16,3.36,2.52c0.68,0.17,1.01,0.51,1.09,1.22c0.09,0.76,0.3,1.51,0.5,2.25c1.33,4.88,3.43,9.4,6.23,13.6
		c1.43,2.14,3.04,4.14,4.69,6.11c2.34,2.78,2.26,6.48,0.06,9.1c-1.37,1.64-2.87,3.16-4.31,4.74c-0.77,0.84-1.54,1.67-2.3,2.51
		c-0.13,0.15-0.25,0.31-0.34,0.49c-0.4,0.85,0.07,1.75,0.99,1.88c0.56,0.08,1.04-0.02,1.45-0.48c1.01-1.11,2.06-2.19,3.07-3.3
		c1.22-1.33,2.42-2.67,3.63-4.01c1.42-1.58,2.1-3.49,2.28-5.56c0.22-2.52-0.48-4.83-2.04-6.85c-1.02-1.32-2.14-2.56-3.14-3.89
		c-2.23-2.98-4.16-6.13-5.6-9.57c-0.98-2.35-1.83-4.73-2.32-7.24c-0.13-0.67-0.06-0.76,0.61-0.8c0.17-0.01,0.33,0,0.5,0
		c9.36,0,18.72,0,28.07,0c1.17,0,1.17,0.01,1.4,1.18c0.02,0.1,0.02,0.2,0.04,0.3c0.44,1.96,1.28,3.73,2.61,5.24
		c2.46,2.81,5.63,4.08,9.33,4.09c5.98,0.01,11.96,0,17.95,0c0.97,0,1.93-0.04,2.89-0.15c1.81-0.21,3.3-0.98,4.59-2.22
		c0.61-0.58,1.09-1.26,1.66-1.87c0.22-0.24,0.43-0.29,0.66-0.01c0.93,1.13,1.87,2.26,2.79,3.4c0.27,0.34,0.21,0.53-0.19,0.67
		c-0.25,0.09-0.52,0.14-0.77,0.21c-0.93,0.27-1.89,0.47-2.78,0.84c-1.73,0.72-1.84,1.51-1.58,2.89c0.07,0.39,0.2,0.78,0.31,1.16
		c0.29,0.96,0.59,1.91,0.88,2.87c0.2,0.69,0.1,0.88-0.62,0.85c-1.67-0.07-3.33,0.29-5,0.23c-0.33-0.01-0.67,0-0.98,0.15
		c-0.59,0.28-0.93,0.87-0.84,1.46c0.11,0.75,0.49,1.11,1.27,1.18c0.27,0.02,0.53,0,0.8,0.01c2.24,0.09,4.46-0.32,6.7-0.23
		c0.1,0,0.2-0.01,0.3-0.02c0.3-0.05,0.59-0.1,0.89-0.17c0.87-0.2,1.3-0.95,1.03-1.82c-0.53-1.69-1.08-3.37-1.61-5.06
		c-0.28-0.9-0.23-0.99,0.7-1.25c0.68-0.19,1.36-0.33,2.04-0.52c0.71-0.19,1.42-0.4,2.06-0.77c0.73-0.42,1.12-1.01,1.03-1.89
		c-0.05-0.49-0.21-0.89-0.48-1.29c-0.94-1.43-2.09-2.68-3.18-3.99c-0.73-0.87-0.68-0.98,0.39-1.28c0.19-0.05,0.38-0.11,0.57-0.18
		c2.16-0.73,4.06-2.96,4.07-5.43c0.02-4.38,0.03-8.76-0.01-13.13C93.18,31.32,92.46,30.14,91.26,29.26z M45.48,43.88
		c-0.01,0.62-0.09,0.68-0.7,0.72c-0.23,0.01-0.47,0-0.7,0c-5.14,0-10.29,0-15.43,0c-5.18,0-10.36-0.01-15.53,0.01
		c-0.84,0-1.57-0.2-2.25-0.69c-1.63-1.17-1.35-3.98,0.07-4.87c0.77-0.49,1.56-0.69,2.46-0.69c9.39,0.01,18.77,0.01,28.16,0.01
		c1.04,0,2.07-0.01,3.11,0c0.75,0.01,0.81,0.07,0.82,0.8C45.49,40.74,45.49,42.31,45.48,43.88z M58.73,55.1
		c-0.03,0.06-0.16,0.11-0.25,0.12c-4.99,0.52-8.79-2.29-9.93-6.78c-0.19-0.77-0.29-1.57-0.28-2.38c0.03-1.87,0.01-3.74,0.01-5.61
		c0-2,0-4,0-6.01c0-1.03,0.36-1.87,1.13-2.57c0.56-0.5,1.24-0.68,1.93-0.71c1.33-0.06,2.67-0.02,4-0.03c0.38,0,0.47,0.15,0.32,0.5
		c-0.49,1.09-0.56,2.24-0.56,3.42c0.02,3.87-0.03,7.74,0.02,11.61c0.03,2.39,0.75,4.59,2.15,6.55c0.41,0.57,0.84,1.12,1.35,1.6
		C58.7,54.9,58.76,55.03,58.73,55.1z M90.41,45.15c-0.01,2.02-0.9,3.15-2.83,3.71c-1.6,0.46-3.03,1.22-4.19,2.44
		c-0.62,0.65-1.24,1.3-1.83,1.99c-1.05,1.25-2.38,1.97-4.09,1.96c-3.71-0.03-7.41,0.02-11.12-0.02c-4.2-0.05-7.78-3.44-8.27-7.57
		c-0.15-1.27-0.16-2.53-0.16-3.79c0-3.04,0-6.08,0-9.12c0-1.11,0.24-2.11,1.15-2.87c0.4-0.33,0.83-0.55,1.36-0.55
		c0.07,0,0.13,0,0.2,0c9.08-0.24,18.16-0.17,27.24-0.18c0.27,0,0.54,0.01,0.8,0.06c1.09,0.23,1.74,0.99,1.75,2.12
		c0.02,2.04,0.01,4.07,0.01,6.11C90.41,41.34,90.42,43.24,90.41,45.15z"/>
	<path class="st1" d="M48.69,4.12c0.83,3.66,3.69,6.11,7.46,6.53c0.73,0.08,1.46,0.15,2.18,0.3c5.39,1.08,9.99,3.67,13.97,7.4
		c2,1.87,3.9,3.84,5.51,6.07c0.21,0.29,0.49,0.56,0.78,0.78c0.66,0.49,1.45,0.33,1.91-0.36c0.37-0.55,0.35-1.14-0.11-1.76
		c-1.28-1.76-2.68-3.41-4.18-4.98c-2.18-2.28-4.6-4.27-7.28-5.93c-3.77-2.34-7.81-3.88-12.26-4.29c-1.22-0.11-2.34-0.52-3.32-1.29
		c-0.81-0.64-1.33-1.48-1.67-2.45c-0.1-0.28-0.02-0.46,0.31-0.47c0.2,0,0.4-0.02,0.6,0c1.96,0.12,3.92,0.28,5.86,0.57
		c3.45,0.51,6.8,1.38,10.04,2.66c3.89,1.53,7.45,3.64,10.56,6.42c3.28,2.93,6.07,6.29,8.16,10.19c0.25,0.47,0.51,0.94,0.84,1.36
		c0.55,0.71,1.3,0.82,1.93,0.35c0.59-0.44,0.77-1.14,0.4-1.88c-0.69-1.41-1.51-2.76-2.39-4.05c-1.91-2.82-4.06-5.44-6.63-7.72
		c-2.34-2.07-4.85-3.88-7.59-5.35c-4-2.14-8.26-3.58-12.72-4.41c-2.99-0.56-5.99-0.96-9.03-0.93c-0.43,0-0.87,0.02-1.3-0.08
		c-1.16-0.28-2.38,0.27-2.22,1.9C48.45,3.14,48.58,3.63,48.69,4.12z"/>
</g>
<path class="st2" d="M20,0h60c11.04,0,20,8.96,20,20v60c0,11.04-8.96,20-20,20H20C8.96,100,0,91.04,0,80V20C0,8.96,8.96,0,20,0z"/>
<g class="st0">
	<path class="st3" d="M50.3,69.76c-6.44,0.04-12.29-1.13-17.84-3.68c-3.86-1.77-7.36-4.12-10.55-6.92
		c-2.16-1.88-4.13-3.95-5.98-6.13c-1.11-1.32-1.13-2.75-0.04-4.05c3.39-4.02,7.12-7.67,11.43-10.71c4.35-3.08,9.05-5.4,14.24-6.71
		c3.61-0.91,7.28-1.23,10.98-0.95c5.69,0.42,10.97,2.2,15.92,4.98c4.82,2.72,9.02,6.22,12.82,10.22c0.99,1.05,1.95,2.12,2.87,3.23
		c1.02,1.23,1.03,2.66,0.01,3.87c-3.6,4.3-7.68,8.05-12.48,10.97c-4.37,2.65-9.06,4.42-14.11,5.27
		C55.05,69.58,52.52,69.8,50.3,69.76z M49.93,67.04c8.94,0.1,16.77-7.06,16.88-16.62c0.1-9.63-7.68-16.88-16.59-16.99
		c-8.97-0.12-16.97,7.04-17.03,16.71C33.12,59.77,40.97,67.07,49.93,67.04z"/>
	<path class="st3" d="M22.82,22.18c0.01-0.68,0.75-1.12,1.36-0.79c0.15,0.08,0.28,0.22,0.41,0.34c1.82,1.82,3.64,3.65,5.46,5.48
		c0.16,0.16,0.32,0.32,0.41,0.54c0.15,0.37,0.06,0.77-0.24,1.03c-0.29,0.25-0.62,0.34-0.98,0.15c-0.15-0.08-0.3-0.19-0.42-0.31
		c-1.86-1.86-3.71-3.72-5.57-5.58C23.01,22.8,22.8,22.55,22.82,22.18z"/>
	<path class="st3" d="M23.85,78.68c-0.74-0.01-1.19-0.74-0.87-1.35c0.1-0.19,0.27-0.36,0.42-0.52c1.76-1.77,3.52-3.54,5.29-5.31
		c0.14-0.14,0.28-0.29,0.45-0.39c0.37-0.23,0.8-0.16,1.11,0.14c0.31,0.31,0.38,0.73,0.16,1.11c-0.09,0.15-0.22,0.28-0.34,0.4
		c-1.82,1.82-3.63,3.65-5.44,5.46C24.39,78.46,24.15,78.67,23.85,78.68z"/>
	<path class="st3" d="M70.4,70.96c0.4,0.04,0.66,0.28,0.91,0.54c1.7,1.71,3.42,3.43,5.12,5.14c0.18,0.18,0.36,0.36,0.51,0.56
		c0.18,0.25,0.27,0.53,0.13,0.86c-0.25,0.6-0.89,0.81-1.42,0.43c-0.16-0.12-0.3-0.27-0.44-0.42c-1.73-1.73-3.45-3.46-5.17-5.2
		c-0.18-0.18-0.37-0.34-0.48-0.57C69.27,71.67,69.75,70.93,70.4,70.96z"/>
	<path class="st3" d="M50.95,18.31c0,1.21,0,2.43,0,3.64c0,0.18,0.01,0.36-0.01,0.53c-0.06,0.52-0.39,0.83-0.89,0.84
		c-0.48,0.01-0.86-0.31-0.95-0.8c-0.02-0.13-0.01-0.25-0.01-0.38c0-2.55,0-5.11,0-7.66c0-0.1-0.01-0.2,0.01-0.31
		c0.07-0.6,0.45-0.96,0.99-0.93c0.5,0.03,0.84,0.39,0.86,0.96c0.02,0.6,0.01,1.21,0.01,1.82C50.95,16.8,50.95,17.55,50.95,18.31z"/>
	<path class="st3" d="M77.12,22.3c-0.04,0.28-0.16,0.53-0.36,0.73c-1.88,1.88-3.74,3.77-5.63,5.64c-0.42,0.42-0.83,0.45-1.23,0.19
		s-0.56-0.77-0.32-1.19c0.11-0.19,0.28-0.36,0.43-0.52c1.75-1.76,3.5-3.51,5.25-5.27c0.16-0.16,0.31-0.34,0.52-0.44
		C76.39,21.16,77.13,21.63,77.12,22.3z"/>
	<path class="st3" d="M50.95,81.64c0,1.24,0,2.48,0,3.71c0,0.18,0.01,0.36-0.01,0.53c-0.05,0.48-0.38,0.81-0.82,0.85
		c-0.47,0.04-0.89-0.25-1.01-0.74c-0.04-0.17-0.03-0.35-0.03-0.53c0-2.52,0-5.05,0-7.58c0-0.13-0.01-0.25,0.01-0.38
		c0.07-0.54,0.47-0.87,0.98-0.84c0.49,0.02,0.83,0.34,0.86,0.88c0.03,0.68,0.01,1.36,0.01,2.05C50.95,80.27,50.95,80.96,50.95,81.64
		z"/>
	<path class="st3" d="M49.93,62.95c-6.5,0.06-12.69-5.24-12.65-12.79c0.04-7.48,6.25-12.73,12.9-12.63
		c6.58,0.1,12.61,5.4,12.54,12.85C62.64,57.83,56.49,63.06,49.93,62.95z M50.07,45.86c-2.45-0.04-4.4,1.86-4.48,4.27
		c-0.07,2.09,1.53,4.48,4.33,4.51c2.94,0.03,4.46-2.35,4.47-4.29C54.41,47.85,52.55,45.89,50.07,45.86z"/>
</g>
<g>
	<path class="st4" d="M29,50.06c0.03,4.58,1.43,8.7,4.22,12.34c0.17,0.22,0.34,0.43,0.5,0.65c0.34,0.5,0.3,1.1-0.09,1.43
		c-0.42,0.34-1.08,0.27-1.47-0.2c-0.7-0.84-1.35-1.73-1.92-2.67c-1.3-2.15-2.23-4.45-2.74-6.91c-0.38-1.84-0.61-3.7-0.5-5.58
		c0.18-3.01,0.84-5.91,2.14-8.65c1.18-2.48,2.76-4.69,4.75-6.57c3.45-3.27,7.55-5.29,12.26-5.91c4.99-0.66,9.73,0.18,14.14,2.7
		c1.56,0.89,2.96,1.97,4.29,3.17c0.2,0.18,0.4,0.37,0.51,0.64c0.16,0.4,0.06,0.86-0.24,1.13c-0.32,0.29-0.76,0.34-1.14,0.11
		c-0.19-0.12-0.36-0.28-0.52-0.44c-3.05-2.86-6.64-4.65-10.78-5.3c-0.63-0.1-1.27-0.16-1.9-0.23c-0.41-0.04-0.45,0.04-0.42,0.46
		c0.04,0.49,0.26,0.76,0.73,0.95c3.19,1.28,5.78,3.37,7.93,6.03c0.16,0.19,0.31,0.4,0.43,0.62c0.3,0.53,0.19,1.1-0.24,1.41
		c-0.45,0.32-0.99,0.22-1.38-0.29c-0.37-0.47-0.71-0.95-1.11-1.39c-1.74-1.93-3.8-3.41-6.17-4.47c-0.4-0.18-0.69-0.16-1.03,0.17
		c-0.73,0.7-1.64,1-2.65,0.83c-0.48-0.08-0.7,0.09-0.93,0.47c-1.18,1.92-2.12,3.94-2.88,6.05c-0.77,2.13-1.37,4.31-1.75,6.54
		c-0.12,0.67-0.2,1.35-0.26,2.04c-0.03,0.3,0.06,0.47,0.31,0.62c0.5,0.3,0.9,0.69,1.19,1.2c0.27,0.47,0.42,0.98,0.41,1.5
		c-0.01,0.41,0.18,0.57,0.52,0.67c0.77,0.23,1.53,0.46,2.29,0.7c0.22,0.07,0.45,0.11,0.65,0.2c0.41,0.18,0.61,0.59,0.53,1.01
		c-0.08,0.44-0.45,0.79-0.89,0.82c-0.23,0.02-0.45-0.03-0.68-0.09c-0.88-0.23-1.78-0.43-2.61-0.83c-0.61-0.29-1.05-0.05-1.49,0.31
		c-0.24,0.2-0.18,0.44-0.15,0.69c0.13,0.91,0.3,1.8,0.52,2.69c0.06,0.22,0.1,0.45,0.11,0.67c0.01,0.55-0.3,0.93-0.82,1.01
		c-0.45,0.07-0.91-0.19-1.06-0.68c-0.24-0.79-0.41-1.59-0.55-2.4c-0.07-0.38-0.13-0.77-0.16-1.15c-0.03-0.39-0.24-0.59-0.59-0.74
		c-0.85-0.38-1.44-1.02-1.75-1.91c-0.12-0.36-0.17-0.72-0.12-1.08c0.07-0.54-0.15-0.89-0.55-1.22c-1.67-1.35-3.01-2.99-4.16-4.79
		c-0.54-0.85-0.98-1.76-1.37-2.68c-0.04-0.1-0.07-0.25-0.2-0.24c-0.13,0.01-0.15,0.15-0.18,0.26C29.34,45.78,28.94,47.88,29,50.06z
		 M31.48,40.61c0,0.28,0.1,0.54,0.17,0.8c0.61,2.06,1.61,3.92,2.94,5.6c0.78,0.99,1.65,1.88,2.62,2.69c0.3,0.25,0.54,0.28,0.85,0.07
		c0.07-0.05,0.16-0.09,0.24-0.12c0.32-0.11,0.46-0.33,0.48-0.67c0.03-0.45,0.09-0.91,0.16-1.36c0.63-4.09,1.84-8,3.68-11.71
		c0.46-0.92,0.97-1.81,1.54-2.66c0.21-0.32,0.29-0.61,0.08-0.95c-0.06-0.1-0.08-0.21-0.13-0.32c-0.18-0.42-0.28-0.5-0.72-0.44
		c-0.56,0.07-1.13,0.15-1.69,0.27c-1.23,0.27-2.46,0.55-3.53,1.24c-2.73,1.74-4.86,4.05-6.48,6.84
		C31.56,40.12,31.45,40.35,31.48,40.61z M39.56,53.67c0.59,0,1.11-0.53,1.12-1.15c0.01-0.63-0.48-1.11-1.12-1.12
		c-0.58-0.01-1.16,0.53-1.18,1.1C38.36,53.1,38.93,53.66,39.56,53.67z M46,30.99c-0.01,0.68,0.43,1.14,1.09,1.16
		c0.56,0.01,1.1-0.51,1.12-1.08c0.02-0.59-0.55-1.17-1.12-1.16C46.45,29.92,46.01,30.36,46,30.99z"/>
	<path class="st4" d="M76.83,17.54c0.85-0.03,1.66,0.04,2.46,0.28c2.01,0.61,3.19,1.96,3.6,4c0.29,1.43,0.18,2.86-0.07,4.29
		c-0.36,2.06-1.02,4.03-1.83,5.95c-0.17,0.41-0.2,0.72,0.07,1.13c1.49,2.28,0.02,5.16-2.7,5.3c-0.53,0.03-0.83,0.22-1.09,0.65
		c-1.65,2.69-3.49,5.25-5.42,7.74c-0.38,0.49-0.5,0.97-0.42,1.58c0.15,1.07,0.1,2.14,0.01,3.21c-0.11,1.28-0.3,2.54-0.61,3.78
		c-0.93,3.66-2.66,6.88-5.23,9.66c-2.98,3.23-6.61,5.37-10.84,6.48c-0.75,0.2-1.5,0.39-2.29,0.4c-0.73,0.01-1.02-0.59-0.93-1.15
		c0.08-0.47,0.39-0.69,0.84-0.77c0.79-0.15,1.57-0.3,2.34-0.52c2.91-0.82,5.49-2.21,7.77-4.19c3.51-3.04,5.69-6.86,6.64-11.39
		c0.22-1.05,0.37-2.11,0.36-3.19c0-0.14,0-0.27-0.01-0.41c-0.01-0.06-0.02-0.16-0.07-0.18c-0.09-0.05-0.17,0.01-0.23,0.08
		c-0.34,0.4-0.68,0.8-1.02,1.2c-1.08,1.3-2.2,2.57-3.32,3.83c-1.33,1.5-2.73,2.95-4.09,4.43c-0.05,0.05-0.09,0.1-0.14,0.15
		c-0.45,0.41-1.11,0.43-1.49,0.05c-0.4-0.41-0.41-0.92,0.03-1.4c0.61-0.68,1.24-1.34,1.87-2c2.04-2.19,4.03-4.42,5.94-6.72
		c2.62-3.14,5.12-6.37,7.39-9.78c0.44-0.66,0.85-1.35,1.3-2.02c0.18-0.27,0.17-0.47-0.04-0.73c-0.52-0.64-0.79-1.38-0.78-2.21
		c0.02-1.82,1.48-3.31,3.3-3.37c0.11,0,0.23-0.01,0.34,0c0.41,0.05,0.61-0.15,0.76-0.52c0.76-1.87,1.39-3.77,1.71-5.77
		c0.2-1.22,0.28-2.45-0.11-3.66c-0.31-0.97-0.96-1.6-1.89-1.93c-0.92-0.33-1.86-0.4-2.83-0.29c-2.44,0.27-4.7,1.11-6.93,2.08
		c-3.28,1.43-6.32,3.28-9.3,5.23c-0.31,0.2-0.6,0.42-0.92,0.6c-0.49,0.27-1.09,0.15-1.36-0.24c-0.31-0.44-0.22-1.02,0.29-1.38
		c0.74-0.53,1.51-1.04,2.27-1.53c2.13-1.37,4.32-2.66,6.6-3.77c2.43-1.19,4.92-2.2,7.59-2.73C75.17,17.6,76,17.5,76.83,17.54z
		 M79.63,35.11c0.01-0.82-0.54-1.4-1.35-1.41c-0.84-0.02-1.43,0.56-1.43,1.4c0,0.81,0.57,1.38,1.38,1.38
		C79.05,36.48,79.62,35.92,79.63,35.11z"/>
	<path class="st4" d="M39.39,62.5c0.34-0.02,0.77,0.04,1.16,0.23c0.31,0.15,0.53,0.12,0.79-0.12c1.76-1.59,3.51-3.2,5.25-4.82
		c2.74-2.56,5.32-5.28,8.03-7.87c1.11-1.06,2.11-2.22,3.23-3.26c0.4-0.37,0.5-0.67,0.25-1.23c-0.57-1.28-0.34-2.53,0.59-3.57
		c0.91-1.02,2.08-1.38,3.42-1.01c0.42,0.12,0.65,0.02,0.92-0.31c1.9-2.28,3.75-4.61,5.44-7.05c0.68-0.98,1.3-1.99,1.86-3.03
		c0.15-0.28,0.29-0.57,0.4-0.87c0.09-0.24,0.37-0.52,0.11-0.74c-0.23-0.19-0.51,0.06-0.76,0.16c-1.06,0.44-2.02,1.05-2.99,1.67
		c-0.31,0.2-0.6,0.42-0.92,0.6c-0.57,0.33-1.12,0.21-1.43-0.29c-0.29-0.47-0.16-0.98,0.36-1.37c0.29-0.22,0.6-0.42,0.91-0.61
		c1.2-0.76,2.41-1.5,3.74-2c0.57-0.22,1.14-0.31,1.75-0.27c0.88,0.06,1.47,0.66,1.53,1.55c0.05,0.78-0.18,1.49-0.49,2.18
		c-0.83,1.84-1.96,3.5-3.12,5.15c-0.42,0.6-0.86,1.19-1.3,1.77c-0.21,0.27-0.22,0.5-0.03,0.8c0.7,1.08,1.28,2.22,1.76,3.41
		c0.06,0.15,0.12,0.3,0.15,0.45c0.1,0.54-0.16,0.99-0.63,1.15c-0.47,0.16-0.95-0.04-1.2-0.52c-0.22-0.43-0.4-0.87-0.59-1.31
		c-0.23-0.55-0.55-1.05-0.84-1.57c-0.15-0.27-0.26-0.28-0.46-0.04c-0.66,0.79-1.31,1.59-1.96,2.37c-0.19,0.23-0.05,0.42,0.04,0.63
		c0.52,1.22,0.38,2.38-0.41,3.43c-0.81,1.07-1.93,1.53-3.25,1.3c-0.51-0.09-0.83-0.01-1.2,0.36c-3.22,3.25-6.43,6.5-9.7,9.69
		c-2.06,2.01-4.14,3.99-6.35,5.85c-0.72,0.6-1.23,1.21-0.78,2.19c0.15,1.74-1.02,3.27-2.59,3.64c-0.81,0.19-1.6,0.11-2.33-0.28
		c-0.38-0.2-0.64-0.14-0.97,0.12c-1.95,1.55-3.94,3.04-6.07,4.35c-0.91,0.56-1.84,1.1-2.85,1.49c-0.43,0.16-0.87,0.27-1.33,0.34
		c-1.14,0.16-2.02-0.62-2.03-1.77c-0.01-0.58,0.17-1.12,0.37-1.66c0.37-0.99,0.88-1.91,1.45-2.79c0.63-0.98,1.3-1.93,1.96-2.89
		c0.1-0.15,0.22-0.3,0.36-0.41c0.38-0.32,0.83-0.33,1.2-0.05c0.36,0.27,0.49,0.72,0.32,1.16c-0.1,0.26-0.27,0.47-0.43,0.7
		c-1.03,1.43-2.03,2.88-2.77,4.48c-0.13,0.29-0.25,0.59-0.35,0.89c-0.07,0.21,0.05,0.32,0.26,0.25c0.28-0.09,0.56-0.2,0.83-0.33
		c1.72-0.83,3.29-1.89,4.82-3c1.01-0.74,2-1.52,3.01-2.26c0.35-0.26,0.49-0.5,0.41-0.96c-0.21-1.25,0.13-2.34,1.1-3.22
		C37.68,62.74,38.43,62.5,39.39,62.5z M39.31,64.45c-0.77-0.01-1.47,0.67-1.46,1.42c0,0.77,0.68,1.43,1.46,1.43
		c0.72-0.01,1.38-0.69,1.39-1.42C40.69,65.14,40.04,64.46,39.31,64.45z M61.22,42.74c-0.81,0.01-1.37,0.58-1.37,1.39
		c0,0.81,0.56,1.38,1.37,1.39c0.84,0.01,1.42-0.59,1.41-1.43C62.61,43.29,62.03,42.74,61.22,42.74z"/>
	<path class="st4" d="M15.31,79.4c0.03-1.76,0.29-3.17,0.68-4.56c0.48-1.67,1.1-3.29,1.85-4.86c0.17-0.35,0.14-0.6-0.09-0.93
		c-0.79-1.14-0.87-2.35-0.15-3.54c0.68-1.14,1.74-1.65,3.06-1.57c0.39,0.02,0.52-0.15,0.68-0.42c1.16-1.89,2.39-3.73,3.7-5.52
		c0.11-0.15,0.22-0.3,0.35-0.42c0.35-0.33,0.89-0.37,1.25-0.1c0.39,0.29,0.52,0.85,0.26,1.28c-0.3,0.49-0.64,0.95-0.96,1.41
		C24.96,61.58,24,63,23.09,64.45c-0.23,0.36-0.22,0.63,0.01,0.99c0.95,1.51,0.51,3.91-1.58,4.73c-0.37,0.15-0.76,0.17-1.14,0.16
		c-0.36-0.01-0.58,0.11-0.74,0.46c-0.97,2.15-1.82,4.34-2.2,6.68c-0.15,0.93-0.18,1.88-0.03,2.8c0.3,1.92,1.42,2.91,3.61,3.07
		c1.64,0.12,3.22-0.25,4.78-0.73c2.7-0.83,5.23-2.05,7.68-3.43c3.31-1.86,6.45-3.98,9.5-6.24c0.37-0.27,0.73-0.55,1.08-0.84
		c0.1-0.08,0.27-0.15,0.22-0.31c-0.04-0.15-0.22-0.15-0.34-0.18c-0.24-0.07-0.49-0.13-0.73-0.2c-0.13-0.04-0.27-0.07-0.39-0.12
		c-0.48-0.22-0.7-0.71-0.56-1.19c0.14-0.47,0.61-0.77,1.13-0.67c0.54,0.1,1.06,0.27,1.6,0.38c1.95,0.41,1.49,0.4,2.93-0.77
		c1.22-0.99,2.4-2.04,3.59-3.07c0.12-0.1,0.23-0.22,0.36-0.32c0.28-0.22,0.3-0.43,0.15-0.77c-0.56-1.25-0.43-2.45,0.41-3.54
		c0.87-1.13,2.35-1.58,3.75-1.13c1.29,0.41,2.26,1.66,2.32,3.02c0.11,2.72-2.38,4.05-4.18,3.52c-0.39-0.12-0.67-0.02-0.98,0.25
		c-1.47,1.3-2.95,2.59-4.47,3.84c-2.1,1.73-4.24,3.4-6.45,4.97c-2.32,1.66-4.7,3.24-7.18,4.66c-2.8,1.6-5.68,3.04-8.77,4.01
		c-1.47,0.46-2.96,0.77-4.49,0.87c-1.22,0.08-2.43-0.11-3.54-0.63c-1.45-0.67-2.39-1.81-2.81-3.35
		C15.41,80.63,15.26,79.87,15.31,79.4z M55.1,64.86c0.81-0.01,1.37-0.58,1.37-1.39c0-0.84-0.59-1.41-1.44-1.39
		c-0.8,0.02-1.35,0.61-1.34,1.42C53.7,64.3,54.29,64.86,55.1,64.86z M20.33,65.93c-0.67,0.01-1.19,0.55-1.19,1.23
		c0,0.68,0.59,1.26,1.26,1.24c0.67-0.02,1.23-0.63,1.21-1.31C21.58,66.46,20.99,65.92,20.33,65.93z"/>
</g>
</svg>
