<?xml version="1.0" encoding="utf-8"?>
<!-- Generator: Adobe Illustrator 24.1.2, SVG Export Plug-In . SVG Version: 6.00 Build 0)  -->
<svg version="1.1" id="Layer_1" xmlns="http://www.w3.org/2000/svg" xmlns:xlink="http://www.w3.org/1999/xlink" x="0px" y="0px"
	 viewBox="0 0 30 30" style="enable-background:new 0 0 30 30;" xml:space="preserve">
<style type="text/css">
	.st0{fill:#FFFFFF;}
</style>
<path class="st0" d="M15.02,14.92c-0.01,0-0.01,0-0.02,0c-0.01,0-0.02,0-0.02,0c-1.86,0-3.5-0.47-4.47,0.42
	c-0.58,0.53-0.83,1.18-0.83,1.87c0,2.89,2.32,3.25,5.3,3.25h0.04c2.98,0,5.3-0.36,5.3-3.25c0-0.69-0.24-1.34-0.83-1.87
	C18.52,14.45,16.88,14.92,15.02,14.92z M12.49,18.88c-0.57,0-1.03-0.64-1.03-1.42c0-0.78,0.46-1.42,1.03-1.42s1.03,0.64,1.03,1.42
	C13.52,18.24,13.06,18.88,12.49,18.88z M17.51,18.88c-0.57,0-1.03-0.64-1.03-1.42c0-0.78,0.46-1.42,1.03-1.42
	c0.57,0,1.03,0.64,1.03,1.42C18.54,18.24,18.08,18.88,17.51,18.88z M15,0C6.72,0,0,6.72,0,15c0,8.28,6.72,15,15,15
	c8.28,0,15-6.72,15-15C30,6.72,23.28,0,15,0z M16.37,21.16c-0.27,0-0.8,0-1.37,0c-0.57,0-1.1,0-1.37,0c-1.19,0-5.89-0.09-5.89-5.76
	c0-1.31,0.45-2.26,1.18-3.06c-0.12-0.29-0.12-1.93,0.5-3.49c0,0,1.43,0.16,3.59,1.64c0.45-0.13,1.22-0.19,1.99-0.19
	c0.77,0,1.53,0.06,1.99,0.19c2.16-1.48,3.59-1.64,3.59-1.64c0.62,1.57,0.62,3.21,0.5,3.49c0.73,0.8,1.18,1.75,1.18,3.06
	C22.26,21.07,17.56,21.16,16.37,21.16z"/>
</svg>
