<?xml version="1.0" encoding="utf-8"?>
<!-- Generator: Adobe Illustrator 24.1.2, SVG Export Plug-In . SVG Version: 6.00 Build 0)  -->
<svg version="1.1" id="Layer_1" xmlns="http://www.w3.org/2000/svg" xmlns:xlink="http://www.w3.org/1999/xlink" x="0px" y="0px"
	 viewBox="0 0 20 20" style="enable-background:new 0 0 20 20;" xml:space="preserve">
<style type="text/css">
	.st0{fill:#7ED1E1;}
</style>
<path class="st0" d="M10,0C7.3,0.05,4.73,1.17,2.86,3.11C0.99,5.05-0.04,7.66,0,10.36V20h3c0.33,0.01,0.65-0.11,0.89-0.33
	c0.24-0.22,0.38-0.53,0.4-0.86v-4.76c-0.01-0.33-0.16-0.64-0.4-0.86C3.65,12.96,3.33,12.84,3,12.86H1.43v-2.5
	C1.39,8.04,2.26,5.8,3.87,4.12S7.68,1.48,10,1.43c2.32,0.05,4.52,1.02,6.13,2.69s2.48,3.92,2.44,6.23v2.5H17
	c-0.33-0.01-0.65,0.11-0.89,0.33c-0.24,0.22-0.38,0.53-0.4,0.86v4.76c0.01,0.33,0.16,0.64,0.4,0.86c0.24,0.22,0.56,0.34,0.89,0.33h3
	v-9.64c0.04-2.7-0.98-5.3-2.86-7.24C15.27,1.17,12.7,0.05,10,0z"/>
</svg>
