<?xml version="1.0" encoding="utf-8"?>
<!-- Generator: Adobe Illustrator 24.1.2, SVG Export Plug-In . SVG Version: 6.00 Build 0)  -->
<svg version="1.1" id="Layer_1" xmlns="http://www.w3.org/2000/svg" xmlns:xlink="http://www.w3.org/1999/xlink" x="0px" y="0px"
	 viewBox="0 0 20 20" style="enable-background:new 0 0 20 20;" xml:space="preserve">
<style type="text/css">
	.st0{fill-rule:evenodd;clip-rule:evenodd;fill:#7ED1E1;}
</style>
<g>
	<polygon class="st0" points="4.29,10 10,15.69 15.71,10 10,4.31 	"/>
	<path class="st0" d="M19.56,8.95l-8.51-8.48C10.77,0.19,10.39,0.04,10,0.04S9.23,0.19,8.95,0.47L0.44,8.95C0.16,9.23,0,9.61,0,10
		c0,0.39,0.16,0.77,0.43,1.05l8.51,8.48c0.14,0.14,0.3,0.25,0.48,0.32c0.18,0.07,0.37,0.11,0.57,0.11c0.2,0,0.39-0.04,0.57-0.11
		c0.18-0.07,0.34-0.18,0.48-0.32l8.51-8.48C19.84,10.77,20,10.39,20,10C20,9.61,19.84,9.23,19.56,8.95z M18.55,10.04l-8.51,8.48
		c-0.01,0.01-0.03,0.02-0.04,0.02s-0.03-0.01-0.04-0.02l-8.51-8.48C1.44,10.03,1.43,10.01,1.43,10c0-0.02,0.01-0.03,0.02-0.04
		l8.51-8.48c0.01-0.01,0.01-0.01,0.02-0.01c0.01,0,0.02,0,0.02,0v0c0.01,0,0.02,0,0.02,0c0.01,0,0.01,0.01,0.02,0.01l8.51,8.48
		c0.01,0.01,0.02,0.03,0.02,0.04C18.57,10.02,18.56,10.03,18.55,10.04z"/>
</g>
</svg>
