<?xml version="1.0" encoding="utf-8"?>
<!-- Generator: Adobe Illustrator 24.1.2, SVG Export Plug-In . SVG Version: 6.00 Build 0)  -->
<svg version="1.1" id="Layer_1" xmlns="http://www.w3.org/2000/svg" xmlns:xlink="http://www.w3.org/1999/xlink" x="0px" y="0px"
	 viewBox="0 0 20 20" style="enable-background:new 0 0 20 20;" xml:space="preserve">
<style type="text/css">
	.st0{fill:#7ED1E1;}
</style>
<g>
	<path class="st0" d="M10,12.11c-2.13,0-3.87-1.73-3.87-3.87S7.87,4.38,10,4.38s3.87,1.73,3.87,3.87S12.13,12.11,10,12.11z M10,6.86
		c-0.77,0-1.39,0.62-1.39,1.39S9.23,9.64,10,9.64c0.77,0,1.39-0.62,1.39-1.39S10.77,6.86,10,6.86z"/>
	<path class="st0" d="M10,20c-0.36,0-0.7-0.16-0.94-0.43L3.37,13c-1.16-1.44-1.62-2.81-1.62-4.75c0-2.2,0.86-4.27,2.42-5.83
		C5.73,0.86,7.8,0,10,0c2.2,0,4.27,0.86,5.83,2.42c1.56,1.56,2.42,3.63,2.42,5.83c0,1.94-0.46,3.31-1.59,4.72l-5.73,6.61
		C10.7,19.84,10.36,20,10,20z M10,2.47c-1.54,0-2.99,0.6-4.08,1.69C4.83,5.26,4.23,6.71,4.23,8.25c0,1.4,0.26,2.2,1.04,3.17
		L10,16.87l4.76-5.49c0.75-0.94,1.01-1.74,1.01-3.13c0-1.54-0.6-2.99-1.69-4.08S11.54,2.47,10,2.47z"/>
</g>
</svg>
