<?xml version="1.0" encoding="utf-8"?>
<!-- Generator: Adobe Illustrator 24.1.2, SVG Export Plug-In . SVG Version: 6.00 Build 0)  -->
<svg version="1.1" id="Layer_1" xmlns="http://www.w3.org/2000/svg" xmlns:xlink="http://www.w3.org/1999/xlink" x="0px" y="0px"
	 viewBox="0 0 25.71 30" style="enable-background:new 0 0 25.71 30;" xml:space="preserve">
<style type="text/css">
	.st0{fill-rule:evenodd;clip-rule:evenodd;fill:#FFFFFF;}
</style>
<path class="st0" d="M25.39,7.37L18.36,0.3L17.61,0H1.07L0,1.07v11.79h2.14V2.14H15v7.5l1.07,1.07h7.5v2.14h2.14V8.14L25.39,7.37
	L25.39,7.37z M17.14,8.57V2.14l6.43,6.43H17.14z M1.07,15L0,16.07v12.86L1.07,30h23.57l1.07-1.07V16.07L24.64,15H1.07z M23.57,25.71
	v2.14H2.14V17.14h21.43V25.71z M6.43,23.57H5.74v2.14H4.29v-6.43h2.27c1.61,0,2.42,0.77,2.42,2.14c0,0.29-0.06,0.58-0.17,0.85
	c-0.12,0.27-0.29,0.5-0.51,0.7C7.76,23.39,7.1,23.6,6.43,23.57L6.43,23.57z M6.3,20.46H5.74v1.99H6.3c0.77,0,1.16-0.34,1.16-1.01
	C7.46,20.79,7.07,20.46,6.3,20.46L6.3,20.46z M15,24.81c0.32-0.31,0.56-0.69,0.73-1.1c0.16-0.41,0.24-0.86,0.22-1.3
	c0-2.14-1.14-3.13-3.43-3.13h-2.27v6.43h2.27c0.45,0.02,0.91-0.05,1.33-0.2C14.27,25.36,14.67,25.12,15,24.81L15,24.81z
	 M11.68,24.54v-4.07h0.71c0.27-0.02,0.55,0.02,0.81,0.11c0.26,0.09,0.49,0.24,0.69,0.42c0.18,0.19,0.32,0.42,0.41,0.66
	c0.09,0.25,0.13,0.51,0.12,0.77c0.03,0.56-0.16,1.12-0.54,1.54c-0.2,0.19-0.43,0.33-0.68,0.43c-0.25,0.1-0.52,0.14-0.8,0.13H11.68
	L11.68,24.54z M21.21,23.23h-2.08v2.49h-1.46v-6.43h3.73v1.18h-2.27v1.59h2.08V23.23L21.21,23.23z"/>
</svg>
