<?xml version="1.0" encoding="utf-8"?>
<!-- Generator: Adobe Illustrator 24.1.2, SVG Export Plug-In . SVG Version: 6.00 Build 0)  -->
<svg version="1.1" id="Layer_1" xmlns="http://www.w3.org/2000/svg" xmlns:xlink="http://www.w3.org/1999/xlink" x="0px" y="0px"
	 viewBox="0 0 30 30" style="enable-background:new 0 0 30 30;" xml:space="preserve">
<style type="text/css">
	.st0{fill-rule:evenodd;clip-rule:evenodd;fill:#FFFFFF;}
</style>
<g>
	<path class="st0" d="M15,0C6.71,0,0,6.71,0,15c0,8.29,6.71,15,15,15s15-6.71,15-15C30,6.71,23.29,0,15,0z M17,18h-4.25v4.5h-3v-15
		H17c2.9,0,5.25,2.35,5.25,5.25C22.25,15.65,19.9,18,17,18z"/>
	<path class="st0" d="M17,10.5h-4.25V15H17c1.24,0,2.25-1.01,2.25-2.25S18.24,10.5,17,10.5z"/>
</g>
</svg>
