<?xml version="1.0" encoding="utf-8"?>
<!-- Generator: Adobe Illustrator 24.1.2, SVG Export Plug-In . SVG Version: 6.00 Build 0)  -->
<svg version="1.1" id="Layer_1" xmlns="http://www.w3.org/2000/svg" xmlns:xlink="http://www.w3.org/1999/xlink" x="0px" y="0px"
	 viewBox="0 0 20 20" style="enable-background:new 0 0 20 20;" xml:space="preserve">
<style type="text/css">
	.st0{fill:#FFFFFF;}
</style>
<path class="st0" d="M20,3.12c-0.02,0.1-0.04,0.2-0.06,0.3c-0.54,2.41-1.09,4.83-1.64,7.24c-0.48,2.1-0.96,4.2-1.43,6.3
	c-0.11,0.47-0.39,0.74-0.86,0.82c-0.3,0.05-0.55-0.06-0.79-0.22c-0.58-0.39-1.15-0.78-1.73-1.17c-0.89-0.6-1.77-1.2-2.66-1.81
	c-0.03-0.02-0.05-0.03-0.08-0.05c-0.1-0.09-0.19-0.09-0.29,0.01c-0.14,0.14-0.29,0.27-0.43,0.4c-0.57,0.54-1.13,1.08-1.7,1.61
	c-0.08,0.07-0.15,0.14-0.24,0.2c-0.46,0.29-1,0.14-1.23-0.36c-0.05-0.1-0.08-0.21-0.12-0.32c-0.5-1.47-1-2.93-1.49-4.4
	C5.16,11.39,5,11.26,4.72,11.19c-1.39-0.37-2.77-0.75-4.15-1.13c-0.08-0.02-0.16-0.05-0.23-0.08C0.12,9.87,0.01,9.69,0,9.45
	c-0.01-0.24,0.09-0.43,0.3-0.54c0.09-0.05,0.19-0.08,0.29-0.12c3.32-1.2,6.63-2.39,9.95-3.59c2.49-0.9,4.97-1.79,7.46-2.68
	c0.27-0.1,0.55-0.21,0.83-0.28c0.39-0.11,0.82,0.07,1.03,0.41C19.95,2.79,20,2.94,20,3.12z M5.93,11.11c0,0.1,0.03,0.19,0.06,0.28
	c0.41,1.22,0.82,2.45,1.23,3.67c0.03,0.08,0.02,0.22,0.14,0.21c0.11-0.01,0.07-0.15,0.11-0.23c0.01-0.03,0.01-0.06,0.02-0.09
	c0.09-0.73,0.18-1.46,0.25-2.2c0.02-0.25,0.11-0.43,0.31-0.58c0.38-0.3,0.76-0.62,1.13-0.93c2.32-1.89,4.64-3.79,6.96-5.68
	c0.1-0.08,0.19-0.16,0.28-0.25c0.06-0.06,0.07-0.12,0.03-0.2C16.4,5.03,16.34,5,16.26,5c-0.11,0-0.2,0.07-0.29,0.12
	c-0.76,0.43-1.52,0.87-2.27,1.31c-2.36,1.35-4.71,2.7-7.07,4.05c-0.16,0.09-0.33,0.19-0.49,0.28C6.01,10.83,5.93,10.95,5.93,11.11z"
	/>
</svg>
