<?xml version="1.0" encoding="utf-8"?>
<!-- Generator: Adobe Illustrator 24.1.2, SVG Export Plug-In . SVG Version: 6.00 Build 0)  -->
<svg version="1.1" id="Layer_1" xmlns="http://www.w3.org/2000/svg" xmlns:xlink="http://www.w3.org/1999/xlink" x="0px" y="0px"
	 viewBox="0 0 30 30" style="enable-background:new 0 0 30 30;" xml:space="preserve">
<style type="text/css">
	.st0{fill-rule:evenodd;clip-rule:evenodd;fill:#FFFFFF;}
</style>
<g>
	<path class="st0" d="M20.26,10c-0.11,0-0.2,0.07-0.29,0.12c-0.76,0.43-1.52,0.87-2.27,1.31c-2.36,1.35-4.71,2.7-7.07,4.05
		c-0.16,0.09-0.33,0.19-0.49,0.28c-0.13,0.07-0.21,0.19-0.21,0.35c0,0.1,0.03,0.19,0.06,0.28c0.41,1.22,0.82,2.45,1.23,3.67
		c0.03,0.08,0.02,0.22,0.14,0.21c0.11-0.01,0.07-0.15,0.11-0.23c0.01-0.03,0.01-0.06,0.02-0.09c0.09-0.73,0.18-1.46,0.25-2.2
		c0.02-0.25,0.11-0.43,0.31-0.58c0.38-0.3,0.76-0.62,1.13-0.93c2.32-1.89,4.64-3.79,6.96-5.68c0.1-0.08,0.19-0.16,0.28-0.25
		c0.06-0.06,0.07-0.12,0.03-0.2C20.4,10.03,20.34,10,20.26,10z"/>
	<path class="st0" d="M15,0C6.72,0,0,6.72,0,15c0,8.28,6.72,15,15,15s15-6.72,15-15C30,6.72,23.28,0,15,0z M23.94,8.42
		c-0.54,2.41-1.09,4.83-1.64,7.24c-0.48,2.1-0.96,4.2-1.43,6.3c-0.11,0.47-0.39,0.74-0.86,0.82c-0.3,0.05-0.55-0.06-0.79-0.22
		c-0.58-0.39-1.15-0.78-1.73-1.17c-0.89-0.6-1.77-1.2-2.66-1.81c-0.03-0.02-0.05-0.03-0.08-0.05c-0.1-0.09-0.19-0.09-0.29,0.01
		c-0.14,0.14-0.29,0.27-0.43,0.4c-0.57,0.54-1.13,1.08-1.7,1.61c-0.08,0.07-0.15,0.14-0.24,0.2c-0.46,0.29-1,0.14-1.23-0.36
		c-0.05-0.1-0.08-0.21-0.12-0.32c-0.5-1.47-1-2.93-1.49-4.4C9.16,16.39,9,16.26,8.72,16.19c-1.39-0.37-2.77-0.75-4.15-1.13
		c-0.08-0.02-0.16-0.05-0.23-0.08C4.12,14.87,4.01,14.69,4,14.45c-0.01-0.24,0.09-0.43,0.3-0.54c0.09-0.05,0.19-0.08,0.29-0.12
		c3.32-1.2,6.63-2.39,9.95-3.59c2.49-0.9,4.97-1.79,7.46-2.68c0.27-0.1,0.55-0.21,0.83-0.28c0.39-0.11,0.82,0.07,1.03,0.41
		C23.95,7.79,24,7.94,24,8.12C23.98,8.22,23.96,8.32,23.94,8.42z"/>
</g>
</svg>
