<?xml version="1.0" encoding="utf-8"?>
<!-- Generator: Adobe Illustrator 24.1.2, SVG Export Plug-In . SVG Version: 6.00 Build 0)  -->
<svg version="1.1" id="Layer_1" xmlns="http://www.w3.org/2000/svg" xmlns:xlink="http://www.w3.org/1999/xlink" x="0px" y="0px"
	 viewBox="0 0 30 30" style="enable-background:new 0 0 30 30;" xml:space="preserve">
<style type="text/css">
	.st0{fill:#FFFFFF;}
</style>
<path class="st0" d="M15,0C6.72,0,0,6.72,0,15c0,8.28,6.72,15,15,15c8.28,0,15-6.72,15-15C30,6.71,23.28,0,15,0z M22.46,11.63
	l0.01,0.48c0,4.88-3.71,10.51-10.51,10.51c-2.08,0-4.03-0.61-5.66-1.66c0.29,0.03,0.58,0.05,0.88,0.05c1.73,0,3.32-0.59,4.59-1.58
	c-1.62-0.03-2.98-1.1-3.45-2.56c0.23,0.04,0.46,0.06,0.7,0.06c0.34,0,0.66-0.04,0.97-0.13c-1.69-0.34-2.96-1.83-2.96-3.62v-0.05
	c0.5,0.28,1.07,0.44,1.67,0.46c-0.99-0.66-1.64-1.79-1.64-3.07c0-0.68,0.18-1.31,0.5-1.86c1.82,2.23,4.54,3.7,7.61,3.86
	c-0.06-0.27-0.1-0.55-0.1-0.84c0-2.04,1.65-3.69,3.69-3.69c1.06,0,2.02,0.45,2.7,1.17c0.84-0.17,1.63-0.47,2.35-0.9
	c-0.28,0.86-0.86,1.59-1.62,2.04c0.74-0.09,1.46-0.29,2.12-0.58C23.81,10.46,23.18,11.11,22.46,11.63z"/>
</svg>
