<?xml version="1.0" encoding="utf-8"?>
<!-- Generator: Adobe Illustrator 24.1.2, SVG Export Plug-In . SVG Version: 6.00 Build 0)  -->
<svg version="1.1" id="Layer_1" xmlns="http://www.w3.org/2000/svg" xmlns:xlink="http://www.w3.org/1999/xlink" x="0px" y="0px"
	 viewBox="0 0 30 30" style="enable-background:new 0 0 30 30;" xml:space="preserve">
<style type="text/css">
	.st0{fill:#FFFFFF;}
</style>
<path class="st0" d="M29.94,15c0,3.98-1.57,7.79-4.38,10.61C22.76,28.42,18.96,30,15,30s-7.76-1.58-10.57-4.39
	C1.63,22.79,0.06,18.98,0.06,15S1.63,7.21,4.43,4.39C7.24,1.58,11.04,0,15,0s7.76,1.58,10.57,4.39C28.37,7.21,29.94,11.02,29.94,15
	L29.94,15z M12.74,9.55c-0.14-0.1-0.3-0.16-0.48-0.17c-0.17-0.01-0.34,0.02-0.49,0.1c-0.15,0.08-0.28,0.2-0.37,0.35
	c-0.09,0.15-0.14,0.32-0.14,0.49v9.38c0,0.17,0.05,0.34,0.14,0.49c0.09,0.15,0.22,0.27,0.37,0.35c0.15,0.08,0.32,0.11,0.49,0.1
	c0.17-0.01,0.34-0.07,0.48-0.17l6.54-4.69c0.12-0.09,0.22-0.2,0.29-0.33c0.07-0.13,0.1-0.28,0.1-0.43c0-0.15-0.04-0.3-0.1-0.43
	c-0.07-0.13-0.17-0.25-0.29-0.33L12.74,9.55L12.74,9.55z"/>
</svg>
